<svg width="100%" viewBox="0 0 730 302" xmlns="http://www.w3.org/2000/svg">
    <style>
        .day { rx: 2; ry: 2; transition: all 0.2s; }
        .day:hover { stroke: #ff6b00; stroke-width: 2; }
        text { font-family: -apple-system, BlinkMacSystemFont, "Segoe UI", Helvetica, Arial, sans-serif, "Apple Color Emoji", "Segoe UI Emoji"; font-size: 10px; fill: #24292f; }
        
        /* Fogo Vermelho (Nível 8) - Intensidade Reduzida */
        .fire-red { 
            rx: 2;
            // animation: pulseFireRed 2s ease-in-out infinite;
            // filter: drop-shadow(0 0 6px rgba(255, 100, 0, 0.6));
        }
        
        @keyframes pulseFireRed {
            0% { 
                filter: 
                    drop-shadow(0 -3px 6px rgba(255, 0, 0, 0.8))
                    drop-shadow(0 -6px 12px rgba(255, 100, 0, 0.6))
                    drop-shadow(0 -10px 18px rgba(255, 150, 0, 0.4));
            }
            50% { 
                filter: 
                    drop-shadow(0 -5px 10px rgba(255, 0, 0, 0.9))
                    drop-shadow(0 -10px 20px rgba(255, 100, 0, 0.7))
                    drop-shadow(0 -15px 28px rgba(255, 200, 0, 0.5));
            }
            100% { 
                filter: 
                    drop-shadow(0 -3px 6px rgba(255, 0, 0, 0.8))
                    drop-shadow(0 -6px 12px rgba(255, 100, 0, 0.6))
                    drop-shadow(0 -10px 18px rgba(255, 150, 0, 0.4));
            }
        }
        
        /* Fogo Branco (Nível 9) - Super Intenso com Alto Contraste */
        .fire-white { 
            rx: 2;
            animation: pulseFireWhite 1.5s ease-in-out infinite;
            filter: drop-shadow(0 0 15px rgba(255, 255, 255, 1));
        }
        
        @keyframes pulseFireOrange {
            0% {
                filter: 
                drop-shadow(0 -6px 12px rgba(200, 50, 0, 1))
                drop-shadow(0 -12px 24px rgba(255, 255, 255, 1))
                drop-shadow(0 -20px 40px rgba(255, 160, 50, 0.9));
            }
            50% {
                filter: 
                drop-shadow(0 -10px 20px rgba(180, 30, 0, 1))
                drop-shadow(0 -20px 40px rgba(255, 255, 255, 1))
                drop-shadow(0 -30px 60px rgba(255, 200, 80, 1));
            }
            100% {
                filter: 
                drop-shadow(0 -6px 12px rgba(200, 50, 0, 1))
                drop-shadow(0 -12px 24px rgba(255, 255, 255, 1))
                drop-shadow(0 -20px 40px rgba(255, 160, 50, 0.9));
            }
        }
        
        /* Fagulhas Vermelhas (Fogo Vermelho) */
        .spark-red {
            fill: #ffaa00;
            opacity: 0;
            animation: sparkFlyRed 1.5s ease-out infinite;
        }
        
        @keyframes sparkFlyRed {
            0% {
                opacity: 1;
                transform: translateY(0) scale(1);
            }
            50% {
                opacity: 0.7;
            }
            100% {
                opacity: 0;
                transform: translateY(var(--ty)) scale(0.2);
            }
        }
        
        /* Fagulhas Azuis (Fogo Branco) - Pequenas e Dispersas */
        .spark-white {
            opacity: 0;
            animation: sparkFlyWhite 1.5s ease-out infinite;
        }
        
        @keyframes sparkFlyWhite {
            0% {
                opacity: 0.9;
                transform: translate(0, 0) scale(1);
                fill: #ffffff;
            }
            30% {
                opacity: 0.8;
                fill: #ffff00;
            }
            70% {
                opacity: 0.4;
                fill: #ffaa00;
            }
            100% {
                opacity: 0;
                transform: translate(var(--tx), var(--ty)) scale(0.3);
                fill: #ff6600;
            }
        }
        
        /* Raio Elétrico (Neon) */
        .lightning {
            stroke: #FFFFFF;
            stroke-width: 1.5;
            fill: none;
            opacity: 0;
            filter: drop-shadow(0 0 4px #00FFFF) drop-shadow(0 0 8px #FFFFFF);
            animation: lightningStrike 2s ease-in-out infinite;
        }
        
        @keyframes lightningStrike {
            0% {
                opacity: 0;
                stroke-width: 0.5;
            }
            10% {
                opacity: 1;
                stroke-width: 2;
                filter: drop-shadow(0 0 8px #00FFFF) drop-shadow(0 0 16px #FFFFFF);
            }
            15% {
                opacity: 0.3;
            }
            20% {
                opacity: 1;
                stroke-width: 2.5;
                filter: drop-shadow(0 0 12px #00FFFF) drop-shadow(0 0 20px #FFFFFF);
            }
            25% {
                opacity: 0;
            }
            100% {
                opacity: 0;
            }
        }
    </style>
    <rect width="730" height="302" fill="#ffffff" rx="6"/>
    
    <!-- Título -->
    <text x="15" y="25" fill="#24292f" font-size="12" font-weight="400">
        <tspan fill="#ff6b00" font-weight="600">847</tspan> contribuições nos últimos 6 meses
    </text>
    
    <!-- Labels dos dias -->
    <text x="25" y="82" text-anchor="end">Seg</text>
    <text x="25" y="134" text-anchor="end">Qua</text>
    <text x="25" y="186" text-anchor="end">Sex</text>
    <text x="40" y="35">Mar</text>
    <text x="92" y="35">Abr</text>
    <text x="196" y="35">Mai</text>
    <text x="326" y="35">Jun</text>
    <text x="430" y="35">Jul</text>
    <text x="534" y="35">Ago</text>
    <text x="664" y="35">Set</text>
    <rect class="day" x="40" y="40" width="22" height="22" fill="#ebedf0"/>
    <rect class="day" x="40" y="66" width="22" height="22" fill="#ebedf0"/>
    <rect class="day" x="40" y="92" width="22" height="22" fill="#ebedf0"/>
    <rect class="day" x="40" y="118" width="22" height="22" fill="#ebedf0"/>
    <rect class="day" x="40" y="144" width="22" height="22" fill="#ebedf0"/>
    <rect class="day" x="40" y="170" width="22" height="22" fill="#ebedf0"/>
    <rect class="day" x="40" y="196" width="22" height="22" fill="#ebedf0"/>
    <rect class="day" x="66" y="40" width="22" height="22" fill="hsl(60, 100%, 92%)"/>
    <rect class="day" x="66" y="66" width="22" height="22" fill="#ebedf0"/>
    <rect class="day" x="66" y="92" width="22" height="22" fill="#ebedf0"/>
    <rect class="day" x="66" y="118" width="22" height="22" fill="#ebedf0"/>
    <rect class="day" x="66" y="144" width="22" height="22" fill="#ebedf0"/>
    <rect class="day" x="66" y="170" width="22" height="22" fill="#ebedf0"/>
    <rect class="day" x="66" y="196" width="22" height="22" fill="hsl(60, 100%, 92%)"/>
    <rect class="day" x="92" y="40" width="22" height="22" fill="#ebedf0"/>
    <rect class="day" x="92" y="66" width="22" height="22" fill="#ebedf0"/>
    <rect class="day" x="92" y="92" width="22" height="22" fill="#ebedf0"/>
    <rect class="day" x="92" y="118" width="22" height="22" fill="hsl(60, 100%, 92%)"/>
    <rect class="day" x="92" y="144" width="22" height="22" fill="#ebedf0"/>
    <rect class="day" x="92" y="170" width="22" height="22" fill="#ebedf0"/>
    <rect class="day" x="92" y="196" width="22" height="22" fill="#ebedf0"/>
    <rect class="day" x="118" y="40" width="22" height="22" fill="#ebedf0"/>
    <rect class="day" x="118" y="66" width="22" height="22" fill="#ebedf0"/>
    <rect class="day" x="118" y="92" width="22" height="22" fill="#ebedf0"/>
    <rect class="day" x="118" y="118" width="22" height="22" fill="#ebedf0"/>
    <rect class="day" x="118" y="144" width="22" height="22" fill="#ebedf0"/>
    <rect class="day" x="118" y="170" width="22" height="22" fill="#ebedf0"/>
    <rect class="day" x="118" y="196" width="22" height="22" fill="#ebedf0"/>
    <rect class="day" x="144" y="40" width="22" height="22" fill="hsl(60, 100%, 92%)"/>
    <rect class="day" x="144" y="66" width="22" height="22" fill="#ebedf0"/>
    <rect class="day" x="144" y="92" width="22" height="22" fill="#ebedf0"/>
    <rect class="day" x="144" y="118" width="22" height="22" fill="#ebedf0"/>
    <rect class="day" x="144" y="144" width="22" height="22" fill="#ebedf0"/>
    <rect class="day" x="144" y="170" width="22" height="22" fill="#ebedf0"/>
    <rect class="day" x="144" y="196" width="22" height="22" fill="#ebedf0"/>
    <rect class="day" x="170" y="40" width="22" height="22" fill="#ebedf0"/>
    <rect class="day" x="170" y="66" width="22" height="22" fill="#ebedf0"/>
    <rect class="day" x="170" y="92" width="22" height="22" fill="#ebedf0"/>
    <rect class="day" x="170" y="118" width="22" height="22" fill="#ebedf0"/>
    <rect class="day" x="170" y="144" width="22" height="22" fill="#ebedf0"/>
    <rect class="day" x="170" y="170" width="22" height="22" fill="#ebedf0"/>
    <rect class="day" x="170" y="196" width="22" height="22" fill="#ebedf0"/>
    <rect class="day" x="196" y="40" width="22" height="22" fill="#ebedf0"/>
    <rect class="day" x="196" y="66" width="22" height="22" fill="#ebedf0"/>
    <rect class="day" x="196" y="92" width="22" height="22" fill="#ebedf0"/>
    <rect class="day" x="196" y="118" width="22" height="22" fill="#ebedf0"/>
    <rect class="day" x="196" y="144" width="22" height="22" fill="#ebedf0"/>
    <rect class="day" x="196" y="170" width="22" height="22" fill="#ebedf0"/>
    <rect class="day" x="196" y="196" width="22" height="22" fill="#ebedf0"/>
    <rect class="day" x="222" y="40" width="22" height="22" fill="#ebedf0"/>
    <rect class="day" x="222" y="66" width="22" height="22" fill="#ebedf0"/>
    <rect class="day" x="222" y="92" width="22" height="22" fill="#ebedf0"/>
    <rect class="day" x="222" y="118" width="22" height="22" fill="#ebedf0"/>
    <rect class="day" x="222" y="144" width="22" height="22" fill="#ebedf0"/>
    <rect class="day" x="222" y="170" width="22" height="22" fill="#ebedf0"/>
    <rect class="day" x="222" y="196" width="22" height="22" fill="hsl(60, 100%, 92%)"/>
    <rect class="day" x="248" y="40" width="22" height="22" fill="#ebedf0"/>
    <rect class="day" x="248" y="66" width="22" height="22" fill="#ebedf0"/>
    <rect class="day" x="248" y="92" width="22" height="22" fill="#ebedf0"/>
    <rect class="day" x="248" y="118" width="22" height="22" fill="#ebedf0"/>
    <rect class="day" x="248" y="144" width="22" height="22" fill="#ebedf0"/>
    <rect class="day" x="248" y="170" width="22" height="22" fill="hsl(60, 100%, 92%)"/>
    <rect class="day" x="248" y="196" width="22" height="22" fill="#ebedf0"/>
    <rect class="day" x="274" y="40" width="22" height="22" fill="#ebedf0"/>
    <rect class="day" x="274" y="66" width="22" height="22" fill="#ebedf0"/>
    <rect class="day" x="274" y="92" width="22" height="22" fill="#ebedf0"/>
    <rect class="day" x="274" y="118" width="22" height="22" fill="#ebedf0"/>
    <rect class="day" x="274" y="144" width="22" height="22" fill="#ebedf0"/>
    <rect class="day" x="274" y="170" width="22" height="22" fill="hsl(60, 100%, 92%)"/>
    <rect class="day" x="274" y="196" width="22" height="22" fill="#ebedf0"/>
    <rect class="day" x="300" y="40" width="22" height="22" fill="#ebedf0"/>
    <rect class="day" x="300" y="66" width="22" height="22" fill="hsl(60, 100%, 92%)"/>
    <rect class="day" x="300" y="92" width="22" height="22" fill="#ebedf0"/>
    <rect class="day" x="300" y="118" width="22" height="22" fill="#ebedf0"/>
    <rect class="day" x="300" y="144" width="22" height="22" fill="#ebedf0"/>
    <rect class="day" x="300" y="170" width="22" height="22" fill="#ebedf0"/>
    <rect class="day" x="300" y="196" width="22" height="22" fill="#ebedf0"/>
    <rect class="day" x="326" y="40" width="22" height="22" fill="#ebedf0"/>
    <rect class="day" x="326" y="66" width="22" height="22" fill="#ebedf0"/>
    <rect class="day" x="326" y="92" width="22" height="22" fill="#ebedf0"/>
    <rect class="day" x="326" y="118" width="22" height="22" fill="#ebedf0"/>
    <rect class="day" x="326" y="144" width="22" height="22" fill="#ebedf0"/>
    <rect class="day" x="326" y="170" width="22" height="22" fill="#ebedf0"/>
    <rect class="day" x="326" y="196" width="22" height="22" fill="#ebedf0"/>
    <rect class="day" x="352" y="40" width="22" height="22" fill="#ebedf0"/>
    <rect class="day" x="352" y="66" width="22" height="22" fill="hsl(60, 100%, 92%)"/>
    <rect class="day" x="352" y="92" width="22" height="22" fill="#ebedf0"/>
    <rect class="day" x="352" y="118" width="22" height="22" fill="hsl(60, 100%, 92%)"/>
    <rect class="day" x="352" y="144" width="22" height="22" fill="#ebedf0"/>
    <rect class="day" x="352" y="170" width="22" height="22" fill="#ebedf0"/>
    <rect class="day" x="352" y="196" width="22" height="22" fill="hsl(60, 100%, 92%)"/>
    <rect class="day" x="378" y="40" width="22" height="22" fill="hsl(60, 100%, 92%)"/>
    <rect class="day" x="378" y="66" width="22" height="22" fill="rgb(255,60,30)"/>
    <rect class="day" x="378" y="92" width="22" height="22" fill="#ffff3e"/>
    <rect class="day" x="378" y="118" width="22" height="22" fill="#ebedf0"/>
    <rect class="day" x="378" y="144" width="22" height="22" fill="#ebedf0"/>
    <rect class="day" x="378" y="170" width="22" height="22" fill="#ebedf0"/>
    <rect class="day" x="378" y="196" width="22" height="22" fill="#ebedf0"/>
    <rect class="day" x="404" y="40" width="22" height="22" fill="#ebedf0"/>
    <rect class="day" x="404" y="66" width="22" height="22" fill="#ebedf0"/>
    <rect class="day" x="404" y="92" width="22" height="22" fill="#ffff3e"/>
    <rect class="day" x="404" y="118" width="22" height="22" fill="#ffff3e"/>
    <rect class="day" x="404" y="144" width="22" height="22" fill="#ebedf0"/>
    <rect class="day" x="404" y="170" width="22" height="22" fill="#ebedf0"/>
    <rect class="day" x="404" y="196" width="22" height="22" fill="#ebedf0"/>
    <rect class="day" x="430" y="40" width="22" height="22" fill="hsl(60, 100%, 92%)"/>
    <rect class="day" x="430" y="66" width="22" height="22" fill="rgb(255,100,40)"/>
    <rect class="day" x="430" y="170" width="22" height="22" fill="hsl(60, 100%, 92%)"/>
    <rect class="day" x="430" y="196" width="22" height="22" fill="#ebedf0"/>
    <rect class="day" x="456" y="40" width="22" height="22" fill="#ffff3e"/>
    <rect class="day" x="456" y="66" width="22" height="22" fill="#ebedf0"/>
    <rect class="day" x="456" y="92" width="22" height="22" fill="hsl(60, 100%, 92%)"/>
    <rect class="day" x="456" y="118" width="22" height="22" fill="hsl(60, 100%, 92%)"/>
    <rect class="day" x="456" y="144" width="22" height="22" fill="#ebedf0"/>
    <rect class="day" x="456" y="170" width="22" height="22" fill="#ebedf0"/>
    <rect class="day" x="456" y="196" width="22" height="22" fill="#ebedf0"/>
    <rect class="day" x="482" y="40" width="22" height="22" fill="#ebedf0"/>
    <rect class="day" x="482" y="66" width="22" height="22" fill="#FFD700"/>
    <rect class="day" x="482" y="92" width="22" height="22" fill="#ffff3e"/>
    <rect class="day" x="482" y="118" width="22" height="22" fill="#ffff3e"/>
    <rect class="day" x="482" y="144" width="22" height="22" fill="#FFD700"/>
    <rect class="day" x="482" y="170" width="22" height="22" fill="#ebedf0"/>
    <rect class="day" x="482" y="196" width="22" height="22" fill="#ebedf0"/>
    <rect class="day" x="508" y="40" width="22" height="22" fill="#ebedf0"/>
    <rect class="day" x="508" y="92" width="22" height="22" fill="rgb(255,160,90)"/>
    <rect class="day" x="508" y="118" width="22" height="22" fill="#FFD700"/>
    <rect class="day" x="508" y="144" width="22" height="22" fill="#ebedf0"/>
    <rect class="day" x="508" y="170" width="22" height="22" fill="hsl(60, 100%, 92%)"/>
    <rect class="day" x="508" y="196" width="22" height="22" fill="#ebedf0"/>
    <rect class="day" x="534" y="40" width="22" height="22" fill="#ebedf0"/>
    <rect class="day" x="534" y="66" width="22" height="22" fill="hsl(60, 100%, 92%)"/>
    <rect class="day" x="534" y="92" width="22" height="22" fill="rgb(255,130,60)"/>
    <rect class="day" x="534" y="118" width="22" height="22" fill="hsl(60, 100%, 92%)"/>
    <rect class="day" x="534" y="170" width="22" height="22" fill="#ebedf0"/>
    <rect class="day" x="534" y="196" width="22" height="22" fill="#ebedf0"/>
    <rect class="day" x="560" y="40" width="22" height="22" fill="#ebedf0"/>
    <rect class="day" x="560" y="66" width="22" height="22" fill="hsl(60, 100%, 92%)"/>
    <rect class="day" x="560" y="170" width="22" height="22" fill="#ebedf0"/>
    <rect class="day" x="560" y="196" width="22" height="22" fill="#ebedf0"/>
    <rect class="day" x="586" y="66" width="22" height="22" fill="hsl(60, 100%, 92%)"/>
    <rect class="day" x="586" y="144" width="22" height="22" fill="rgb(255,100,40)"/>
    <rect class="day" x="586" y="196" width="22" height="22" fill="#ffff3e"/>
    <rect class="day" x="612" y="118" width="22" height="22" fill="rgb(255,160,90)"/>
    <rect class="day" x="638" y="40" width="22" height="22" fill="rgb(255,160,90)"/>
    <rect class="day" x="638" y="196" width="22" height="22" fill="rgb(255,160,90)"/>
    <rect class="day" x="664" y="40" width="22" height="22" fill="#ebedf0"/>
    <rect class="day" x="664" y="92" width="22" height="22" fill="rgb(255,130,60)"/>
    <rect class="day" x="664" y="118" width="22" height="22" fill="#ebedf0"/>
    <rect class="day" x="664" y="144" width="22" height="22" fill="#ffff3e"/>
    <rect class="day" x="664" y="170" width="22" height="22" fill="#ebedf0"/>
    <rect class="day fire-red" x="430" y="92" width="22" height="22" fill="url(#fireGradientRed)"/>
    <rect class="day fire-white" x="430" y="118" width="22" height="22" fill="url(#fireGradientWhite)"/>
    <path class="lightning" d="M 441.0,113 L 443.37071877850286,122.4 L 439.32201434918204,126.8 L 438.7053740991992,131.2 L 445.7119147548039,135.6 L 441.0,145" style="animation-delay: 0.7639793185772634s;"/>
    <rect class="day fire-white" x="430" y="144" width="22" height="22" fill="url(#fireGradientWhite)"/>
    <path class="lightning" d="M 441.0,139 L 444.7414973549335,148.4 L 444.3673890198127,152.8 L 444.96802643806313,157.2 L 438.56537356389856,161.6 L 441.0,171" style="animation-delay: 0.780137294258294s;"/>
    <rect class="day fire-red" x="508" y="66" width="22" height="22" fill="url(#fireGradientRed)"/>
    <rect class="day fire-white" x="534" y="144" width="22" height="22" fill="url(#fireGradientWhite)"/>
    <path class="lightning" d="M 545.0,139 L 541.5372279515824,148.4 L 547.5300664612515,152.8 L 546.0665869100839,157.2 L 546.5824586774963,161.6 L 545.0,171" style="animation-delay: 1.8962208709314643s;"/>
    <rect class="day fire-red" x="560" y="92" width="22" height="22" fill="url(#fireGradientRed)"/>
    <rect class="day fire-white" x="560" y="118" width="22" height="22" fill="url(#fireGradientWhite)"/>
    <path class="lightning" d="M 571.0,113 L 570.211785969314,122.4 L 569.7871874693601,126.8 L 572.3160256384086,131.2 L 571.633009651947,135.6 L 571.0,145" style="animation-delay: 0.12994335553784708s;"/>
    <rect class="day fire-red" x="560" y="144" width="22" height="22" fill="url(#fireGradientRed)"/>
    <rect class="day fire-white" x="586" y="40" width="22" height="22" fill="url(#fireGradientWhite)"/>
    <path class="lightning" d="M 597.0,35 L 598.6080546485082,44.4 L 599.7980383650373,48.8 L 597.0483764457291,53.2 L 594.0804975629994,57.6 L 597.0,67" style="animation-delay: 0.20921160204949651s;"/>
    <rect class="day fire-white" x="586" y="92" width="22" height="22" fill="url(#fireGradientWhite)"/>
    <path class="lightning" d="M 597.0,87 L 596.2102281571499,96.4 L 602.1255138192624,100.8 L 595.3520632599888,105.2 L 599.3125847473576,109.6 L 597.0,119" style="animation-delay: 0.033352969807130206s;"/>
    <rect class="day fire-white" x="586" y="118" width="22" height="22" fill="url(#fireGradientWhite)"/>
    <path class="lightning" d="M 597.0,113 L 595.6651735372752,122.4 L 593.5652787372535,126.8 L 594.5331784671955,131.2 L 599.0421909787477,135.6 L 597.0,145" style="animation-delay: 1.3545453240484384s;"/>
    <rect class="day fire-white" x="586" y="170" width="22" height="22" fill="url(#fireGradientWhite)"/>
    <path class="lightning" d="M 597.0,165 L 596.3335616127993,174.4 L 599.0209953449227,178.8 L 596.8664352522492,183.2 L 599.7344167769704,187.6 L 597.0,197" style="animation-delay: 0.9971817784741195s;"/>
    <rect class="day fire-white" x="612" y="40" width="22" height="22" fill="url(#fireGradientWhite)"/>
    <path class="lightning" d="M 623.0,35 L 622.6010734917877,44.4 L 624.7661104516598,48.8 L 624.7449054070273,53.2 L 621.451959445428,57.6 L 623.0,67" style="animation-delay: 1.6824201085338786s;"/>
    <rect class="day fire-white" x="612" y="66" width="22" height="22" fill="url(#fireGradientWhite)"/>
    <path class="lightning" d="M 623.0,61 L 623.1404881235226,70.4 L 621.7976600027582,74.8 L 625.8063701554651,79.2 L 621.1690717790555,83.6 L 623.0,93" style="animation-delay: 0.9478157239443321s;"/>
    <rect class="day fire-white" x="612" y="92" width="22" height="22" fill="url(#fireGradientWhite)"/>
    <path class="lightning" d="M 623.0,87 L 619.863011859821,96.4 L 619.6949450375051,100.8 L 621.8275178529773,105.2 L 627.3947516724126,109.6 L 623.0,119" style="animation-delay: 0.11448905751646388s;"/>
    <rect class="day fire-white" x="612" y="144" width="22" height="22" fill="url(#fireGradientWhite)"/>
    <path class="lightning" d="M 623.0,139 L 621.6317057330655,148.4 L 622.0787112832019,152.8 L 621.8912876591313,157.2 L 627.8968976572789,161.6 L 623.0,171" style="animation-delay: 1.8056952600206433s;"/>
    <rect class="day fire-white" x="612" y="170" width="22" height="22" fill="url(#fireGradientWhite)"/>
    <path class="lightning" d="M 623.0,165 L 622.626885119786,174.4 L 627.6651315947305,178.8 L 625.2834423219115,183.2 L 621.8045175493835,187.6 L 623.0,197" style="animation-delay: 1.4697976338988095s;"/>
    <rect class="day fire-white" x="612" y="196" width="22" height="22" fill="url(#fireGradientWhite)"/>
    <path class="lightning" d="M 623.0,191 L 625.4052380960632,200.4 L 622.7716098108656,204.8 L 621.5446927673737,209.2 L 626.8690445750614,213.6 L 623.0,223" style="animation-delay: 1.4257781804946126s;"/>
    <rect class="day fire-white" x="638" y="66" width="22" height="22" fill="url(#fireGradientWhite)"/>
    <path class="lightning" d="M 649.0,61 L 646.8939855925335,70.4 L 654.4754089999253,74.8 L 648.3172008728518,79.2 L 647.7107857709976,83.6 L 649.0,93" style="animation-delay: 0.34667211395014297s;"/>
    <rect class="day fire-white" x="638" y="92" width="22" height="22" fill="url(#fireGradientWhite)"/>
    <path class="lightning" d="M 649.0,87 L 651.8612149204395,96.4 L 647.1979300959874,100.8 L 647.2360785414162,105.2 L 647.0493214073808,109.6 L 649.0,119" style="animation-delay: 1.0110057925400955s;"/>
    <rect class="day fire-white" x="638" y="118" width="22" height="22" fill="url(#fireGradientWhite)"/>
    <path class="lightning" d="M 649.0,113 L 647.8754877604858,122.4 L 646.7123459316298,126.8 L 651.2116024990049,131.2 L 645.1710271324569,135.6 L 649.0,145" style="animation-delay: 0.79260101709307s;"/>
    <rect class="day fire-white" x="638" y="144" width="22" height="22" fill="url(#fireGradientWhite)"/>
    <path class="lightning" d="M 649.0,139 L 645.7339368201679,148.4 L 651.1202164045919,152.8 L 651.9194669564047,157.2 L 651.3569521762945,161.6 L 649.0,171" style="animation-delay: 1.4898989876826831s;"/>
    <rect class="day fire-white" x="638" y="170" width="22" height="22" fill="url(#fireGradientWhite)"/>
    <path class="lightning" d="M 649.0,165 L 649.6863478168688,174.4 L 648.5646441305096,178.8 L 650.3212282813099,183.2 L 648.3549292551282,187.6 L 649.0,197" style="animation-delay: 1.6935445240174234s;"/>
    <rect class="day fire-white" x="664" y="66" width="22" height="22" fill="url(#fireGradientWhite)"/>
    <path class="lightning" d="M 675.0,61 L 675.0182967755054,70.4 L 675.8829761997561,74.8 L 671.6238453799477,79.2 L 673.0944617992765,83.6 L 675.0,93" style="animation-delay: 0.8704806032623236s;"/>

    <defs>
        <!-- Gradiente Fogo Vermelho -->
        <linearGradient id="fireGradientRed" x1="0%" y1="100%" x2="100%" y2="0%">
            <stop offset="0%" style="stop-color:#ff0000;stop-opacity:1">
                <animate attributeName="stop-color" values="#ff0000;#cc0000;#ff0000" dur="2s" repeatCount="indefinite"/>
            </stop>
            <stop offset="40%" style="stop-color:#ff4400;stop-opacity:1">
                <animate attributeName="stop-color" values="#ff4400;#ff6600;#ff4400" dur="2s" repeatCount="indefinite"/>
            </stop>
            <stop offset="70%" style="stop-color:#ff8800;stop-opacity:1">
                <animate attributeName="stop-color" values="#ff8800;#ffaa00;#ff8800" dur="2s" repeatCount="indefinite"/>
            </stop>
            <stop offset="100%" style="stop-color:#ffff00;stop-opacity:1">
                <animate attributeName="stop-color" values="#ffff00;#ffcc00;#ffff00" dur="2s" repeatCount="indefinite"/>
            </stop>
        </linearGradient>
        
        
        <!-- Gradiente Fogo Branco (Alto Contraste) -->
        <linearGradient id="fireGradientWhite" x1="0%" y1="100%" x2="100%" y2="0%">
            <stop offset="0%" style="stop-color:#ff0000;stop-opacity:1">
                <animate attributeName="stop-color" values="#ff0000;#cc0000;#ff0000" dur="1.5s" repeatCount="indefinite"/>
            </stop>
            <stop offset="30%" style="stop-color:#ff6600;stop-opacity:1">
                <animate attributeName="stop-color" values="#ff6600;#ff8800;#ff6600" dur="1.5s" repeatCount="indefinite"/>
            </stop>
            <stop offset="60%" style="stop-color:#ffdd00;stop-opacity:1">
                <animate attributeName="stop-color" values="#ffdd00;#ffff00;#ffdd00" dur="1.5s" repeatCount="indefinite"/>
            </stop>
            <stop offset="100%" style="stop-color:#ffffff;stop-opacity:1">
                <animate attributeName="stop-color" values="#ffffff;#ffffcc;#ffffff" dur="1.5s" repeatCount="indefinite"/>
            </stop>
        </linearGradient>
    </defs>
    
    <!-- Legenda -->
    <g transform="translate(40, 252)">
        <text y="15">Menos</text>
        <rect x="40" width="22" height="22" fill="#ebedf0" rx="2"/>
        <rect x="64" width="22" height="22" fill="hsl(60, 100%, 92%)" rx="2"/>
        <rect x="88" width="22" height="22" fill="#ffff3e" rx="2"/>
        <rect x="112" width="22" height="22" fill="#FFD700" rx="2"/>
        <rect x="136" width="22" height="22" fill="rgb(255,160,90)" rx="2"/>
        <rect x="160" width="22" height="22" fill="rgb(255,130,60)" rx="2"/>
        <rect x="184" width="22" height="22" fill="rgb(255,100,40)" rx="2"/>
        <rect x="208" width="22" height="22" fill="rgb(255,60,30)" rx="2"/>
        <rect class="day fire-red" x="232" width="22" height="22" fill="url(#fireGradientRed)" rx="2"/>
        <rect class="day fire-white" x="256" width="22" height="22" fill="url(#fireGradientWhite)" rx="2"/>
        <text x="290" y="15">Mais 🔥⚡</text>
    </g>
</svg>