<svg width="872" height="172" xmlns="http://www.w3.org/2000/svg">
    <style>
        .day { rx: 2; ry: 2; transition: all 0.2s; }
        .day:hover { stroke: #ff6b00; stroke-width: 2; }
        text { font-family: 'JetBrains Mono', monospace; font-size: 10px; fill: #8b949e; }
        .fire { animation: burn 1.5s ease-in-out infinite; }
        @keyframes burn {
            0%, 100% { opacity: 1; }
            50% { opacity: 0.8; }
        }
    </style>
    <rect width="872" height="172" fill="#0d1117"/>
    
    <!-- Título -->
    <text x="10" y="20" fill="#c9d1d9" font-size="14" font-weight="600">
        <tspan fill="#ff6b00">220</tspan> contributions in the last year
    </text>
    
    <!-- Labels dos dias -->
    <text x="5" y="66" text-anchor="end">Mon</text>
    <text x="5" y="98" text-anchor="end">Wed</text>
    <text x="5" y="130" text-anchor="end">Fri</text>
    <text x="40" y="35">Feb</text>
    <rect class="day" x="40" y="40" width="12" height="12" fill="#1a1e2e"/>
    <rect class="day" x="40" y="56" width="12" height="12" fill="#1a1e2e"/>
    <rect class="day" x="40" y="72" width="12" height="12" fill="#1a1e2e"/>
    <rect class="day" x="40" y="88" width="12" height="12" fill="#1a1e2e"/>
    <rect class="day" x="40" y="104" width="12" height="12" fill="#1a1e2e"/>
    <rect class="day" x="40" y="120" width="12" height="12" fill="#1a1e2e"/>
    <rect class="day" x="40" y="136" width="12" height="12" fill="#1a1e2e"/>
    <rect class="day" x="56" y="40" width="12" height="12" fill="#1a1e2e"/>
    <rect class="day" x="56" y="56" width="12" height="12" fill="rgb(255,255,255)"/>
    <rect class="day" x="56" y="72" width="12" height="12" fill="#1a1e2e"/>
    <rect class="day" x="56" y="88" width="12" height="12" fill="rgb(255,255,255)"/>
    <rect class="day" x="56" y="104" width="12" height="12" fill="#1a1e2e"/>
    <rect class="day" x="56" y="120" width="12" height="12" fill="#1a1e2e"/>
    <rect class="day" x="56" y="136" width="12" height="12" fill="#1a1e2e"/>
    <rect class="day" x="72" y="40" width="12" height="12" fill="#1a1e2e"/>
    <rect class="day" x="72" y="56" width="12" height="12" fill="rgb(255,255,255)"/>
    <rect class="day" x="72" y="72" width="12" height="12" fill="#1a1e2e"/>
    <rect class="day" x="72" y="88" width="12" height="12" fill="#1a1e2e"/>
    <rect class="day" x="72" y="104" width="12" height="12" fill="#1a1e2e"/>
    <rect class="day" x="72" y="120" width="12" height="12" fill="#1a1e2e"/>
    <rect class="day" x="72" y="136" width="12" height="12" fill="#1a1e2e"/>
    <rect class="day" x="88" y="40" width="12" height="12" fill="#1a1e2e"/>
    <rect class="day" x="88" y="56" width="12" height="12" fill="#1a1e2e"/>
    <rect class="day" x="88" y="72" width="12" height="12" fill="#1a1e2e"/>
    <rect class="day" x="88" y="88" width="12" height="12" fill="rgb(255,255,255)"/>
    <rect class="day" x="88" y="104" width="12" height="12" fill="#1a1e2e"/>
    <rect class="day" x="88" y="120" width="12" height="12" fill="#1a1e2e"/>
    <rect class="day" x="88" y="136" width="12" height="12" fill="#1a1e2e"/>
    <text x="104" y="35">Mar</text>
    <rect class="day" x="104" y="40" width="12" height="12" fill="#1a1e2e"/>
    <rect class="day" x="104" y="56" width="12" height="12" fill="#1a1e2e"/>
    <rect class="day" x="104" y="72" width="12" height="12" fill="rgb(255,255,255)"/>
    <rect class="day" x="104" y="88" width="12" height="12" fill="#1a1e2e"/>
    <rect class="day" x="104" y="104" width="12" height="12" fill="#1a1e2e"/>
    <rect class="day" x="104" y="120" width="12" height="12" fill="#1a1e2e"/>
    <rect class="day" x="104" y="136" width="12" height="12" fill="#1a1e2e"/>
    <rect class="day" x="120" y="40" width="12" height="12" fill="#1a1e2e"/>
    <rect class="day" x="120" y="56" width="12" height="12" fill="#1a1e2e"/>
    <rect class="day" x="120" y="72" width="12" height="12" fill="#1a1e2e"/>
    <rect class="day" x="120" y="88" width="12" height="12" fill="#1a1e2e"/>
    <rect class="day" x="120" y="104" width="12" height="12" fill="#1a1e2e"/>
    <rect class="day" x="120" y="120" width="12" height="12" fill="#1a1e2e"/>
    <rect class="day" x="120" y="136" width="12" height="12" fill="#1a1e2e"/>
    <rect class="day" x="136" y="40" width="12" height="12" fill="#1a1e2e"/>
    <rect class="day" x="136" y="56" width="12" height="12" fill="#1a1e2e"/>
    <rect class="day" x="136" y="72" width="12" height="12" fill="rgb(255,255,255)"/>
    <rect class="day" x="136" y="88" width="12" height="12" fill="#1a1e2e"/>
    <rect class="day" x="136" y="104" width="12" height="12" fill="#1a1e2e"/>
    <rect class="day" x="136" y="120" width="12" height="12" fill="#1a1e2e"/>
    <rect class="day" x="136" y="136" width="12" height="12" fill="#1a1e2e"/>
    <rect class="day" x="152" y="40" width="12" height="12" fill="#1a1e2e"/>
    <rect class="day" x="152" y="56" width="12" height="12" fill="rgb(255,255,255)"/>
    <rect class="day" x="152" y="72" width="12" height="12" fill="#1a1e2e"/>
    <rect class="day" x="152" y="88" width="12" height="12" fill="#1a1e2e"/>
    <rect class="day" x="152" y="104" width="12" height="12" fill="#1a1e2e"/>
    <rect class="day" x="152" y="120" width="12" height="12" fill="#1a1e2e"/>
    <rect class="day" x="152" y="136" width="12" height="12" fill="#1a1e2e"/>
    <rect class="day" x="168" y="40" width="12" height="12" fill="#1a1e2e"/>
    <rect class="day" x="168" y="56" width="12" height="12" fill="#1a1e2e"/>
    <rect class="day" x="168" y="72" width="12" height="12" fill="#1a1e2e"/>
    <rect class="day" x="168" y="88" width="12" height="12" fill="#1a1e2e"/>
    <rect class="day" x="168" y="104" width="12" height="12" fill="#1a1e2e"/>
    <rect class="day" x="168" y="120" width="12" height="12" fill="#1a1e2e"/>
    <rect class="day" x="168" y="136" width="12" height="12" fill="#1a1e2e"/>
    <text x="184" y="35">Apr</text>
    <rect class="day" x="184" y="40" width="12" height="12" fill="#1a1e2e"/>
    <rect class="day" x="184" y="56" width="12" height="12" fill="#1a1e2e"/>
    <rect class="day" x="184" y="72" width="12" height="12" fill="#1a1e2e"/>
    <rect class="day" x="184" y="88" width="12" height="12" fill="#1a1e2e"/>
    <rect class="day" x="184" y="104" width="12" height="12" fill="#1a1e2e"/>
    <rect class="day" x="184" y="120" width="12" height="12" fill="#1a1e2e"/>
    <rect class="day" x="184" y="136" width="12" height="12" fill="#1a1e2e"/>
    <rect class="day" x="200" y="40" width="12" height="12" fill="#1a1e2e"/>
    <rect class="day" x="200" y="56" width="12" height="12" fill="#1a1e2e"/>
    <rect class="day" x="200" y="72" width="12" height="12" fill="#1a1e2e"/>
    <rect class="day" x="200" y="88" width="12" height="12" fill="#1a1e2e"/>
    <rect class="day" x="200" y="104" width="12" height="12" fill="#1a1e2e"/>
    <rect class="day" x="200" y="120" width="12" height="12" fill="#1a1e2e"/>
    <rect class="day" x="200" y="136" width="12" height="12" fill="#1a1e2e"/>
    <rect class="day" x="216" y="40" width="12" height="12" fill="#1a1e2e"/>
    <rect class="day" x="216" y="56" width="12" height="12" fill="#1a1e2e"/>
    <rect class="day" x="216" y="72" width="12" height="12" fill="#1a1e2e"/>
    <rect class="day" x="216" y="88" width="12" height="12" fill="#1a1e2e"/>
    <rect class="day" x="216" y="104" width="12" height="12" fill="#1a1e2e"/>
    <rect class="day" x="216" y="120" width="12" height="12" fill="#1a1e2e"/>
    <rect class="day" x="216" y="136" width="12" height="12" fill="#1a1e2e"/>
    <rect class="day" x="232" y="40" width="12" height="12" fill="#1a1e2e"/>
    <rect class="day" x="232" y="56" width="12" height="12" fill="#1a1e2e"/>
    <rect class="day" x="232" y="72" width="12" height="12" fill="#1a1e2e"/>
    <rect class="day" x="232" y="88" width="12" height="12" fill="#1a1e2e"/>
    <rect class="day" x="232" y="104" width="12" height="12" fill="#1a1e2e"/>
    <rect class="day" x="232" y="120" width="12" height="12" fill="#1a1e2e"/>
    <rect class="day" x="232" y="136" width="12" height="12" fill="#1a1e2e"/>
    <text x="248" y="35">May</text>
    <rect class="day" x="248" y="40" width="12" height="12" fill="#1a1e2e"/>
    <rect class="day" x="248" y="56" width="12" height="12" fill="#1a1e2e"/>
    <rect class="day" x="248" y="72" width="12" height="12" fill="#1a1e2e"/>
    <rect class="day" x="248" y="88" width="12" height="12" fill="#1a1e2e"/>
    <rect class="day" x="248" y="104" width="12" height="12" fill="#1a1e2e"/>
    <rect class="day" x="248" y="120" width="12" height="12" fill="#1a1e2e"/>
    <rect class="day" x="248" y="136" width="12" height="12" fill="#1a1e2e"/>
    <rect class="day" x="264" y="40" width="12" height="12" fill="rgb(255,255,255)"/>
    <rect class="day" x="264" y="56" width="12" height="12" fill="#1a1e2e"/>
    <rect class="day" x="264" y="72" width="12" height="12" fill="#1a1e2e"/>
    <rect class="day" x="264" y="88" width="12" height="12" fill="#1a1e2e"/>
    <rect class="day" x="264" y="104" width="12" height="12" fill="rgb(255,255,255)"/>
    <rect class="day" x="264" y="120" width="12" height="12" fill="#1a1e2e"/>
    <rect class="day" x="264" y="136" width="12" height="12" fill="#1a1e2e"/>
    <rect class="day" x="280" y="40" width="12" height="12" fill="#1a1e2e"/>
    <rect class="day" x="280" y="56" width="12" height="12" fill="#1a1e2e"/>
    <rect class="day" x="280" y="72" width="12" height="12" fill="#1a1e2e"/>
    <rect class="day" x="280" y="88" width="12" height="12" fill="#1a1e2e"/>
    <rect class="day" x="280" y="104" width="12" height="12" fill="#1a1e2e"/>
    <rect class="day" x="280" y="120" width="12" height="12" fill="#1a1e2e"/>
    <rect class="day" x="280" y="136" width="12" height="12" fill="#1a1e2e"/>
    <rect class="day" x="296" y="40" width="12" height="12" fill="#1a1e2e"/>
    <rect class="day" x="296" y="56" width="12" height="12" fill="#1a1e2e"/>
    <rect class="day" x="296" y="72" width="12" height="12" fill="#1a1e2e"/>
    <rect class="day" x="296" y="88" width="12" height="12" fill="#1a1e2e"/>
    <rect class="day" x="296" y="104" width="12" height="12" fill="#1a1e2e"/>
    <rect class="day" x="296" y="120" width="12" height="12" fill="#1a1e2e"/>
    <rect class="day" x="296" y="136" width="12" height="12" fill="#1a1e2e"/>
    <text x="312" y="35">Jun</text>
    <rect class="day" x="312" y="40" width="12" height="12" fill="#1a1e2e"/>
    <rect class="day" x="312" y="56" width="12" height="12" fill="#1a1e2e"/>
    <rect class="day" x="312" y="72" width="12" height="12" fill="#1a1e2e"/>
    <rect class="day" x="312" y="88" width="12" height="12" fill="#1a1e2e"/>
    <rect class="day" x="312" y="104" width="12" height="12" fill="#1a1e2e"/>
    <rect class="day" x="312" y="120" width="12" height="12" fill="#1a1e2e"/>
    <rect class="day" x="312" y="136" width="12" height="12" fill="#1a1e2e"/>
    <rect class="day" x="328" y="40" width="12" height="12" fill="#1a1e2e"/>
    <rect class="day" x="328" y="56" width="12" height="12" fill="rgb(255,255,255)"/>
    <rect class="day" x="328" y="72" width="12" height="12" fill="#1a1e2e"/>
    <rect class="day" x="328" y="88" width="12" height="12" fill="#1a1e2e"/>
    <rect class="day" x="328" y="104" width="12" height="12" fill="#1a1e2e"/>
    <rect class="day" x="328" y="120" width="12" height="12" fill="rgb(255,255,255)"/>
    <rect class="day" x="328" y="136" width="12" height="12" fill="rgb(255,255,255)"/>
    <rect class="day" x="344" y="40" width="12" height="12" fill="rgb(255,130,60)"/>
    <rect class="day" x="344" y="56" width="12" height="12" fill="#ffff3e"/>
    <rect class="day" x="344" y="72" width="12" height="12" fill="rgb(255,100,40)"/>
    <rect class="day fire" x="344" y="88" width="12" height="12" fill="url(#fireGradient)"/>
    <rect class="day" x="344" y="104" width="12" height="12" fill="rgb(255,255,255)"/>
    <rect class="day" x="344" y="120" width="12" height="12" fill="#1a1e2e"/>
    <rect class="day" x="344" y="136" width="12" height="12" fill="#1a1e2e"/>
    <rect class="day" x="360" y="40" width="12" height="12" fill="#1a1e2e"/>
    <rect class="day" x="360" y="56" width="12" height="12" fill="#1a1e2e"/>
    <rect class="day" x="360" y="72" width="12" height="12" fill="#1a1e2e"/>
    <rect class="day" x="360" y="88" width="12" height="12" fill="#1a1e2e"/>
    <rect class="day" x="360" y="104" width="12" height="12" fill="#1a1e2e"/>
    <rect class="day" x="360" y="120" width="12" height="12" fill="#1a1e2e"/>
    <rect class="day" x="360" y="136" width="12" height="12" fill="#1a1e2e"/>
    <rect class="day" x="376" y="40" width="12" height="12" fill="#1a1e2e"/>
    <rect class="day" x="376" y="56" width="12" height="12" fill="#1a1e2e"/>
    <rect class="day" x="376" y="72" width="12" height="12" fill="#1a1e2e"/>
    <rect class="day" x="376" y="88" width="12" height="12" fill="#1a1e2e"/>
    <rect class="day" x="376" y="104" width="12" height="12" fill="#1a1e2e"/>
    <rect class="day" x="376" y="120" width="12" height="12" fill="#1a1e2e"/>
    <rect class="day" x="376" y="136" width="12" height="12" fill="#1a1e2e"/>
    <text x="392" y="35">Jul</text>
    <rect class="day" x="392" y="40" width="12" height="12" fill="#1a1e2e"/>
    <rect class="day" x="392" y="56" width="12" height="12" fill="#1a1e2e"/>
    <rect class="day" x="392" y="72" width="12" height="12" fill="#1a1e2e"/>
    <rect class="day" x="392" y="88" width="12" height="12" fill="#1a1e2e"/>
    <rect class="day" x="392" y="104" width="12" height="12" fill="#1a1e2e"/>
    <rect class="day" x="392" y="120" width="12" height="12" fill="#1a1e2e"/>
    <rect class="day" x="392" y="136" width="12" height="12" fill="#1a1e2e"/>
    <rect class="day" x="408" y="40" width="12" height="12" fill="#1a1e2e"/>
    <rect class="day" x="408" y="56" width="12" height="12" fill="#1a1e2e"/>
    <rect class="day" x="408" y="72" width="12" height="12" fill="#1a1e2e"/>
    <rect class="day" x="408" y="88" width="12" height="12" fill="#1a1e2e"/>
    <rect class="day" x="408" y="104" width="12" height="12" fill="#1a1e2e"/>
    <rect class="day" x="408" y="120" width="12" height="12" fill="#1a1e2e"/>
    <rect class="day" x="408" y="136" width="12" height="12" fill="#1a1e2e"/>
    <rect class="day" x="424" y="40" width="12" height="12" fill="#1a1e2e"/>
    <rect class="day" x="424" y="56" width="12" height="12" fill="#1a1e2e"/>
    <rect class="day" x="424" y="72" width="12" height="12" fill="#1a1e2e"/>
    <rect class="day" x="424" y="88" width="12" height="12" fill="#1a1e2e"/>
    <rect class="day" x="424" y="104" width="12" height="12" fill="rgb(255,255,255)"/>
    <rect class="day" x="424" y="120" width="12" height="12" fill="rgb(255,255,255)"/>
    <rect class="day" x="424" y="136" width="12" height="12" fill="#1a1e2e"/>
    <rect class="day" x="440" y="40" width="12" height="12" fill="#1a1e2e"/>
    <rect class="day" x="440" y="56" width="12" height="12" fill="#1a1e2e"/>
    <rect class="day" x="440" y="72" width="12" height="12" fill="rgb(255,255,255)"/>
    <rect class="day" x="440" y="88" width="12" height="12" fill="#1a1e2e"/>
    <rect class="day" x="440" y="104" width="12" height="12" fill="rgb(255,255,255)"/>
    <rect class="day" x="440" y="120" width="12" height="12" fill="#1a1e2e"/>
    <rect class="day" x="440" y="136" width="12" height="12" fill="rgb(255,255,255)"/>
    <text x="456" y="35">Aug</text>
    <rect class="day" x="456" y="40" width="12" height="12" fill="#1a1e2e"/>
    <rect class="day" x="456" y="56" width="12" height="12" fill="#1a1e2e"/>
    <rect class="day" x="456" y="72" width="12" height="12" fill="rgb(255,255,255)"/>
    <rect class="day" x="456" y="88" width="12" height="12" fill="#1a1e2e"/>
    <rect class="day" x="456" y="104" width="12" height="12" fill="#1a1e2e"/>
    <rect class="day" x="456" y="120" width="12" height="12" fill="#1a1e2e"/>
    <rect class="day" x="456" y="136" width="12" height="12" fill="#1a1e2e"/>
    <rect class="day" x="472" y="40" width="12" height="12" fill="#1a1e2e"/>
    <rect class="day" x="472" y="56" width="12" height="12" fill="#1a1e2e"/>
    <rect class="day" x="472" y="72" width="12" height="12" fill="#1a1e2e"/>
    <rect class="day" x="472" y="88" width="12" height="12" fill="#1a1e2e"/>
    <rect class="day" x="472" y="104" width="12" height="12" fill="#1a1e2e"/>
    <rect class="day" x="472" y="120" width="12" height="12" fill="#1a1e2e"/>
    <rect class="day" x="472" y="136" width="12" height="12" fill="#1a1e2e"/>
    <rect class="day" x="488" y="40" width="12" height="12" fill="#1a1e2e"/>
    <rect class="day" x="488" y="56" width="12" height="12" fill="#1a1e2e"/>
    <rect class="day" x="488" y="72" width="12" height="12" fill="#1a1e2e"/>
    <rect class="day" x="488" y="88" width="12" height="12" fill="#1a1e2e"/>
    <rect class="day" x="488" y="104" width="12" height="12" fill="#1a1e2e"/>
    <rect class="day" x="488" y="120" width="12" height="12" fill="#1a1e2e"/>
    <rect class="day" x="488" y="136" width="12" height="12" fill="#1a1e2e"/>
    <rect class="day" x="504" y="40" width="12" height="12" fill="#1a1e2e"/>
    <rect class="day" x="504" y="56" width="12" height="12" fill="#1a1e2e"/>
    <rect class="day" x="504" y="72" width="12" height="12" fill="#1a1e2e"/>
    <rect class="day" x="504" y="88" width="12" height="12" fill="#1a1e2e"/>
    <rect class="day" x="504" y="104" width="12" height="12" fill="rgb(255,255,255)"/>
    <rect class="day" x="504" y="120" width="12" height="12" fill="#1a1e2e"/>
    <rect class="day" x="504" y="136" width="12" height="12" fill="#1a1e2e"/>
    <rect class="day" x="520" y="40" width="12" height="12" fill="#1a1e2e"/>
    <rect class="day" x="520" y="56" width="12" height="12" fill="#1a1e2e"/>
    <rect class="day" x="520" y="72" width="12" height="12" fill="#1a1e2e"/>
    <rect class="day" x="520" y="88" width="12" height="12" fill="rgb(255,255,255)"/>
    <rect class="day" x="520" y="104" width="12" height="12" fill="#1a1e2e"/>
    <rect class="day" x="520" y="120" width="12" height="12" fill="#1a1e2e"/>
    <rect class="day" x="520" y="136" width="12" height="12" fill="#1a1e2e"/>
    <text x="536" y="35">Sep</text>
    <rect class="day" x="536" y="40" width="12" height="12" fill="#1a1e2e"/>
    <rect class="day" x="536" y="56" width="12" height="12" fill="rgb(255,255,255)"/>
    <rect class="day" x="536" y="72" width="12" height="12" fill="#1a1e2e"/>
    <rect class="day" x="536" y="88" width="12" height="12" fill="#1a1e2e"/>
    <rect class="day" x="536" y="104" width="12" height="12" fill="#1a1e2e"/>
    <rect class="day" x="536" y="120" width="12" height="12" fill="#1a1e2e"/>
    <rect class="day" x="536" y="136" width="12" height="12" fill="#1a1e2e"/>
    <rect class="day" x="552" y="40" width="12" height="12" fill="#1a1e2e"/>
    <rect class="day" x="552" y="56" width="12" height="12" fill="#1a1e2e"/>
    <rect class="day" x="552" y="72" width="12" height="12" fill="#1a1e2e"/>
    <rect class="day" x="552" y="88" width="12" height="12" fill="#1a1e2e"/>
    <rect class="day" x="552" y="104" width="12" height="12" fill="#1a1e2e"/>
    <rect class="day" x="552" y="120" width="12" height="12" fill="#1a1e2e"/>
    <rect class="day" x="552" y="136" width="12" height="12" fill="#1a1e2e"/>
    <rect class="day" x="568" y="40" width="12" height="12" fill="#1a1e2e"/>
    <rect class="day" x="568" y="56" width="12" height="12" fill="#1a1e2e"/>
    <rect class="day" x="568" y="72" width="12" height="12" fill="#1a1e2e"/>
    <rect class="day" x="568" y="88" width="12" height="12" fill="#1a1e2e"/>
    <rect class="day" x="568" y="104" width="12" height="12" fill="#1a1e2e"/>
    <rect class="day" x="568" y="120" width="12" height="12" fill="#1a1e2e"/>
    <rect class="day" x="568" y="136" width="12" height="12" fill="#1a1e2e"/>
    <rect class="day" x="584" y="40" width="12" height="12" fill="#1a1e2e"/>
    <rect class="day" x="584" y="56" width="12" height="12" fill="#1a1e2e"/>
    <rect class="day" x="584" y="72" width="12" height="12" fill="rgb(255,255,255)"/>
    <rect class="day" x="584" y="88" width="12" height="12" fill="#1a1e2e"/>
    <rect class="day" x="584" y="104" width="12" height="12" fill="#1a1e2e"/>
    <rect class="day" x="584" y="120" width="12" height="12" fill="#1a1e2e"/>
    <rect class="day" x="584" y="136" width="12" height="12" fill="#1a1e2e"/>
    <text x="600" y="35">Oct</text>
    <rect class="day" x="600" y="40" width="12" height="12" fill="#1a1e2e"/>
    <rect class="day" x="600" y="56" width="12" height="12" fill="#1a1e2e"/>
    <rect class="day" x="600" y="72" width="12" height="12" fill="#1a1e2e"/>
    <rect class="day" x="600" y="88" width="12" height="12" fill="#1a1e2e"/>
    <rect class="day" x="600" y="104" width="12" height="12" fill="#1a1e2e"/>
    <rect class="day" x="600" y="120" width="12" height="12" fill="#1a1e2e"/>
    <rect class="day" x="600" y="136" width="12" height="12" fill="#1a1e2e"/>
    <rect class="day" x="616" y="40" width="12" height="12" fill="#1a1e2e"/>
    <rect class="day" x="616" y="56" width="12" height="12" fill="#1a1e2e"/>
    <rect class="day" x="616" y="72" width="12" height="12" fill="#1a1e2e"/>
    <rect class="day" x="616" y="88" width="12" height="12" fill="#1a1e2e"/>
    <rect class="day" x="616" y="104" width="12" height="12" fill="#1a1e2e"/>
    <rect class="day" x="616" y="120" width="12" height="12" fill="#1a1e2e"/>
    <rect class="day" x="616" y="136" width="12" height="12" fill="#1a1e2e"/>
    <rect class="day" x="632" y="40" width="12" height="12" fill="#1a1e2e"/>
    <rect class="day" x="632" y="56" width="12" height="12" fill="#1a1e2e"/>
    <rect class="day" x="632" y="72" width="12" height="12" fill="rgb(255,255,255)"/>
    <rect class="day" x="632" y="88" width="12" height="12" fill="#1a1e2e"/>
    <rect class="day" x="632" y="104" width="12" height="12" fill="#1a1e2e"/>
    <rect class="day" x="632" y="120" width="12" height="12" fill="#1a1e2e"/>
    <rect class="day" x="632" y="136" width="12" height="12" fill="#1a1e2e"/>
    <rect class="day" x="648" y="40" width="12" height="12" fill="#1a1e2e"/>
    <rect class="day" x="648" y="56" width="12" height="12" fill="rgb(255,255,255)"/>
    <rect class="day" x="648" y="72" width="12" height="12" fill="rgb(255,255,255)"/>
    <rect class="day" x="648" y="88" width="12" height="12" fill="rgb(255,255,255)"/>
    <rect class="day" x="648" y="104" width="12" height="12" fill="rgb(255,255,255)"/>
    <rect class="day" x="648" y="120" width="12" height="12" fill="#1a1e2e"/>
    <rect class="day" x="648" y="136" width="12" height="12" fill="#1a1e2e"/>
    <text x="664" y="35">Nov</text>
    <rect class="day" x="664" y="40" width="12" height="12" fill="rgb(255,255,255)"/>
    <rect class="day" x="664" y="56" width="12" height="12" fill="rgb(255,255,255)"/>
    <rect class="day" x="664" y="72" width="12" height="12" fill="rgb(255,255,255)"/>
    <rect class="day" x="664" y="88" width="12" height="12" fill="#1a1e2e"/>
    <rect class="day" x="664" y="104" width="12" height="12" fill="#1a1e2e"/>
    <rect class="day" x="664" y="120" width="12" height="12" fill="#1a1e2e"/>
    <rect class="day" x="664" y="136" width="12" height="12" fill="#1a1e2e"/>
    <rect class="day" x="680" y="40" width="12" height="12" fill="rgb(255,255,255)"/>
    <rect class="day" x="680" y="56" width="12" height="12" fill="rgb(255,255,255)"/>
    <rect class="day" x="680" y="72" width="12" height="12" fill="#FFD700"/>
    <rect class="day" x="680" y="88" width="12" height="12" fill="rgb(255,255,255)"/>
    <rect class="day" x="680" y="104" width="12" height="12" fill="rgb(255,255,255)"/>
    <rect class="day" x="680" y="120" width="12" height="12" fill="rgb(255,255,255)"/>
    <rect class="day" x="680" y="136" width="12" height="12" fill="#1a1e2e"/>
    <rect class="day" x="696" y="40" width="12" height="12" fill="rgb(255,255,255)"/>
    <rect class="day" x="696" y="56" width="12" height="12" fill="rgb(255,255,255)"/>
    <rect class="day" x="696" y="72" width="12" height="12" fill="rgb(255,255,255)"/>
    <rect class="day" x="696" y="88" width="12" height="12" fill="rgb(255,255,255)"/>
    <rect class="day" x="696" y="104" width="12" height="12" fill="rgb(255,130,60)"/>
    <rect class="day" x="696" y="120" width="12" height="12" fill="rgb(255,255,255)"/>
    <rect class="day" x="696" y="136" width="12" height="12" fill="rgb(255,255,255)"/>
    <rect class="day" x="712" y="40" width="12" height="12" fill="#1a1e2e"/>
    <rect class="day" x="712" y="56" width="12" height="12" fill="#1a1e2e"/>
    <rect class="day" x="712" y="72" width="12" height="12" fill="#1a1e2e"/>
    <rect class="day" x="712" y="88" width="12" height="12" fill="rgb(255,255,255)"/>
    <rect class="day" x="712" y="104" width="12" height="12" fill="rgb(255,255,255)"/>
    <rect class="day" x="712" y="120" width="12" height="12" fill="#ffff3e"/>
    <rect class="day" x="712" y="136" width="12" height="12" fill="#ffff3e"/>
    <rect class="day" x="728" y="40" width="12" height="12" fill="#1a1e2e"/>
    <rect class="day" x="728" y="56" width="12" height="12" fill="#1a1e2e"/>
    <rect class="day" x="728" y="72" width="12" height="12" fill="#1a1e2e"/>
    <rect class="day" x="728" y="88" width="12" height="12" fill="#ffff3e"/>
    <rect class="day" x="728" y="104" width="12" height="12" fill="rgb(255,255,255)"/>
    <rect class="day" x="728" y="120" width="12" height="12" fill="rgb(255,255,255)"/>
    <rect class="day" x="728" y="136" width="12" height="12" fill="#1a1e2e"/>
    <text x="744" y="35">Dec</text>
    <rect class="day" x="744" y="40" width="12" height="12" fill="#1a1e2e"/>
    <rect class="day" x="744" y="56" width="12" height="12" fill="#ffff3e"/>
    <rect class="day" x="744" y="72" width="12" height="12" fill="rgb(255,100,40)"/>
    <rect class="day" x="744" y="88" width="12" height="12" fill="#ffff3e"/>
    <rect class="day" x="744" y="104" width="12" height="12" fill="rgb(255,255,255)"/>
    <rect class="day" x="744" y="120" width="12" height="12" fill="rgb(255,255,255)"/>
    <rect class="day" x="744" y="136" width="12" height="12" fill="rgb(255,100,40)"/>
    <rect class="day" x="760" y="40" width="12" height="12" fill="#ffff3e"/>
    <rect class="day" x="760" y="56" width="12" height="12" fill="#ffff3e"/>
    <rect class="day" x="760" y="72" width="12" height="12" fill="#FFD700"/>
    <rect class="day fire" x="760" y="88" width="12" height="12" fill="url(#fireGradient)"/>
    <rect class="day" x="760" y="104" width="12" height="12" fill="#FFD700"/>
    <rect class="day" x="760" y="120" width="12" height="12" fill="rgb(255,60,30)"/>
    <rect class="day" x="760" y="136" width="12" height="12" fill="#1a1e2e"/>
    <rect class="day" x="776" y="40" width="12" height="12" fill="#1a1e2e"/>
    <rect class="day" x="776" y="56" width="12" height="12" fill="#1a1e2e"/>
    <rect class="day" x="776" y="72" width="12" height="12" fill="#ffff3e"/>
    <rect class="day" x="776" y="88" width="12" height="12" fill="#1a1e2e"/>
    <rect class="day" x="776" y="104" width="12" height="12" fill="#1a1e2e"/>
    <rect class="day" x="776" y="120" width="12" height="12" fill="rgb(255,130,60)"/>
    <rect class="day" x="776" y="136" width="12" height="12" fill="rgb(255,255,255)"/>
    <rect class="day" x="792" y="40" width="12" height="12" fill="#1a1e2e"/>
    <rect class="day" x="792" y="56" width="12" height="12" fill="#1a1e2e"/>
    <rect class="day" x="792" y="72" width="12" height="12" fill="#1a1e2e"/>
    <rect class="day" x="792" y="88" width="12" height="12" fill="#1a1e2e"/>
    <rect class="day" x="792" y="104" width="12" height="12" fill="#1a1e2e"/>
    <rect class="day" x="792" y="120" width="12" height="12" fill="#1a1e2e"/>
    <rect class="day" x="792" y="136" width="12" height="12" fill="#1a1e2e"/>
    <text x="808" y="35">Jan</text>
    <rect class="day" x="808" y="40" width="12" height="12" fill="#1a1e2e"/>
    <rect class="day" x="808" y="56" width="12" height="12" fill="rgb(255,255,255)"/>
    <rect class="day" x="808" y="72" width="12" height="12" fill="#1a1e2e"/>
    <rect class="day" x="808" y="88" width="12" height="12" fill="rgb(255,255,255)"/>
    <rect class="day" x="808" y="104" width="12" height="12" fill="#1a1e2e"/>
    <rect class="day" x="808" y="120" width="12" height="12" fill="rgb(255,255,255)"/>
    <rect class="day" x="808" y="136" width="12" height="12" fill="#1a1e2e"/>
    <rect class="day" x="824" y="40" width="12" height="12" fill="rgb(255,255,255)"/>
    <rect class="day" x="824" y="56" width="12" height="12" fill="#ffff3e"/>
    <rect class="day" x="824" y="72" width="12" height="12" fill="rgb(255,255,255)"/>
    <rect class="day" x="824" y="88" width="12" height="12" fill="#1a1e2e"/>
    <rect class="day" x="824" y="104" width="12" height="12" fill="#ffff3e"/>
    <rect class="day" x="824" y="120" width="12" height="12" fill="rgb(255,255,255)"/>
    <rect class="day" x="824" y="136" width="12" height="12" fill="#1a1e2e"/>
    <rect class="day" x="840" y="40" width="12" height="12" fill="#1a1e2e"/>
    <rect class="day" x="840" y="56" width="12" height="12" fill="rgb(255,255,255)"/>
    <rect class="day" x="840" y="72" width="12" height="12" fill="#1a1e2e"/>
    <rect class="day" x="840" y="88" width="12" height="12" fill="rgb(255,255,255)"/>
    <rect class="day" x="840" y="104" width="12" height="12" fill="#ffff3e"/>
    <rect class="day" x="840" y="120" width="12" height="12" fill="#ffff3e"/>
    <rect class="day" x="840" y="136" width="12" height="12" fill="#1a1e2e"/>
    <rect class="day" x="856" y="40" width="12" height="12" fill="rgb(255,255,255)"/>
    <rect class="day" x="856" y="56" width="12" height="12" fill="rgb(255,255,255)"/>
    <rect class="day" x="856" y="72" width="12" height="12" fill="rgb(255,255,255)"/>
    <rect class="day" x="856" y="88" width="12" height="12" fill="rgb(255,160,90)"/>

    <defs>
        <linearGradient id="fireGradient" x1="0%" y1="0%" x2="100%" y2="100%">
            <stop offset="0%" style="stop-color:rgb(255,0,0);stop-opacity:1">
                <animate attributeName="stop-color" values="rgb(255,0,0);rgb(255,50,0);rgb(255,0,0)" dur="1.5s" repeatCount="indefinite"/>
            </stop>
            <stop offset="50%" style="stop-color:rgb(255,30,15);stop-opacity:1"/>
            <stop offset="100%" style="stop-color:rgb(255,60,30);stop-opacity:1">
                <animate attributeName="stop-color" values="rgb(255,60,30);rgb(255,100,50);rgb(255,60,30)" dur="1.5s" repeatCount="indefinite"/>
            </stop>
        </linearGradient>
    </defs>
    
    <!-- Legenda -->
    <g transform="translate(10, 147)">
        <text y="12">Less</text>
        <rect x="50" width="12" height="12" fill="#1a1e2e" rx="2"/>
        <rect x="64" width="12" height="12" fill="rgb(255,255,255)" rx="2"/>
        <rect x="78" width="12" height="12" fill="#ffff3e" rx="2"/>
        <rect x="92" width="12" height="12" fill="#FFD700" rx="2"/>
        <rect x="106" width="12" height="12" fill="rgb(255,160,90)" rx="2"/>
        <rect x="120" width="12" height="12" fill="rgb(255,130,60)" rx="2"/>
        <rect x="134" width="12" height="12" fill="rgb(255,100,40)" rx="2"/>
        <rect x="148" width="12" height="12" fill="rgb(255,60,30)" rx="2"/>
        <rect x="162" width="12" height="12" fill="rgb(255,0,0)" rx="2"/>
        <text x="186" y="12">More 🔥</text>
    </g>
</svg>