<svg width="100%" viewBox="0 0 730 302" xmlns="http://www.w3.org/2000/svg">
    <style>
        .day { rx: 2; ry: 2; transition: all 0.2s; }
        .day:hover { stroke: #ff6b00; stroke-width: 2; }
        text { font-family: -apple-system, BlinkMacSystemFont, "Segoe UI", Helvetica, Arial, sans-serif, "Apple Color Emoji", "Segoe UI Emoji"; font-size: 10px; fill: #24292f; }
        
        /* Fogo Vermelho (Nível 8) - Intensidade Reduzida */
        .fire-red { 
            rx: 2;
            // animation: pulseFireRed 2s ease-in-out infinite;
            // filter: drop-shadow(0 0 6px rgba(255, 100, 0, 0.6));
        }
        
        @keyframes pulseFireRed {
            0% { 
                filter: 
                    drop-shadow(0 -3px 6px rgba(255, 0, 0, 0.8))
                    drop-shadow(0 -6px 12px rgba(255, 100, 0, 0.6))
                    drop-shadow(0 -10px 18px rgba(255, 150, 0, 0.4));
            }
            50% { 
                filter: 
                    drop-shadow(0 -5px 10px rgba(255, 0, 0, 0.9))
                    drop-shadow(0 -10px 20px rgba(255, 100, 0, 0.7))
                    drop-shadow(0 -15px 28px rgba(255, 200, 0, 0.5));
            }
            100% { 
                filter: 
                    drop-shadow(0 -3px 6px rgba(255, 0, 0, 0.8))
                    drop-shadow(0 -6px 12px rgba(255, 100, 0, 0.6))
                    drop-shadow(0 -10px 18px rgba(255, 150, 0, 0.4));
            }
        }
        
        /* Fogo Branco (Nível 9) - Super Intenso com Alto Contraste */
        .fire-white { 
            rx: 2;
            animation: pulseFireWhite 1.5s ease-in-out infinite;
            filter: drop-shadow(0 0 15px rgba(255, 255, 255, 1));
        }
        
        @keyframes pulseFireOrange {
            0% {
                filter: 
                drop-shadow(0 -6px 12px rgba(200, 50, 0, 1))
                drop-shadow(0 -12px 24px rgba(255, 255, 255, 1))
                drop-shadow(0 -20px 40px rgba(255, 160, 50, 0.9));
            }
            50% {
                filter: 
                drop-shadow(0 -10px 20px rgba(180, 30, 0, 1))
                drop-shadow(0 -20px 40px rgba(255, 255, 255, 1))
                drop-shadow(0 -30px 60px rgba(255, 200, 80, 1));
            }
            100% {
                filter: 
                drop-shadow(0 -6px 12px rgba(200, 50, 0, 1))
                drop-shadow(0 -12px 24px rgba(255, 255, 255, 1))
                drop-shadow(0 -20px 40px rgba(255, 160, 50, 0.9));
            }
        }
        
        /* Fagulhas Vermelhas (Fogo Vermelho) */
        .spark-red {
            fill: #ffaa00;
            opacity: 0;
            animation: sparkFlyRed 1.5s ease-out infinite;
        }
        
        @keyframes sparkFlyRed {
            0% {
                opacity: 1;
                transform: translateY(0) scale(1);
            }
            50% {
                opacity: 0.7;
            }
            100% {
                opacity: 0;
                transform: translateY(var(--ty)) scale(0.2);
            }
        }
        
        /* Fagulhas Azuis (Fogo Branco) - Pequenas e Dispersas */
        .spark-white {
            opacity: 0;
            animation: sparkFlyWhite 1.5s ease-out infinite;
        }
        
        @keyframes sparkFlyWhite {
            0% {
                opacity: 0.9;
                transform: translate(0, 0) scale(1);
                fill: #ffffff;
            }
            30% {
                opacity: 0.8;
                fill: #ffff00;
            }
            70% {
                opacity: 0.4;
                fill: #ffaa00;
            }
            100% {
                opacity: 0;
                transform: translate(var(--tx), var(--ty)) scale(0.3);
                fill: #ff6600;
            }
        }
        
        /* Raio Elétrico (Neon) */
        .lightning {
            stroke: #FFFFFF;
            stroke-width: 1.5;
            fill: none;
            opacity: 0;
            filter: drop-shadow(0 0 4px #00FFFF) drop-shadow(0 0 8px #FFFFFF);
            animation: lightningStrike 2s ease-in-out infinite;
        }
        
        @keyframes lightningStrike {
            0% {
                opacity: 0;
                stroke-width: 0.5;
            }
            10% {
                opacity: 1;
                stroke-width: 2;
                filter: drop-shadow(0 0 8px #00FFFF) drop-shadow(0 0 16px #FFFFFF);
            }
            15% {
                opacity: 0.3;
            }
            20% {
                opacity: 1;
                stroke-width: 2.5;
                filter: drop-shadow(0 0 12px #00FFFF) drop-shadow(0 0 20px #FFFFFF);
            }
            25% {
                opacity: 0;
            }
            100% {
                opacity: 0;
            }
        }
    </style>
    <rect width="730" height="302" fill="#ffffff" rx="6"/>
    
    <!-- Título -->
    <text x="15" y="25" fill="#24292f" font-size="12" font-weight="400">
        <tspan fill="#ff6b00" font-weight="600">968</tspan> contribuições nos últimos 6 meses
    </text>
    
    <!-- Labels dos dias -->
    <text x="25" y="82" text-anchor="end">Seg</text>
    <text x="25" y="134" text-anchor="end">Qua</text>
    <text x="25" y="186" text-anchor="end">Sex</text>
    <text x="40" y="35">Abr</text>
    <text x="118" y="35">Mai</text>
    <text x="248" y="35">Jun</text>
    <text x="352" y="35">Jul</text>
    <text x="456" y="35">Ago</text>
    <text x="586" y="35">Set</text>
    <rect class="day" x="40" y="40" width="22" height="22" fill="#ebedf0"/>
    <rect class="day" x="40" y="66" width="22" height="22" fill="#ebedf0"/>
    <rect class="day" x="40" y="92" width="22" height="22" fill="#ebedf0"/>
    <rect class="day" x="40" y="118" width="22" height="22" fill="#ebedf0"/>
    <rect class="day" x="40" y="144" width="22" height="22" fill="#ebedf0"/>
    <rect class="day" x="40" y="170" width="22" height="22" fill="#ebedf0"/>
    <rect class="day" x="40" y="196" width="22" height="22" fill="#ebedf0"/>
    <rect class="day" x="66" y="40" width="22" height="22" fill="hsl(60, 100%, 92%)"/>
    <rect class="day" x="66" y="66" width="22" height="22" fill="#ebedf0"/>
    <rect class="day" x="66" y="92" width="22" height="22" fill="#ebedf0"/>
    <rect class="day" x="66" y="118" width="22" height="22" fill="#ebedf0"/>
    <rect class="day" x="66" y="144" width="22" height="22" fill="#ebedf0"/>
    <rect class="day" x="66" y="170" width="22" height="22" fill="#ebedf0"/>
    <rect class="day" x="66" y="196" width="22" height="22" fill="#ebedf0"/>
    <rect class="day" x="92" y="40" width="22" height="22" fill="#ebedf0"/>
    <rect class="day" x="92" y="66" width="22" height="22" fill="#ebedf0"/>
    <rect class="day" x="92" y="92" width="22" height="22" fill="#ebedf0"/>
    <rect class="day" x="92" y="118" width="22" height="22" fill="#ebedf0"/>
    <rect class="day" x="92" y="144" width="22" height="22" fill="#ebedf0"/>
    <rect class="day" x="92" y="170" width="22" height="22" fill="#ebedf0"/>
    <rect class="day" x="92" y="196" width="22" height="22" fill="#ebedf0"/>
    <rect class="day" x="118" y="40" width="22" height="22" fill="#ebedf0"/>
    <rect class="day" x="118" y="66" width="22" height="22" fill="#ebedf0"/>
    <rect class="day" x="118" y="92" width="22" height="22" fill="#ebedf0"/>
    <rect class="day" x="118" y="118" width="22" height="22" fill="#ebedf0"/>
    <rect class="day" x="118" y="144" width="22" height="22" fill="#ebedf0"/>
    <rect class="day" x="118" y="170" width="22" height="22" fill="#ebedf0"/>
    <rect class="day" x="118" y="196" width="22" height="22" fill="#ebedf0"/>
    <rect class="day" x="144" y="40" width="22" height="22" fill="#ebedf0"/>
    <rect class="day" x="144" y="66" width="22" height="22" fill="#ebedf0"/>
    <rect class="day" x="144" y="92" width="22" height="22" fill="#ebedf0"/>
    <rect class="day" x="144" y="118" width="22" height="22" fill="#ebedf0"/>
    <rect class="day" x="144" y="144" width="22" height="22" fill="#ebedf0"/>
    <rect class="day" x="144" y="170" width="22" height="22" fill="#ebedf0"/>
    <rect class="day" x="144" y="196" width="22" height="22" fill="hsl(60, 100%, 92%)"/>
    <rect class="day" x="170" y="40" width="22" height="22" fill="#ebedf0"/>
    <rect class="day" x="170" y="66" width="22" height="22" fill="#ebedf0"/>
    <rect class="day" x="170" y="92" width="22" height="22" fill="#ebedf0"/>
    <rect class="day" x="170" y="118" width="22" height="22" fill="#ebedf0"/>
    <rect class="day" x="170" y="144" width="22" height="22" fill="#ebedf0"/>
    <rect class="day" x="170" y="170" width="22" height="22" fill="hsl(60, 100%, 92%)"/>
    <rect class="day" x="170" y="196" width="22" height="22" fill="#ebedf0"/>
    <rect class="day" x="196" y="40" width="22" height="22" fill="#ebedf0"/>
    <rect class="day" x="196" y="66" width="22" height="22" fill="#ebedf0"/>
    <rect class="day" x="196" y="92" width="22" height="22" fill="#ebedf0"/>
    <rect class="day" x="196" y="118" width="22" height="22" fill="#ebedf0"/>
    <rect class="day" x="196" y="144" width="22" height="22" fill="#ebedf0"/>
    <rect class="day" x="196" y="170" width="22" height="22" fill="hsl(60, 100%, 92%)"/>
    <rect class="day" x="196" y="196" width="22" height="22" fill="#ebedf0"/>
    <rect class="day" x="222" y="40" width="22" height="22" fill="#ebedf0"/>
    <rect class="day" x="222" y="66" width="22" height="22" fill="hsl(60, 100%, 92%)"/>
    <rect class="day" x="222" y="92" width="22" height="22" fill="#ebedf0"/>
    <rect class="day" x="222" y="118" width="22" height="22" fill="#ebedf0"/>
    <rect class="day" x="222" y="144" width="22" height="22" fill="#ebedf0"/>
    <rect class="day" x="222" y="170" width="22" height="22" fill="#ebedf0"/>
    <rect class="day" x="222" y="196" width="22" height="22" fill="#ebedf0"/>
    <rect class="day" x="248" y="40" width="22" height="22" fill="#ebedf0"/>
    <rect class="day" x="248" y="66" width="22" height="22" fill="#ebedf0"/>
    <rect class="day" x="248" y="92" width="22" height="22" fill="#ebedf0"/>
    <rect class="day" x="248" y="118" width="22" height="22" fill="#ebedf0"/>
    <rect class="day" x="248" y="144" width="22" height="22" fill="#ebedf0"/>
    <rect class="day" x="248" y="170" width="22" height="22" fill="#ebedf0"/>
    <rect class="day" x="248" y="196" width="22" height="22" fill="#ebedf0"/>
    <rect class="day" x="274" y="40" width="22" height="22" fill="#ebedf0"/>
    <rect class="day" x="274" y="66" width="22" height="22" fill="hsl(60, 100%, 92%)"/>
    <rect class="day" x="274" y="92" width="22" height="22" fill="#ebedf0"/>
    <rect class="day" x="274" y="118" width="22" height="22" fill="hsl(60, 100%, 92%)"/>
    <rect class="day" x="274" y="144" width="22" height="22" fill="#ebedf0"/>
    <rect class="day" x="274" y="170" width="22" height="22" fill="#ebedf0"/>
    <rect class="day" x="274" y="196" width="22" height="22" fill="hsl(60, 100%, 92%)"/>
    <rect class="day" x="300" y="40" width="22" height="22" fill="hsl(60, 100%, 92%)"/>
    <rect class="day" x="300" y="66" width="22" height="22" fill="rgb(255,60,30)"/>
    <rect class="day" x="300" y="92" width="22" height="22" fill="#ffff3e"/>
    <rect class="day" x="300" y="118" width="22" height="22" fill="#ebedf0"/>
    <rect class="day" x="300" y="144" width="22" height="22" fill="#ebedf0"/>
    <rect class="day" x="300" y="170" width="22" height="22" fill="#ebedf0"/>
    <rect class="day" x="300" y="196" width="22" height="22" fill="#ebedf0"/>
    <rect class="day" x="326" y="40" width="22" height="22" fill="#ebedf0"/>
    <rect class="day" x="326" y="66" width="22" height="22" fill="#ebedf0"/>
    <rect class="day" x="326" y="92" width="22" height="22" fill="#ffff3e"/>
    <rect class="day" x="326" y="118" width="22" height="22" fill="#ffff3e"/>
    <rect class="day" x="326" y="144" width="22" height="22" fill="#ebedf0"/>
    <rect class="day" x="326" y="170" width="22" height="22" fill="#ebedf0"/>
    <rect class="day" x="326" y="196" width="22" height="22" fill="#ebedf0"/>
    <rect class="day" x="352" y="40" width="22" height="22" fill="hsl(60, 100%, 92%)"/>
    <rect class="day" x="352" y="66" width="22" height="22" fill="rgb(255,100,40)"/>
    <rect class="day" x="352" y="170" width="22" height="22" fill="hsl(60, 100%, 92%)"/>
    <rect class="day" x="352" y="196" width="22" height="22" fill="#ebedf0"/>
    <rect class="day" x="378" y="40" width="22" height="22" fill="#ffff3e"/>
    <rect class="day" x="378" y="66" width="22" height="22" fill="#ebedf0"/>
    <rect class="day" x="378" y="92" width="22" height="22" fill="hsl(60, 100%, 92%)"/>
    <rect class="day" x="378" y="118" width="22" height="22" fill="hsl(60, 100%, 92%)"/>
    <rect class="day" x="378" y="144" width="22" height="22" fill="#ebedf0"/>
    <rect class="day" x="378" y="170" width="22" height="22" fill="#ebedf0"/>
    <rect class="day" x="378" y="196" width="22" height="22" fill="#ebedf0"/>
    <rect class="day" x="404" y="40" width="22" height="22" fill="#ebedf0"/>
    <rect class="day" x="404" y="66" width="22" height="22" fill="#FFD700"/>
    <rect class="day" x="404" y="92" width="22" height="22" fill="#ffff3e"/>
    <rect class="day" x="404" y="118" width="22" height="22" fill="#ffff3e"/>
    <rect class="day" x="404" y="144" width="22" height="22" fill="#FFD700"/>
    <rect class="day" x="404" y="170" width="22" height="22" fill="#ebedf0"/>
    <rect class="day" x="404" y="196" width="22" height="22" fill="#ebedf0"/>
    <rect class="day" x="430" y="40" width="22" height="22" fill="#ebedf0"/>
    <rect class="day" x="430" y="92" width="22" height="22" fill="rgb(255,160,90)"/>
    <rect class="day" x="430" y="118" width="22" height="22" fill="#FFD700"/>
    <rect class="day" x="430" y="144" width="22" height="22" fill="#ebedf0"/>
    <rect class="day" x="430" y="170" width="22" height="22" fill="hsl(60, 100%, 92%)"/>
    <rect class="day" x="430" y="196" width="22" height="22" fill="#ebedf0"/>
    <rect class="day" x="456" y="40" width="22" height="22" fill="#ebedf0"/>
    <rect class="day" x="456" y="66" width="22" height="22" fill="hsl(60, 100%, 92%)"/>
    <rect class="day" x="456" y="92" width="22" height="22" fill="rgb(255,130,60)"/>
    <rect class="day" x="456" y="118" width="22" height="22" fill="hsl(60, 100%, 92%)"/>
    <rect class="day" x="456" y="170" width="22" height="22" fill="#ebedf0"/>
    <rect class="day" x="456" y="196" width="22" height="22" fill="#ebedf0"/>
    <rect class="day" x="482" y="40" width="22" height="22" fill="#ebedf0"/>
    <rect class="day" x="482" y="66" width="22" height="22" fill="hsl(60, 100%, 92%)"/>
    <rect class="day" x="482" y="170" width="22" height="22" fill="#ebedf0"/>
    <rect class="day" x="482" y="196" width="22" height="22" fill="#ebedf0"/>
    <rect class="day" x="508" y="66" width="22" height="22" fill="hsl(60, 100%, 92%)"/>
    <rect class="day" x="508" y="144" width="22" height="22" fill="rgb(255,100,40)"/>
    <rect class="day" x="508" y="196" width="22" height="22" fill="#ffff3e"/>
    <rect class="day" x="534" y="118" width="22" height="22" fill="rgb(255,160,90)"/>
    <rect class="day" x="560" y="40" width="22" height="22" fill="rgb(255,160,90)"/>
    <rect class="day" x="560" y="196" width="22" height="22" fill="rgb(255,160,90)"/>
    <rect class="day" x="586" y="40" width="22" height="22" fill="#ebedf0"/>
    <rect class="day" x="586" y="144" width="22" height="22" fill="#ffff3e"/>
    <rect class="day" x="586" y="170" width="22" height="22" fill="#ebedf0"/>
    <rect class="day" x="586" y="196" width="22" height="22" fill="rgb(255,160,90)"/>
    <rect class="day" x="612" y="40" width="22" height="22" fill="#ffff3e"/>
    <rect class="day" x="612" y="92" width="22" height="22" fill="rgb(255,130,60)"/>
    <rect class="day" x="612" y="118" width="22" height="22" fill="hsl(60, 100%, 92%)"/>
    <rect class="day" x="612" y="144" width="22" height="22" fill="hsl(60, 100%, 92%)"/>
    <rect class="day" x="612" y="170" width="22" height="22" fill="hsl(60, 100%, 92%)"/>
    <rect class="day" x="612" y="196" width="22" height="22" fill="#ffff3e"/>
    <rect class="day" x="638" y="40" width="22" height="22" fill="rgb(255,160,90)"/>
    <rect class="day" x="638" y="92" width="22" height="22" fill="rgb(255,100,40)"/>
    <rect class="day" x="638" y="118" width="22" height="22" fill="#ffff3e"/>
    <rect class="day" x="638" y="170" width="22" height="22" fill="hsl(60, 100%, 92%)"/>
    <rect class="day" x="638" y="196" width="22" height="22" fill="hsl(60, 100%, 92%)"/>
    <rect class="day" x="664" y="40" width="22" height="22" fill="#ffff3e"/>
    <rect class="day" x="664" y="66" width="22" height="22" fill="#ebedf0"/>
    <rect class="day" x="664" y="92" width="22" height="22" fill="#ffff3e"/>
    <rect class="day" x="664" y="118" width="22" height="22" fill="hsl(60, 100%, 92%)"/>
    <rect class="day" x="664" y="144" width="22" height="22" fill="rgb(255,160,90)"/>
    <rect class="day" x="664" y="170" width="22" height="22" fill="hsl(60, 100%, 92%)"/>
    <rect class="day" x="664" y="196" width="22" height="22" fill="#ebedf0"/>
    <rect class="day fire-red" x="352" y="92" width="22" height="22" fill="url(#fireGradientRed)"/>
    <rect class="day fire-white" x="352" y="118" width="22" height="22" fill="url(#fireGradientWhite)"/>
    <path class="lightning" d="M 363.0,113 L 360.0549688672211,122.4 L 362.40395858817817,126.8 L 359.13464251127937,131.2 L 363.9770380681275,135.6 L 363.0,145" style="animation-delay: 0.7111604772120868s;"/>
    <rect class="day fire-white" x="352" y="144" width="22" height="22" fill="url(#fireGradientWhite)"/>
    <path class="lightning" d="M 363.0,139 L 361.5201345413692,148.4 L 360.3069835946778,152.8 L 365.7327631958013,157.2 L 365.5502891331309,161.6 L 363.0,171" style="animation-delay: 0.7464005885245173s;"/>
    <rect class="day fire-red" x="430" y="66" width="22" height="22" fill="url(#fireGradientRed)"/>
    <rect class="day fire-white" x="456" y="144" width="22" height="22" fill="url(#fireGradientWhite)"/>
    <path class="lightning" d="M 467.0,139 L 466.35172475963486,148.4 L 465.30771643591606,152.8 L 468.91394564910706,157.2 L 463.7180236932983,161.6 L 467.0,171" style="animation-delay: 1.1549344099617205s;"/>
    <rect class="day fire-red" x="482" y="92" width="22" height="22" fill="url(#fireGradientRed)"/>
    <rect class="day fire-white" x="482" y="118" width="22" height="22" fill="url(#fireGradientWhite)"/>
    <path class="lightning" d="M 493.0,113 L 491.9994539501471,122.4 L 496.57309793271276,126.8 L 491.04361598527765,131.2 L 494.2655299527451,135.6 L 493.0,145" style="animation-delay: 0.6596654599767733s;"/>
    <rect class="day fire-red" x="482" y="144" width="22" height="22" fill="url(#fireGradientRed)"/>
    <rect class="day fire-white" x="508" y="40" width="22" height="22" fill="url(#fireGradientWhite)"/>
    <path class="lightning" d="M 519.0,35 L 520.5597921053183,44.4 L 524.2304557502216,48.8 L 518.5193797662502,53.2 L 515.1625314546882,57.6 L 519.0,67" style="animation-delay: 1.027488345047922s;"/>
    <rect class="day fire-white" x="508" y="92" width="22" height="22" fill="url(#fireGradientWhite)"/>
    <path class="lightning" d="M 519.0,87 L 518.7987008441524,96.4 L 516.3840296117247,100.8 L 515.7832619959888,105.2 L 515.3031654486831,109.6 L 519.0,119" style="animation-delay: 1.1565290223065139s;"/>
    <rect class="day fire-white" x="508" y="118" width="22" height="22" fill="url(#fireGradientWhite)"/>
    <path class="lightning" d="M 519.0,113 L 517.2115151156252,122.4 L 524.6514763589644,126.8 L 520.2871404137464,131.2 L 520.6255031175154,135.6 L 519.0,145" style="animation-delay: 1.5834242847038853s;"/>
    <rect class="day fire-white" x="508" y="170" width="22" height="22" fill="url(#fireGradientWhite)"/>
    <path class="lightning" d="M 519.0,165 L 522.226350419266,174.4 L 515.6770771245889,178.8 L 515.2077892140238,183.2 L 520.3012089420052,187.6 L 519.0,197" style="animation-delay: 1.4798825401304552s;"/>
    <rect class="day fire-white" x="534" y="40" width="22" height="22" fill="url(#fireGradientWhite)"/>
    <path class="lightning" d="M 545.0,35 L 543.1384758480966,44.4 L 548.7628547434921,48.8 L 544.6102526164956,53.2 L 549.5437992916208,57.6 L 545.0,67" style="animation-delay: 0.45892804809033705s;"/>
    <rect class="day fire-white" x="534" y="66" width="22" height="22" fill="url(#fireGradientWhite)"/>
    <path class="lightning" d="M 545.0,61 L 548.2390855801767,70.4 L 545.5238170078425,74.8 L 546.7601166493911,79.2 L 547.2926438323149,83.6 L 545.0,93" style="animation-delay: 1.0703153914973724s;"/>
    <rect class="day fire-white" x="534" y="92" width="22" height="22" fill="url(#fireGradientWhite)"/>
    <path class="lightning" d="M 545.0,87 L 548.5589007074776,96.4 L 541.8178064522871,100.8 L 545.1752637121011,105.2 L 548.7341081391758,109.6 L 545.0,119" style="animation-delay: 1.195961502005665s;"/>
    <rect class="day fire-white" x="534" y="144" width="22" height="22" fill="url(#fireGradientWhite)"/>
    <path class="lightning" d="M 545.0,139 L 545.3219791255401,148.4 L 543.1873904391343,152.8 L 548.459579049302,157.2 L 549.598150550058,161.6 L 545.0,171" style="animation-delay: 0.7694368427042895s;"/>
    <rect class="day fire-white" x="534" y="170" width="22" height="22" fill="url(#fireGradientWhite)"/>
    <path class="lightning" d="M 545.0,165 L 546.6837118269211,174.4 L 539.1564653697811,178.8 L 544.5366953946304,183.2 L 546.2537378362456,187.6 L 545.0,197" style="animation-delay: 1.8866547294250702s;"/>
    <rect class="day fire-white" x="534" y="196" width="22" height="22" fill="url(#fireGradientWhite)"/>
    <path class="lightning" d="M 545.0,191 L 541.8969837782115,200.4 L 550.2734375937717,204.8 L 542.5149450467864,209.2 L 549.0634088192933,213.6 L 545.0,223" style="animation-delay: 0.4974878045927027s;"/>
    <rect class="day fire-white" x="560" y="66" width="22" height="22" fill="url(#fireGradientWhite)"/>
    <path class="lightning" d="M 571.0,61 L 569.1984044272695,70.4 L 565.8190636874929,74.8 L 573.8004524680722,79.2 L 573.061751835919,83.6 L 571.0,93" style="animation-delay: 0.41852316420109337s;"/>
    <rect class="day fire-white" x="560" y="92" width="22" height="22" fill="url(#fireGradientWhite)"/>
    <path class="lightning" d="M 571.0,87 L 567.8376284212746,96.4 L 567.615518295849,100.8 L 574.5029459667074,105.2 L 569.0712955613362,109.6 L 571.0,119" style="animation-delay: 1.0626368107165483s;"/>
    <rect class="day fire-white" x="560" y="118" width="22" height="22" fill="url(#fireGradientWhite)"/>
    <path class="lightning" d="M 571.0,113 L 573.6058926377272,122.4 L 575.0505290682988,126.8 L 570.2787510810643,131.2 L 568.2282929754612,135.6 L 571.0,145" style="animation-delay: 1.0980441534152063s;"/>
    <rect class="day fire-white" x="560" y="144" width="22" height="22" fill="url(#fireGradientWhite)"/>
    <path class="lightning" d="M 571.0,139 L 572.9247086503682,148.4 L 572.2253730547469,152.8 L 573.1171063344796,157.2 L 574.7947181909936,161.6 L 571.0,171" style="animation-delay: 0.8349858301863795s;"/>
    <rect class="day fire-white" x="560" y="170" width="22" height="22" fill="url(#fireGradientWhite)"/>
    <path class="lightning" d="M 571.0,165 L 567.9668973952433,174.4 L 568.8003711295412,178.8 L 573.2375250305308,183.2 L 575.697458016026,187.6 L 571.0,197" style="animation-delay: 0.7498750743288753s;"/>
    <rect class="day fire-white" x="586" y="66" width="22" height="22" fill="url(#fireGradientWhite)"/>
    <path class="lightning" d="M 597.0,61 L 599.2904534015623,70.4 L 593.0435910784959,74.8 L 599.4567319159756,79.2 L 592.9770950673794,83.6 L 597.0,93" style="animation-delay: 0.031839073860637335s;"/>
    <rect class="day fire-white" x="586" y="92" width="22" height="22" fill="url(#fireGradientWhite)"/>
    <path class="lightning" d="M 597.0,87 L 594.8175423132539,96.4 L 591.4846478954158,100.8 L 596.2625234183366,105.2 L 593.9330906385841,109.6 L 597.0,119" style="animation-delay: 1.9616313566245185s;"/>
    <rect class="day fire-red" x="586" y="118" width="22" height="22" fill="url(#fireGradientRed)"/>
    <rect class="day fire-white" x="612" y="66" width="22" height="22" fill="url(#fireGradientWhite)"/>
    <path class="lightning" d="M 623.0,61 L 622.2093882165435,70.4 L 627.1210265058344,74.8 L 620.0963258703283,79.2 L 619.5562513228804,83.6 L 623.0,93" style="animation-delay: 0.6997887077104736s;"/>
    <rect class="day fire-red" x="638" y="66" width="22" height="22" fill="url(#fireGradientRed)"/>
    <rect class="day fire-red" x="638" y="144" width="22" height="22" fill="url(#fireGradientRed)"/>

    <defs>
        <!-- Gradiente Fogo Vermelho -->
        <linearGradient id="fireGradientRed" x1="0%" y1="100%" x2="100%" y2="0%">
            <stop offset="0%" style="stop-color:#ff0000;stop-opacity:1">
                <animate attributeName="stop-color" values="#ff0000;#cc0000;#ff0000" dur="2s" repeatCount="indefinite"/>
            </stop>
            <stop offset="40%" style="stop-color:#ff4400;stop-opacity:1">
                <animate attributeName="stop-color" values="#ff4400;#ff6600;#ff4400" dur="2s" repeatCount="indefinite"/>
            </stop>
            <stop offset="70%" style="stop-color:#ff8800;stop-opacity:1">
                <animate attributeName="stop-color" values="#ff8800;#ffaa00;#ff8800" dur="2s" repeatCount="indefinite"/>
            </stop>
            <stop offset="100%" style="stop-color:#ffff00;stop-opacity:1">
                <animate attributeName="stop-color" values="#ffff00;#ffcc00;#ffff00" dur="2s" repeatCount="indefinite"/>
            </stop>
        </linearGradient>
        
        
        <!-- Gradiente Fogo Branco (Alto Contraste) -->
        <linearGradient id="fireGradientWhite" x1="0%" y1="100%" x2="100%" y2="0%">
            <stop offset="0%" style="stop-color:#ff0000;stop-opacity:1">
                <animate attributeName="stop-color" values="#ff0000;#cc0000;#ff0000" dur="1.5s" repeatCount="indefinite"/>
            </stop>
            <stop offset="30%" style="stop-color:#ff6600;stop-opacity:1">
                <animate attributeName="stop-color" values="#ff6600;#ff8800;#ff6600" dur="1.5s" repeatCount="indefinite"/>
            </stop>
            <stop offset="60%" style="stop-color:#ffdd00;stop-opacity:1">
                <animate attributeName="stop-color" values="#ffdd00;#ffff00;#ffdd00" dur="1.5s" repeatCount="indefinite"/>
            </stop>
            <stop offset="100%" style="stop-color:#ffffff;stop-opacity:1">
                <animate attributeName="stop-color" values="#ffffff;#ffffcc;#ffffff" dur="1.5s" repeatCount="indefinite"/>
            </stop>
        </linearGradient>
    </defs>
    
    <!-- Legenda -->
    <g transform="translate(40, 252)">
        <text y="15">Menos</text>
        <rect x="40" width="22" height="22" fill="#ebedf0" rx="2"/>
        <rect x="64" width="22" height="22" fill="hsl(60, 100%, 92%)" rx="2"/>
        <rect x="88" width="22" height="22" fill="#ffff3e" rx="2"/>
        <rect x="112" width="22" height="22" fill="#FFD700" rx="2"/>
        <rect x="136" width="22" height="22" fill="rgb(255,160,90)" rx="2"/>
        <rect x="160" width="22" height="22" fill="rgb(255,130,60)" rx="2"/>
        <rect x="184" width="22" height="22" fill="rgb(255,100,40)" rx="2"/>
        <rect x="208" width="22" height="22" fill="rgb(255,60,30)" rx="2"/>
        <rect class="day fire-red" x="232" width="22" height="22" fill="url(#fireGradientRed)" rx="2"/>
        <rect class="day fire-white" x="256" width="22" height="22" fill="url(#fireGradientWhite)" rx="2"/>
        <text x="290" y="15">Mais 🔥⚡</text>
    </g>
</svg>