<svg width="100%" viewBox="0 0 730 302" xmlns="http://www.w3.org/2000/svg">
    <style>
        .day { rx: 2; ry: 2; transition: all 0.2s; }
        .day:hover { stroke: #ff6b00; stroke-width: 2; }
        text { font-family: -apple-system, BlinkMacSystemFont, "Segoe UI", Helvetica, Arial, sans-serif, "Apple Color Emoji", "Segoe UI Emoji"; font-size: 10px; fill: #24292f; }
        
        /* Fogo Vermelho (Nível 8) - Intensidade Reduzida */
        .fire-red { 
            rx: 2;
            // animation: pulseFireRed 2s ease-in-out infinite;
            // filter: drop-shadow(0 0 6px rgba(255, 100, 0, 0.6));
        }
        
        @keyframes pulseFireRed {
            0% { 
                filter: 
                    drop-shadow(0 -3px 6px rgba(255, 0, 0, 0.8))
                    drop-shadow(0 -6px 12px rgba(255, 100, 0, 0.6))
                    drop-shadow(0 -10px 18px rgba(255, 150, 0, 0.4));
            }
            50% { 
                filter: 
                    drop-shadow(0 -5px 10px rgba(255, 0, 0, 0.9))
                    drop-shadow(0 -10px 20px rgba(255, 100, 0, 0.7))
                    drop-shadow(0 -15px 28px rgba(255, 200, 0, 0.5));
            }
            100% { 
                filter: 
                    drop-shadow(0 -3px 6px rgba(255, 0, 0, 0.8))
                    drop-shadow(0 -6px 12px rgba(255, 100, 0, 0.6))
                    drop-shadow(0 -10px 18px rgba(255, 150, 0, 0.4));
            }
        }
        
        /* Fogo Branco (Nível 9) - Super Intenso com Alto Contraste */
        .fire-white { 
            rx: 2;
            animation: pulseFireWhite 1.5s ease-in-out infinite;
            filter: drop-shadow(0 0 15px rgba(255, 255, 255, 1));
        }
        
        @keyframes pulseFireOrange {
            0% {
                filter: 
                drop-shadow(0 -6px 12px rgba(200, 50, 0, 1))
                drop-shadow(0 -12px 24px rgba(255, 255, 255, 1))
                drop-shadow(0 -20px 40px rgba(255, 160, 50, 0.9));
            }
            50% {
                filter: 
                drop-shadow(0 -10px 20px rgba(180, 30, 0, 1))
                drop-shadow(0 -20px 40px rgba(255, 255, 255, 1))
                drop-shadow(0 -30px 60px rgba(255, 200, 80, 1));
            }
            100% {
                filter: 
                drop-shadow(0 -6px 12px rgba(200, 50, 0, 1))
                drop-shadow(0 -12px 24px rgba(255, 255, 255, 1))
                drop-shadow(0 -20px 40px rgba(255, 160, 50, 0.9));
            }
        }
        
        /* Fagulhas Vermelhas (Fogo Vermelho) */
        .spark-red {
            fill: #ffaa00;
            opacity: 0;
            animation: sparkFlyRed 1.5s ease-out infinite;
        }
        
        @keyframes sparkFlyRed {
            0% {
                opacity: 1;
                transform: translateY(0) scale(1);
            }
            50% {
                opacity: 0.7;
            }
            100% {
                opacity: 0;
                transform: translateY(var(--ty)) scale(0.2);
            }
        }
        
        /* Fagulhas Azuis (Fogo Branco) - Pequenas e Dispersas */
        .spark-white {
            opacity: 0;
            animation: sparkFlyWhite 1.5s ease-out infinite;
        }
        
        @keyframes sparkFlyWhite {
            0% {
                opacity: 0.9;
                transform: translate(0, 0) scale(1);
                fill: #ffffff;
            }
            30% {
                opacity: 0.8;
                fill: #ffff00;
            }
            70% {
                opacity: 0.4;
                fill: #ffaa00;
            }
            100% {
                opacity: 0;
                transform: translate(var(--tx), var(--ty)) scale(0.3);
                fill: #ff6600;
            }
        }
        
        /* Raio Elétrico (Neon) */
        .lightning {
            stroke: #FFFFFF;
            stroke-width: 1.5;
            fill: none;
            opacity: 0;
            filter: drop-shadow(0 0 4px #00FFFF) drop-shadow(0 0 8px #FFFFFF);
            animation: lightningStrike 2s ease-in-out infinite;
        }
        
        @keyframes lightningStrike {
            0% {
                opacity: 0;
                stroke-width: 0.5;
            }
            10% {
                opacity: 1;
                stroke-width: 2;
                filter: drop-shadow(0 0 8px #00FFFF) drop-shadow(0 0 16px #FFFFFF);
            }
            15% {
                opacity: 0.3;
            }
            20% {
                opacity: 1;
                stroke-width: 2.5;
                filter: drop-shadow(0 0 12px #00FFFF) drop-shadow(0 0 20px #FFFFFF);
            }
            25% {
                opacity: 0;
            }
            100% {
                opacity: 0;
            }
        }
    </style>
    <rect width="730" height="302" fill="#ffffff" rx="6"/>
    
    <!-- Título -->
    <text x="15" y="25" fill="#24292f" font-size="12" font-weight="400">
        <tspan fill="#ff6b00" font-weight="600">876</tspan> contribuições nos últimos 6 meses
    </text>
    
    <!-- Labels dos dias -->
    <text x="25" y="82" text-anchor="end">Seg</text>
    <text x="25" y="134" text-anchor="end">Qua</text>
    <text x="25" y="186" text-anchor="end">Sex</text>
    <text x="40" y="35">Mar</text>
    <text x="66" y="35">Abr</text>
    <text x="170" y="35">Mai</text>
    <text x="300" y="35">Jun</text>
    <text x="404" y="35">Jul</text>
    <text x="508" y="35">Ago</text>
    <text x="638" y="35">Set</text>
    <rect class="day" x="40" y="40" width="22" height="22" fill="hsl(60, 100%, 92%)"/>
    <rect class="day" x="40" y="66" width="22" height="22" fill="#ebedf0"/>
    <rect class="day" x="40" y="92" width="22" height="22" fill="#ebedf0"/>
    <rect class="day" x="40" y="118" width="22" height="22" fill="#ebedf0"/>
    <rect class="day" x="40" y="144" width="22" height="22" fill="#ebedf0"/>
    <rect class="day" x="40" y="170" width="22" height="22" fill="#ebedf0"/>
    <rect class="day" x="40" y="196" width="22" height="22" fill="hsl(60, 100%, 92%)"/>
    <rect class="day" x="66" y="40" width="22" height="22" fill="#ebedf0"/>
    <rect class="day" x="66" y="66" width="22" height="22" fill="#ebedf0"/>
    <rect class="day" x="66" y="92" width="22" height="22" fill="#ebedf0"/>
    <rect class="day" x="66" y="118" width="22" height="22" fill="hsl(60, 100%, 92%)"/>
    <rect class="day" x="66" y="144" width="22" height="22" fill="#ebedf0"/>
    <rect class="day" x="66" y="170" width="22" height="22" fill="#ebedf0"/>
    <rect class="day" x="66" y="196" width="22" height="22" fill="#ebedf0"/>
    <rect class="day" x="92" y="40" width="22" height="22" fill="#ebedf0"/>
    <rect class="day" x="92" y="66" width="22" height="22" fill="#ebedf0"/>
    <rect class="day" x="92" y="92" width="22" height="22" fill="#ebedf0"/>
    <rect class="day" x="92" y="118" width="22" height="22" fill="#ebedf0"/>
    <rect class="day" x="92" y="144" width="22" height="22" fill="#ebedf0"/>
    <rect class="day" x="92" y="170" width="22" height="22" fill="#ebedf0"/>
    <rect class="day" x="92" y="196" width="22" height="22" fill="#ebedf0"/>
    <rect class="day" x="118" y="40" width="22" height="22" fill="hsl(60, 100%, 92%)"/>
    <rect class="day" x="118" y="66" width="22" height="22" fill="#ebedf0"/>
    <rect class="day" x="118" y="92" width="22" height="22" fill="#ebedf0"/>
    <rect class="day" x="118" y="118" width="22" height="22" fill="#ebedf0"/>
    <rect class="day" x="118" y="144" width="22" height="22" fill="#ebedf0"/>
    <rect class="day" x="118" y="170" width="22" height="22" fill="#ebedf0"/>
    <rect class="day" x="118" y="196" width="22" height="22" fill="#ebedf0"/>
    <rect class="day" x="144" y="40" width="22" height="22" fill="#ebedf0"/>
    <rect class="day" x="144" y="66" width="22" height="22" fill="#ebedf0"/>
    <rect class="day" x="144" y="92" width="22" height="22" fill="#ebedf0"/>
    <rect class="day" x="144" y="118" width="22" height="22" fill="#ebedf0"/>
    <rect class="day" x="144" y="144" width="22" height="22" fill="#ebedf0"/>
    <rect class="day" x="144" y="170" width="22" height="22" fill="#ebedf0"/>
    <rect class="day" x="144" y="196" width="22" height="22" fill="#ebedf0"/>
    <rect class="day" x="170" y="40" width="22" height="22" fill="#ebedf0"/>
    <rect class="day" x="170" y="66" width="22" height="22" fill="#ebedf0"/>
    <rect class="day" x="170" y="92" width="22" height="22" fill="#ebedf0"/>
    <rect class="day" x="170" y="118" width="22" height="22" fill="#ebedf0"/>
    <rect class="day" x="170" y="144" width="22" height="22" fill="#ebedf0"/>
    <rect class="day" x="170" y="170" width="22" height="22" fill="#ebedf0"/>
    <rect class="day" x="170" y="196" width="22" height="22" fill="#ebedf0"/>
    <rect class="day" x="196" y="40" width="22" height="22" fill="#ebedf0"/>
    <rect class="day" x="196" y="66" width="22" height="22" fill="#ebedf0"/>
    <rect class="day" x="196" y="92" width="22" height="22" fill="#ebedf0"/>
    <rect class="day" x="196" y="118" width="22" height="22" fill="#ebedf0"/>
    <rect class="day" x="196" y="144" width="22" height="22" fill="#ebedf0"/>
    <rect class="day" x="196" y="170" width="22" height="22" fill="#ebedf0"/>
    <rect class="day" x="196" y="196" width="22" height="22" fill="hsl(60, 100%, 92%)"/>
    <rect class="day" x="222" y="40" width="22" height="22" fill="#ebedf0"/>
    <rect class="day" x="222" y="66" width="22" height="22" fill="#ebedf0"/>
    <rect class="day" x="222" y="92" width="22" height="22" fill="#ebedf0"/>
    <rect class="day" x="222" y="118" width="22" height="22" fill="#ebedf0"/>
    <rect class="day" x="222" y="144" width="22" height="22" fill="#ebedf0"/>
    <rect class="day" x="222" y="170" width="22" height="22" fill="hsl(60, 100%, 92%)"/>
    <rect class="day" x="222" y="196" width="22" height="22" fill="#ebedf0"/>
    <rect class="day" x="248" y="40" width="22" height="22" fill="#ebedf0"/>
    <rect class="day" x="248" y="66" width="22" height="22" fill="#ebedf0"/>
    <rect class="day" x="248" y="92" width="22" height="22" fill="#ebedf0"/>
    <rect class="day" x="248" y="118" width="22" height="22" fill="#ebedf0"/>
    <rect class="day" x="248" y="144" width="22" height="22" fill="#ebedf0"/>
    <rect class="day" x="248" y="170" width="22" height="22" fill="hsl(60, 100%, 92%)"/>
    <rect class="day" x="248" y="196" width="22" height="22" fill="#ebedf0"/>
    <rect class="day" x="274" y="40" width="22" height="22" fill="#ebedf0"/>
    <rect class="day" x="274" y="66" width="22" height="22" fill="hsl(60, 100%, 92%)"/>
    <rect class="day" x="274" y="92" width="22" height="22" fill="#ebedf0"/>
    <rect class="day" x="274" y="118" width="22" height="22" fill="#ebedf0"/>
    <rect class="day" x="274" y="144" width="22" height="22" fill="#ebedf0"/>
    <rect class="day" x="274" y="170" width="22" height="22" fill="#ebedf0"/>
    <rect class="day" x="274" y="196" width="22" height="22" fill="#ebedf0"/>
    <rect class="day" x="300" y="40" width="22" height="22" fill="#ebedf0"/>
    <rect class="day" x="300" y="66" width="22" height="22" fill="#ebedf0"/>
    <rect class="day" x="300" y="92" width="22" height="22" fill="#ebedf0"/>
    <rect class="day" x="300" y="118" width="22" height="22" fill="#ebedf0"/>
    <rect class="day" x="300" y="144" width="22" height="22" fill="#ebedf0"/>
    <rect class="day" x="300" y="170" width="22" height="22" fill="#ebedf0"/>
    <rect class="day" x="300" y="196" width="22" height="22" fill="#ebedf0"/>
    <rect class="day" x="326" y="40" width="22" height="22" fill="#ebedf0"/>
    <rect class="day" x="326" y="66" width="22" height="22" fill="hsl(60, 100%, 92%)"/>
    <rect class="day" x="326" y="92" width="22" height="22" fill="#ebedf0"/>
    <rect class="day" x="326" y="118" width="22" height="22" fill="hsl(60, 100%, 92%)"/>
    <rect class="day" x="326" y="144" width="22" height="22" fill="#ebedf0"/>
    <rect class="day" x="326" y="170" width="22" height="22" fill="#ebedf0"/>
    <rect class="day" x="326" y="196" width="22" height="22" fill="hsl(60, 100%, 92%)"/>
    <rect class="day" x="352" y="40" width="22" height="22" fill="hsl(60, 100%, 92%)"/>
    <rect class="day" x="352" y="66" width="22" height="22" fill="rgb(255,60,30)"/>
    <rect class="day" x="352" y="92" width="22" height="22" fill="#ffff3e"/>
    <rect class="day" x="352" y="118" width="22" height="22" fill="#ebedf0"/>
    <rect class="day" x="352" y="144" width="22" height="22" fill="#ebedf0"/>
    <rect class="day" x="352" y="170" width="22" height="22" fill="#ebedf0"/>
    <rect class="day" x="352" y="196" width="22" height="22" fill="#ebedf0"/>
    <rect class="day" x="378" y="40" width="22" height="22" fill="#ebedf0"/>
    <rect class="day" x="378" y="66" width="22" height="22" fill="#ebedf0"/>
    <rect class="day" x="378" y="92" width="22" height="22" fill="#ffff3e"/>
    <rect class="day" x="378" y="118" width="22" height="22" fill="#ffff3e"/>
    <rect class="day" x="378" y="144" width="22" height="22" fill="#ebedf0"/>
    <rect class="day" x="378" y="170" width="22" height="22" fill="#ebedf0"/>
    <rect class="day" x="378" y="196" width="22" height="22" fill="#ebedf0"/>
    <rect class="day" x="404" y="40" width="22" height="22" fill="hsl(60, 100%, 92%)"/>
    <rect class="day" x="404" y="66" width="22" height="22" fill="rgb(255,100,40)"/>
    <rect class="day" x="404" y="170" width="22" height="22" fill="hsl(60, 100%, 92%)"/>
    <rect class="day" x="404" y="196" width="22" height="22" fill="#ebedf0"/>
    <rect class="day" x="430" y="40" width="22" height="22" fill="#ffff3e"/>
    <rect class="day" x="430" y="66" width="22" height="22" fill="#ebedf0"/>
    <rect class="day" x="430" y="92" width="22" height="22" fill="hsl(60, 100%, 92%)"/>
    <rect class="day" x="430" y="118" width="22" height="22" fill="hsl(60, 100%, 92%)"/>
    <rect class="day" x="430" y="144" width="22" height="22" fill="#ebedf0"/>
    <rect class="day" x="430" y="170" width="22" height="22" fill="#ebedf0"/>
    <rect class="day" x="430" y="196" width="22" height="22" fill="#ebedf0"/>
    <rect class="day" x="456" y="40" width="22" height="22" fill="#ebedf0"/>
    <rect class="day" x="456" y="66" width="22" height="22" fill="#FFD700"/>
    <rect class="day" x="456" y="92" width="22" height="22" fill="#ffff3e"/>
    <rect class="day" x="456" y="118" width="22" height="22" fill="#ffff3e"/>
    <rect class="day" x="456" y="144" width="22" height="22" fill="#FFD700"/>
    <rect class="day" x="456" y="170" width="22" height="22" fill="#ebedf0"/>
    <rect class="day" x="456" y="196" width="22" height="22" fill="#ebedf0"/>
    <rect class="day" x="482" y="40" width="22" height="22" fill="#ebedf0"/>
    <rect class="day" x="482" y="92" width="22" height="22" fill="rgb(255,160,90)"/>
    <rect class="day" x="482" y="118" width="22" height="22" fill="#FFD700"/>
    <rect class="day" x="482" y="144" width="22" height="22" fill="#ebedf0"/>
    <rect class="day" x="482" y="170" width="22" height="22" fill="hsl(60, 100%, 92%)"/>
    <rect class="day" x="482" y="196" width="22" height="22" fill="#ebedf0"/>
    <rect class="day" x="508" y="40" width="22" height="22" fill="#ebedf0"/>
    <rect class="day" x="508" y="66" width="22" height="22" fill="hsl(60, 100%, 92%)"/>
    <rect class="day" x="508" y="92" width="22" height="22" fill="rgb(255,130,60)"/>
    <rect class="day" x="508" y="118" width="22" height="22" fill="hsl(60, 100%, 92%)"/>
    <rect class="day" x="508" y="170" width="22" height="22" fill="#ebedf0"/>
    <rect class="day" x="508" y="196" width="22" height="22" fill="#ebedf0"/>
    <rect class="day" x="534" y="40" width="22" height="22" fill="#ebedf0"/>
    <rect class="day" x="534" y="66" width="22" height="22" fill="hsl(60, 100%, 92%)"/>
    <rect class="day" x="534" y="170" width="22" height="22" fill="#ebedf0"/>
    <rect class="day" x="534" y="196" width="22" height="22" fill="#ebedf0"/>
    <rect class="day" x="560" y="66" width="22" height="22" fill="hsl(60, 100%, 92%)"/>
    <rect class="day" x="560" y="144" width="22" height="22" fill="rgb(255,100,40)"/>
    <rect class="day" x="560" y="196" width="22" height="22" fill="#ffff3e"/>
    <rect class="day" x="586" y="118" width="22" height="22" fill="rgb(255,160,90)"/>
    <rect class="day" x="612" y="40" width="22" height="22" fill="rgb(255,160,90)"/>
    <rect class="day" x="612" y="196" width="22" height="22" fill="rgb(255,160,90)"/>
    <rect class="day" x="638" y="40" width="22" height="22" fill="#ebedf0"/>
    <rect class="day" x="638" y="144" width="22" height="22" fill="#ffff3e"/>
    <rect class="day" x="638" y="170" width="22" height="22" fill="#ebedf0"/>
    <rect class="day" x="638" y="196" width="22" height="22" fill="hsl(60, 100%, 92%)"/>
    <rect class="day" x="664" y="40" width="22" height="22" fill="#ebedf0"/>
    <rect class="day" x="664" y="66" width="22" height="22" fill="#ebedf0"/>
    <rect class="day fire-red" x="404" y="92" width="22" height="22" fill="url(#fireGradientRed)"/>
    <rect class="day fire-white" x="404" y="118" width="22" height="22" fill="url(#fireGradientWhite)"/>
    <path class="lightning" d="M 415.0,113 L 413.17355994362833,122.4 L 413.22994129709497,126.8 L 411.81625712529114,131.2 L 415.779951292113,135.6 L 415.0,145" style="animation-delay: 1.557437350525891s;"/>
    <rect class="day fire-white" x="404" y="144" width="22" height="22" fill="url(#fireGradientWhite)"/>
    <path class="lightning" d="M 415.0,139 L 414.50576863000424,148.4 L 409.4355110881299,152.8 L 412.2846623039384,157.2 L 419.74166229588934,161.6 L 415.0,171" style="animation-delay: 0.3004548608087041s;"/>
    <rect class="day fire-red" x="482" y="66" width="22" height="22" fill="url(#fireGradientRed)"/>
    <rect class="day fire-white" x="508" y="144" width="22" height="22" fill="url(#fireGradientWhite)"/>
    <path class="lightning" d="M 519.0,139 L 515.4182468686089,148.4 L 518.5819866407801,152.8 L 518.937385159402,157.2 L 517.8479236283225,161.6 L 519.0,171" style="animation-delay: 0.022215961033819287s;"/>
    <rect class="day fire-red" x="534" y="92" width="22" height="22" fill="url(#fireGradientRed)"/>
    <rect class="day fire-white" x="534" y="118" width="22" height="22" fill="url(#fireGradientWhite)"/>
    <path class="lightning" d="M 545.0,113 L 543.4089398178203,122.4 L 549.2234267994983,126.8 L 545.7959734042403,131.2 L 545.0745825367593,135.6 L 545.0,145" style="animation-delay: 0.9055198654531615s;"/>
    <rect class="day fire-red" x="534" y="144" width="22" height="22" fill="url(#fireGradientRed)"/>
    <rect class="day fire-white" x="560" y="40" width="22" height="22" fill="url(#fireGradientWhite)"/>
    <path class="lightning" d="M 571.0,35 L 572.1862926458275,44.4 L 576.8893425526953,48.8 L 570.3398539454442,53.2 L 575.233297618673,57.6 L 571.0,67" style="animation-delay: 0.506171190012789s;"/>
    <rect class="day fire-white" x="560" y="92" width="22" height="22" fill="url(#fireGradientWhite)"/>
    <path class="lightning" d="M 571.0,87 L 567.8255979892276,96.4 L 566.3422958712621,100.8 L 574.1628863872961,105.2 L 571.1077774351631,109.6 L 571.0,119" style="animation-delay: 1.4727473010364558s;"/>
    <rect class="day fire-white" x="560" y="118" width="22" height="22" fill="url(#fireGradientWhite)"/>
    <path class="lightning" d="M 571.0,113 L 567.507988535712,122.4 L 574.3100457958507,126.8 L 567.6939097786845,131.2 L 568.6187896701622,135.6 L 571.0,145" style="animation-delay: 1.388908092193004s;"/>
    <rect class="day fire-white" x="560" y="170" width="22" height="22" fill="url(#fireGradientWhite)"/>
    <path class="lightning" d="M 571.0,165 L 570.841348630237,174.4 L 569.7837044430064,178.8 L 568.3637974264238,183.2 L 568.2350032231708,187.6 L 571.0,197" style="animation-delay: 1.5085271086972605s;"/>
    <rect class="day fire-white" x="586" y="40" width="22" height="22" fill="url(#fireGradientWhite)"/>
    <path class="lightning" d="M 597.0,35 L 593.9646446807982,44.4 L 602.9294007027365,48.8 L 596.7339208242648,53.2 L 595.1387592256955,57.6 L 597.0,67" style="animation-delay: 1.970957015397853s;"/>
    <rect class="day fire-white" x="586" y="66" width="22" height="22" fill="url(#fireGradientWhite)"/>
    <path class="lightning" d="M 597.0,61 L 593.7729381374156,70.4 L 593.0229411807102,74.8 L 600.5655717153372,79.2 L 599.2889236279801,83.6 L 597.0,93" style="animation-delay: 1.6044736940062072s;"/>
    <rect class="day fire-white" x="586" y="92" width="22" height="22" fill="url(#fireGradientWhite)"/>
    <path class="lightning" d="M 597.0,87 L 597.7792749499149,96.4 L 591.2705861038389,100.8 L 597.8695932636042,105.2 L 597.3082456728424,109.6 L 597.0,119" style="animation-delay: 0.23542151991068527s;"/>
    <rect class="day fire-white" x="586" y="144" width="22" height="22" fill="url(#fireGradientWhite)"/>
    <path class="lightning" d="M 597.0,139 L 599.0188408748737,148.4 L 601.8371911582254,152.8 L 599.6050790620366,157.2 L 592.6870939532375,161.6 L 597.0,171" style="animation-delay: 0.909992350051056s;"/>
    <rect class="day fire-white" x="586" y="170" width="22" height="22" fill="url(#fireGradientWhite)"/>
    <path class="lightning" d="M 597.0,165 L 595.0439065977338,174.4 L 598.7650633971821,178.8 L 594.1337361514899,183.2 L 597.9219960974899,187.6 L 597.0,197" style="animation-delay: 0.20845293961651556s;"/>
    <rect class="day fire-white" x="586" y="196" width="22" height="22" fill="url(#fireGradientWhite)"/>
    <path class="lightning" d="M 597.0,191 L 598.1306734485665,200.4 L 594.4439340091582,204.8 L 593.9997306231855,209.2 L 592.2852363098942,213.6 L 597.0,223" style="animation-delay: 1.708103177471738s;"/>
    <rect class="day fire-white" x="612" y="66" width="22" height="22" fill="url(#fireGradientWhite)"/>
    <path class="lightning" d="M 623.0,61 L 625.3001160131201,70.4 L 626.3295566618306,74.8 L 622.2916191354998,79.2 L 622.8277928902708,83.6 L 623.0,93" style="animation-delay: 0.9807100146670631s;"/>
    <rect class="day fire-white" x="612" y="92" width="22" height="22" fill="url(#fireGradientWhite)"/>
    <path class="lightning" d="M 623.0,87 L 622.068246003072,96.4 L 626.4559349383165,100.8 L 626.2781745283638,105.2 L 626.0277530802962,109.6 L 623.0,119" style="animation-delay: 1.605230741787855s;"/>
    <rect class="day fire-white" x="612" y="118" width="22" height="22" fill="url(#fireGradientWhite)"/>
    <path class="lightning" d="M 623.0,113 L 619.8800129670743,122.4 L 622.6216020875144,126.8 L 622.5517252016313,131.2 L 618.0431353897518,135.6 L 623.0,145" style="animation-delay: 1.058957216825992s;"/>
    <rect class="day fire-white" x="612" y="144" width="22" height="22" fill="url(#fireGradientWhite)"/>
    <path class="lightning" d="M 623.0,139 L 620.5770857800649,148.4 L 620.5987281296244,152.8 L 620.7222846037859,157.2 L 622.5374492911633,161.6 L 623.0,171" style="animation-delay: 1.231946029303496s;"/>
    <rect class="day fire-white" x="612" y="170" width="22" height="22" fill="url(#fireGradientWhite)"/>
    <path class="lightning" d="M 623.0,165 L 623.5430206402635,174.4 L 624.8602721222111,178.8 L 625.8991910275574,183.2 L 624.1593324418536,187.6 L 623.0,197" style="animation-delay: 1.235824288959638s;"/>
    <rect class="day fire-white" x="638" y="66" width="22" height="22" fill="url(#fireGradientWhite)"/>
    <path class="lightning" d="M 649.0,61 L 652.5165590985962,70.4 L 653.7175577372977,74.8 L 652.9271750323031,79.2 L 647.7117306444734,83.6 L 649.0,93" style="animation-delay: 0.9752050855731893s;"/>
    <rect class="day fire-white" x="638" y="92" width="22" height="22" fill="url(#fireGradientWhite)"/>
    <path class="lightning" d="M 649.0,87 L 649.0412820841391,96.4 L 648.8812718058006,100.8 L 650.0550180126916,105.2 L 653.2363126347824,109.6 L 649.0,119" style="animation-delay: 1.4998886006233156s;"/>
    <rect class="day fire-red" x="638" y="118" width="22" height="22" fill="url(#fireGradientRed)"/>

    <defs>
        <!-- Gradiente Fogo Vermelho -->
        <linearGradient id="fireGradientRed" x1="0%" y1="100%" x2="100%" y2="0%">
            <stop offset="0%" style="stop-color:#ff0000;stop-opacity:1">
                <animate attributeName="stop-color" values="#ff0000;#cc0000;#ff0000" dur="2s" repeatCount="indefinite"/>
            </stop>
            <stop offset="40%" style="stop-color:#ff4400;stop-opacity:1">
                <animate attributeName="stop-color" values="#ff4400;#ff6600;#ff4400" dur="2s" repeatCount="indefinite"/>
            </stop>
            <stop offset="70%" style="stop-color:#ff8800;stop-opacity:1">
                <animate attributeName="stop-color" values="#ff8800;#ffaa00;#ff8800" dur="2s" repeatCount="indefinite"/>
            </stop>
            <stop offset="100%" style="stop-color:#ffff00;stop-opacity:1">
                <animate attributeName="stop-color" values="#ffff00;#ffcc00;#ffff00" dur="2s" repeatCount="indefinite"/>
            </stop>
        </linearGradient>
        
        
        <!-- Gradiente Fogo Branco (Alto Contraste) -->
        <linearGradient id="fireGradientWhite" x1="0%" y1="100%" x2="100%" y2="0%">
            <stop offset="0%" style="stop-color:#ff0000;stop-opacity:1">
                <animate attributeName="stop-color" values="#ff0000;#cc0000;#ff0000" dur="1.5s" repeatCount="indefinite"/>
            </stop>
            <stop offset="30%" style="stop-color:#ff6600;stop-opacity:1">
                <animate attributeName="stop-color" values="#ff6600;#ff8800;#ff6600" dur="1.5s" repeatCount="indefinite"/>
            </stop>
            <stop offset="60%" style="stop-color:#ffdd00;stop-opacity:1">
                <animate attributeName="stop-color" values="#ffdd00;#ffff00;#ffdd00" dur="1.5s" repeatCount="indefinite"/>
            </stop>
            <stop offset="100%" style="stop-color:#ffffff;stop-opacity:1">
                <animate attributeName="stop-color" values="#ffffff;#ffffcc;#ffffff" dur="1.5s" repeatCount="indefinite"/>
            </stop>
        </linearGradient>
    </defs>
    
    <!-- Legenda -->
    <g transform="translate(40, 252)">
        <text y="15">Menos</text>
        <rect x="40" width="22" height="22" fill="#ebedf0" rx="2"/>
        <rect x="64" width="22" height="22" fill="hsl(60, 100%, 92%)" rx="2"/>
        <rect x="88" width="22" height="22" fill="#ffff3e" rx="2"/>
        <rect x="112" width="22" height="22" fill="#FFD700" rx="2"/>
        <rect x="136" width="22" height="22" fill="rgb(255,160,90)" rx="2"/>
        <rect x="160" width="22" height="22" fill="rgb(255,130,60)" rx="2"/>
        <rect x="184" width="22" height="22" fill="rgb(255,100,40)" rx="2"/>
        <rect x="208" width="22" height="22" fill="rgb(255,60,30)" rx="2"/>
        <rect class="day fire-red" x="232" width="22" height="22" fill="url(#fireGradientRed)" rx="2"/>
        <rect class="day fire-white" x="256" width="22" height="22" fill="url(#fireGradientWhite)" rx="2"/>
        <text x="290" y="15">Mais 🔥⚡</text>
    </g>
</svg>