<svg width="100%" viewBox="0 0 730 302" xmlns="http://www.w3.org/2000/svg">
    <style>
        .day { rx: 2; ry: 2; transition: all 0.2s; }
        .day:hover { stroke: #ff6b00; stroke-width: 2; }
        text { font-family: -apple-system, BlinkMacSystemFont, "Segoe UI", Helvetica, Arial, sans-serif, "Apple Color Emoji", "Segoe UI Emoji"; font-size: 10px; fill: #24292f; }
        
        /* Fogo Vermelho (Nível 8) - Intensidade Reduzida */
        .fire-red { 
            rx: 2;
            // animation: pulseFireRed 2s ease-in-out infinite;
            // filter: drop-shadow(0 0 6px rgba(255, 100, 0, 0.6));
        }
        
        @keyframes pulseFireRed {
            0% { 
                filter: 
                    drop-shadow(0 -3px 6px rgba(255, 0, 0, 0.8))
                    drop-shadow(0 -6px 12px rgba(255, 100, 0, 0.6))
                    drop-shadow(0 -10px 18px rgba(255, 150, 0, 0.4));
            }
            50% { 
                filter: 
                    drop-shadow(0 -5px 10px rgba(255, 0, 0, 0.9))
                    drop-shadow(0 -10px 20px rgba(255, 100, 0, 0.7))
                    drop-shadow(0 -15px 28px rgba(255, 200, 0, 0.5));
            }
            100% { 
                filter: 
                    drop-shadow(0 -3px 6px rgba(255, 0, 0, 0.8))
                    drop-shadow(0 -6px 12px rgba(255, 100, 0, 0.6))
                    drop-shadow(0 -10px 18px rgba(255, 150, 0, 0.4));
            }
        }
        
        /* Fogo Branco (Nível 9) - Super Intenso com Alto Contraste */
        .fire-white { 
            rx: 2;
            animation: pulseFireWhite 1.5s ease-in-out infinite;
            filter: drop-shadow(0 0 15px rgba(255, 255, 255, 1));
        }
        
        @keyframes pulseFireOrange {
            0% {
                filter: 
                drop-shadow(0 -6px 12px rgba(200, 50, 0, 1))
                drop-shadow(0 -12px 24px rgba(255, 255, 255, 1))
                drop-shadow(0 -20px 40px rgba(255, 160, 50, 0.9));
            }
            50% {
                filter: 
                drop-shadow(0 -10px 20px rgba(180, 30, 0, 1))
                drop-shadow(0 -20px 40px rgba(255, 255, 255, 1))
                drop-shadow(0 -30px 60px rgba(255, 200, 80, 1));
            }
            100% {
                filter: 
                drop-shadow(0 -6px 12px rgba(200, 50, 0, 1))
                drop-shadow(0 -12px 24px rgba(255, 255, 255, 1))
                drop-shadow(0 -20px 40px rgba(255, 160, 50, 0.9));
            }
        }
        
        /* Fagulhas Vermelhas (Fogo Vermelho) */
        .spark-red {
            fill: #ffaa00;
            opacity: 0;
            animation: sparkFlyRed 1.5s ease-out infinite;
        }
        
        @keyframes sparkFlyRed {
            0% {
                opacity: 1;
                transform: translateY(0) scale(1);
            }
            50% {
                opacity: 0.7;
            }
            100% {
                opacity: 0;
                transform: translateY(var(--ty)) scale(0.2);
            }
        }
        
        /* Fagulhas Azuis (Fogo Branco) - Pequenas e Dispersas */
        .spark-white {
            opacity: 0;
            animation: sparkFlyWhite 1.5s ease-out infinite;
        }
        
        @keyframes sparkFlyWhite {
            0% {
                opacity: 0.9;
                transform: translate(0, 0) scale(1);
                fill: #ffffff;
            }
            30% {
                opacity: 0.8;
                fill: #ffff00;
            }
            70% {
                opacity: 0.4;
                fill: #ffaa00;
            }
            100% {
                opacity: 0;
                transform: translate(var(--tx), var(--ty)) scale(0.3);
                fill: #ff6600;
            }
        }
        
        /* Raio Elétrico (Neon) */
        .lightning {
            stroke: #FFFFFF;
            stroke-width: 1.5;
            fill: none;
            opacity: 0;
            filter: drop-shadow(0 0 4px #00FFFF) drop-shadow(0 0 8px #FFFFFF);
            animation: lightningStrike 2s ease-in-out infinite;
        }
        
        @keyframes lightningStrike {
            0% {
                opacity: 0;
                stroke-width: 0.5;
            }
            10% {
                opacity: 1;
                stroke-width: 2;
                filter: drop-shadow(0 0 8px #00FFFF) drop-shadow(0 0 16px #FFFFFF);
            }
            15% {
                opacity: 0.3;
            }
            20% {
                opacity: 1;
                stroke-width: 2.5;
                filter: drop-shadow(0 0 12px #00FFFF) drop-shadow(0 0 20px #FFFFFF);
            }
            25% {
                opacity: 0;
            }
            100% {
                opacity: 0;
            }
        }
    </style>
    <rect width="730" height="302" fill="#ffffff" rx="6"/>
    
    <!-- Título -->
    <text x="15" y="25" fill="#24292f" font-size="12" font-weight="400">
        <tspan fill="#ff6b00" font-weight="600">270</tspan> contribuições nos últimos 6 meses
    </text>
    
    <!-- Labels dos dias -->
    <text x="25" y="82" text-anchor="end">Seg</text>
    <text x="25" y="134" text-anchor="end">Qua</text>
    <text x="25" y="186" text-anchor="end">Sex</text>
    <text x="40" y="35">Ago</text>
    <text x="92" y="35">Set</text>
    <text x="196" y="35">Out</text>
    <text x="300" y="35">Nov</text>
    <text x="430" y="35">Dez</text>
    <text x="534" y="35">Jan</text>
    <text x="638" y="35">Fev</text>
    <rect class="day" x="40" y="40" width="22" height="22" fill="#ebedf0"/>
    <rect class="day" x="40" y="66" width="22" height="22" fill="#ebedf0"/>
    <rect class="day" x="40" y="92" width="22" height="22" fill="#ebedf0"/>
    <rect class="day" x="40" y="118" width="22" height="22" fill="#ebedf0"/>
    <rect class="day" x="40" y="144" width="22" height="22" fill="hsl(60, 100%, 92%)"/>
    <rect class="day" x="40" y="170" width="22" height="22" fill="hsl(60, 100%, 92%)"/>
    <rect class="day" x="40" y="196" width="22" height="22" fill="#ebedf0"/>
    <rect class="day" x="66" y="40" width="22" height="22" fill="#ebedf0"/>
    <rect class="day" x="66" y="66" width="22" height="22" fill="#ebedf0"/>
    <rect class="day" x="66" y="92" width="22" height="22" fill="#ebedf0"/>
    <rect class="day" x="66" y="118" width="22" height="22" fill="hsl(60, 100%, 92%)"/>
    <rect class="day" x="66" y="144" width="22" height="22" fill="#ebedf0"/>
    <rect class="day" x="66" y="170" width="22" height="22" fill="#ebedf0"/>
    <rect class="day" x="66" y="196" width="22" height="22" fill="#ebedf0"/>
    <rect class="day" x="92" y="40" width="22" height="22" fill="#ebedf0"/>
    <rect class="day" x="92" y="66" width="22" height="22" fill="hsl(60, 100%, 92%)"/>
    <rect class="day" x="92" y="92" width="22" height="22" fill="#ebedf0"/>
    <rect class="day" x="92" y="118" width="22" height="22" fill="#ebedf0"/>
    <rect class="day" x="92" y="144" width="22" height="22" fill="#ebedf0"/>
    <rect class="day" x="92" y="170" width="22" height="22" fill="#ebedf0"/>
    <rect class="day" x="92" y="196" width="22" height="22" fill="#ebedf0"/>
    <rect class="day" x="118" y="40" width="22" height="22" fill="#ebedf0"/>
    <rect class="day" x="118" y="66" width="22" height="22" fill="#ebedf0"/>
    <rect class="day" x="118" y="92" width="22" height="22" fill="#ebedf0"/>
    <rect class="day" x="118" y="118" width="22" height="22" fill="#ebedf0"/>
    <rect class="day" x="118" y="144" width="22" height="22" fill="#ebedf0"/>
    <rect class="day" x="118" y="170" width="22" height="22" fill="#ebedf0"/>
    <rect class="day" x="118" y="196" width="22" height="22" fill="#ebedf0"/>
    <rect class="day" x="144" y="40" width="22" height="22" fill="#ebedf0"/>
    <rect class="day" x="144" y="66" width="22" height="22" fill="#ebedf0"/>
    <rect class="day" x="144" y="92" width="22" height="22" fill="#ebedf0"/>
    <rect class="day" x="144" y="118" width="22" height="22" fill="#ebedf0"/>
    <rect class="day" x="144" y="144" width="22" height="22" fill="#ebedf0"/>
    <rect class="day" x="144" y="170" width="22" height="22" fill="#ebedf0"/>
    <rect class="day" x="144" y="196" width="22" height="22" fill="#ebedf0"/>
    <rect class="day" x="170" y="40" width="22" height="22" fill="#ebedf0"/>
    <rect class="day" x="170" y="66" width="22" height="22" fill="#ebedf0"/>
    <rect class="day" x="170" y="92" width="22" height="22" fill="hsl(60, 100%, 92%)"/>
    <rect class="day" x="170" y="118" width="22" height="22" fill="#ebedf0"/>
    <rect class="day" x="170" y="144" width="22" height="22" fill="#ebedf0"/>
    <rect class="day" x="170" y="170" width="22" height="22" fill="#ebedf0"/>
    <rect class="day" x="170" y="196" width="22" height="22" fill="#ebedf0"/>
    <rect class="day" x="196" y="40" width="22" height="22" fill="#ebedf0"/>
    <rect class="day" x="196" y="66" width="22" height="22" fill="#ebedf0"/>
    <rect class="day" x="196" y="92" width="22" height="22" fill="#ebedf0"/>
    <rect class="day" x="196" y="118" width="22" height="22" fill="#ebedf0"/>
    <rect class="day" x="196" y="144" width="22" height="22" fill="#ebedf0"/>
    <rect class="day" x="196" y="170" width="22" height="22" fill="#ebedf0"/>
    <rect class="day" x="196" y="196" width="22" height="22" fill="#ebedf0"/>
    <rect class="day" x="222" y="40" width="22" height="22" fill="#ebedf0"/>
    <rect class="day" x="222" y="66" width="22" height="22" fill="#ebedf0"/>
    <rect class="day" x="222" y="92" width="22" height="22" fill="#ebedf0"/>
    <rect class="day" x="222" y="118" width="22" height="22" fill="#ebedf0"/>
    <rect class="day" x="222" y="144" width="22" height="22" fill="#ebedf0"/>
    <rect class="day" x="222" y="170" width="22" height="22" fill="#ebedf0"/>
    <rect class="day" x="222" y="196" width="22" height="22" fill="#ebedf0"/>
    <rect class="day" x="248" y="40" width="22" height="22" fill="#ebedf0"/>
    <rect class="day" x="248" y="66" width="22" height="22" fill="#ebedf0"/>
    <rect class="day" x="248" y="92" width="22" height="22" fill="hsl(60, 100%, 92%)"/>
    <rect class="day" x="248" y="118" width="22" height="22" fill="#ebedf0"/>
    <rect class="day" x="248" y="144" width="22" height="22" fill="#ebedf0"/>
    <rect class="day" x="248" y="170" width="22" height="22" fill="#ebedf0"/>
    <rect class="day" x="248" y="196" width="22" height="22" fill="#ebedf0"/>
    <rect class="day" x="274" y="40" width="22" height="22" fill="#ebedf0"/>
    <rect class="day" x="274" y="66" width="22" height="22" fill="hsl(60, 100%, 92%)"/>
    <rect class="day" x="274" y="92" width="22" height="22" fill="hsl(60, 100%, 92%)"/>
    <rect class="day" x="274" y="118" width="22" height="22" fill="hsl(60, 100%, 92%)"/>
    <rect class="day" x="274" y="144" width="22" height="22" fill="hsl(60, 100%, 92%)"/>
    <rect class="day" x="274" y="170" width="22" height="22" fill="#ebedf0"/>
    <rect class="day" x="274" y="196" width="22" height="22" fill="#ebedf0"/>
    <rect class="day" x="300" y="40" width="22" height="22" fill="hsl(60, 100%, 92%)"/>
    <rect class="day" x="300" y="66" width="22" height="22" fill="hsl(60, 100%, 92%)"/>
    <rect class="day" x="300" y="92" width="22" height="22" fill="hsl(60, 100%, 92%)"/>
    <rect class="day" x="300" y="118" width="22" height="22" fill="#ebedf0"/>
    <rect class="day" x="300" y="144" width="22" height="22" fill="#ebedf0"/>
    <rect class="day" x="300" y="170" width="22" height="22" fill="#ebedf0"/>
    <rect class="day" x="300" y="196" width="22" height="22" fill="#ebedf0"/>
    <rect class="day" x="326" y="40" width="22" height="22" fill="hsl(60, 100%, 92%)"/>
    <rect class="day" x="326" y="66" width="22" height="22" fill="hsl(60, 100%, 92%)"/>
    <rect class="day" x="326" y="92" width="22" height="22" fill="#FFD700"/>
    <rect class="day" x="326" y="118" width="22" height="22" fill="hsl(60, 100%, 92%)"/>
    <rect class="day" x="326" y="144" width="22" height="22" fill="hsl(60, 100%, 92%)"/>
    <rect class="day" x="326" y="170" width="22" height="22" fill="hsl(60, 100%, 92%)"/>
    <rect class="day" x="326" y="196" width="22" height="22" fill="#ebedf0"/>
    <rect class="day" x="352" y="40" width="22" height="22" fill="hsl(60, 100%, 92%)"/>
    <rect class="day" x="352" y="66" width="22" height="22" fill="hsl(60, 100%, 92%)"/>
    <rect class="day" x="352" y="92" width="22" height="22" fill="hsl(60, 100%, 92%)"/>
    <rect class="day" x="352" y="118" width="22" height="22" fill="#ebedf0"/>
    <rect class="day" x="352" y="144" width="22" height="22" fill="rgb(255,100,40)"/>
    <rect class="day" x="352" y="170" width="22" height="22" fill="hsl(60, 100%, 92%)"/>
    <rect class="day" x="352" y="196" width="22" height="22" fill="hsl(60, 100%, 92%)"/>
    <rect class="day" x="378" y="40" width="22" height="22" fill="#ebedf0"/>
    <rect class="day" x="378" y="66" width="22" height="22" fill="#ebedf0"/>
    <rect class="day" x="378" y="92" width="22" height="22" fill="#ebedf0"/>
    <rect class="day" x="378" y="118" width="22" height="22" fill="#ebedf0"/>
    <rect class="day" x="378" y="144" width="22" height="22" fill="hsl(60, 100%, 92%)"/>
    <rect class="day" x="378" y="170" width="22" height="22" fill="#ffff3e"/>
    <rect class="day" x="378" y="196" width="22" height="22" fill="#ffff3e"/>
    <rect class="day" x="404" y="40" width="22" height="22" fill="#ebedf0"/>
    <rect class="day" x="404" y="66" width="22" height="22" fill="#ebedf0"/>
    <rect class="day" x="404" y="92" width="22" height="22" fill="#ebedf0"/>
    <rect class="day" x="404" y="118" width="22" height="22" fill="#ffff3e"/>
    <rect class="day" x="404" y="144" width="22" height="22" fill="hsl(60, 100%, 92%)"/>
    <rect class="day" x="404" y="170" width="22" height="22" fill="hsl(60, 100%, 92%)"/>
    <rect class="day" x="404" y="196" width="22" height="22" fill="#ebedf0"/>
    <rect class="day" x="430" y="40" width="22" height="22" fill="#ebedf0"/>
    <rect class="day" x="430" y="66" width="22" height="22" fill="#ffff3e"/>
    <rect class="day" x="430" y="92" width="22" height="22" fill="rgb(255,100,40)"/>
    <rect class="day" x="430" y="118" width="22" height="22" fill="#ffff3e"/>
    <rect class="day" x="430" y="144" width="22" height="22" fill="hsl(60, 100%, 92%)"/>
    <rect class="day" x="430" y="170" width="22" height="22" fill="hsl(60, 100%, 92%)"/>
    <rect class="day" x="430" y="196" width="22" height="22" fill="rgb(255,100,40)"/>
    <rect class="day" x="456" y="40" width="22" height="22" fill="#ffff3e"/>
    <rect class="day" x="456" y="66" width="22" height="22" fill="#ffff3e"/>
    <rect class="day" x="456" y="92" width="22" height="22" fill="#FFD700"/>
    <rect class="day" x="456" y="144" width="22" height="22" fill="#FFD700"/>
    <rect class="day" x="456" y="170" width="22" height="22" fill="rgb(255,60,30)"/>
    <rect class="day" x="456" y="196" width="22" height="22" fill="#ebedf0"/>
    <rect class="day" x="482" y="40" width="22" height="22" fill="#ebedf0"/>
    <rect class="day" x="482" y="66" width="22" height="22" fill="#ebedf0"/>
    <rect class="day" x="482" y="92" width="22" height="22" fill="#ffff3e"/>
    <rect class="day" x="482" y="118" width="22" height="22" fill="#ebedf0"/>
    <rect class="day" x="482" y="144" width="22" height="22" fill="#ebedf0"/>
    <rect class="day" x="482" y="170" width="22" height="22" fill="rgb(255,130,60)"/>
    <rect class="day" x="482" y="196" width="22" height="22" fill="hsl(60, 100%, 92%)"/>
    <rect class="day" x="508" y="40" width="22" height="22" fill="#ebedf0"/>
    <rect class="day" x="508" y="66" width="22" height="22" fill="#ebedf0"/>
    <rect class="day" x="508" y="92" width="22" height="22" fill="#ebedf0"/>
    <rect class="day" x="508" y="118" width="22" height="22" fill="#ebedf0"/>
    <rect class="day" x="508" y="144" width="22" height="22" fill="#ebedf0"/>
    <rect class="day" x="508" y="170" width="22" height="22" fill="#ebedf0"/>
    <rect class="day" x="508" y="196" width="22" height="22" fill="#ebedf0"/>
    <rect class="day" x="534" y="40" width="22" height="22" fill="#ebedf0"/>
    <rect class="day" x="534" y="66" width="22" height="22" fill="hsl(60, 100%, 92%)"/>
    <rect class="day" x="534" y="92" width="22" height="22" fill="#ebedf0"/>
    <rect class="day" x="534" y="118" width="22" height="22" fill="hsl(60, 100%, 92%)"/>
    <rect class="day" x="534" y="144" width="22" height="22" fill="#ebedf0"/>
    <rect class="day" x="534" y="170" width="22" height="22" fill="hsl(60, 100%, 92%)"/>
    <rect class="day" x="534" y="196" width="22" height="22" fill="#ebedf0"/>
    <rect class="day" x="560" y="40" width="22" height="22" fill="hsl(60, 100%, 92%)"/>
    <rect class="day" x="560" y="66" width="22" height="22" fill="hsl(60, 100%, 92%)"/>
    <rect class="day" x="560" y="92" width="22" height="22" fill="hsl(60, 100%, 92%)"/>
    <rect class="day" x="560" y="118" width="22" height="22" fill="#ebedf0"/>
    <rect class="day" x="560" y="144" width="22" height="22" fill="#ffff3e"/>
    <rect class="day" x="560" y="170" width="22" height="22" fill="hsl(60, 100%, 92%)"/>
    <rect class="day" x="560" y="196" width="22" height="22" fill="#ebedf0"/>
    <rect class="day" x="586" y="40" width="22" height="22" fill="#ebedf0"/>
    <rect class="day" x="586" y="66" width="22" height="22" fill="hsl(60, 100%, 92%)"/>
    <rect class="day" x="586" y="92" width="22" height="22" fill="#ebedf0"/>
    <rect class="day" x="586" y="118" width="22" height="22" fill="#ebedf0"/>
    <rect class="day" x="586" y="144" width="22" height="22" fill="#ffff3e"/>
    <rect class="day" x="586" y="170" width="22" height="22" fill="#ffff3e"/>
    <rect class="day" x="586" y="196" width="22" height="22" fill="#ebedf0"/>
    <rect class="day" x="612" y="40" width="22" height="22" fill="hsl(60, 100%, 92%)"/>
    <rect class="day" x="612" y="66" width="22" height="22" fill="hsl(60, 100%, 92%)"/>
    <rect class="day" x="612" y="92" width="22" height="22" fill="hsl(60, 100%, 92%)"/>
    <rect class="day" x="612" y="170" width="22" height="22" fill="#ffff3e"/>
    <rect class="day" x="612" y="196" width="22" height="22" fill="#ebedf0"/>
    <rect class="day" x="638" y="40" width="22" height="22" fill="hsl(60, 100%, 92%)"/>
    <rect class="day" x="638" y="66" width="22" height="22" fill="#FFD700"/>
    <rect class="day" x="638" y="92" width="22" height="22" fill="#ebedf0"/>
    <rect class="day" x="638" y="118" width="22" height="22" fill="rgb(255,100,40)"/>
    <rect class="day" x="638" y="144" width="22" height="22" fill="rgb(255,160,90)"/>
    <rect class="day" x="638" y="170" width="22" height="22" fill="#ebedf0"/>
    <rect class="day" x="638" y="196" width="22" height="22" fill="#ffff3e"/>
    <rect class="day" x="664" y="40" width="22" height="22" fill="#ebedf0"/>
    <rect class="day" x="664" y="66" width="22" height="22" fill="hsl(60, 100%, 92%)"/>
    <rect class="day" x="664" y="92" width="22" height="22" fill="hsl(60, 100%, 92%)"/>
    <rect class="day" x="664" y="118" width="22" height="22" fill="hsl(60, 100%, 92%)"/>
    <rect class="day fire-white" x="456" y="118" width="22" height="22" fill="url(#fireGradientWhite)"/>
    <path class="lightning" d="M 467.0,113 L 466.4429941208888,122.4 L 464.41220683343903,126.8 L 465.8619522518559,131.2 L 470.580398282813,135.6 L 467.0,145" style="animation-delay: 1.6759007015988892s;"/>
    <rect class="day fire-white" x="612" y="118" width="22" height="22" fill="url(#fireGradientWhite)"/>
    <path class="lightning" d="M 623.0,113 L 626.4724563981932,122.4 L 623.2326484034494,126.8 L 626.2129402378696,131.2 L 624.9980745355234,135.6 L 623.0,145" style="animation-delay: 1.9636227258876195s;"/>
    <rect class="day fire-white" x="612" y="144" width="22" height="22" fill="url(#fireGradientWhite)"/>
    <path class="lightning" d="M 623.0,139 L 626.783757936949,148.4 L 627.0590073485845,152.8 L 621.5372005408656,157.2 L 623.7636666732226,161.6 L 623.0,171" style="animation-delay: 1.426596985079538s;"/>

    <defs>
        <!-- Gradiente Fogo Vermelho -->
        <linearGradient id="fireGradientRed" x1="0%" y1="100%" x2="100%" y2="0%">
            <stop offset="0%" style="stop-color:#ff0000;stop-opacity:1">
                <animate attributeName="stop-color" values="#ff0000;#cc0000;#ff0000" dur="2s" repeatCount="indefinite"/>
            </stop>
            <stop offset="40%" style="stop-color:#ff4400;stop-opacity:1">
                <animate attributeName="stop-color" values="#ff4400;#ff6600;#ff4400" dur="2s" repeatCount="indefinite"/>
            </stop>
            <stop offset="70%" style="stop-color:#ff8800;stop-opacity:1">
                <animate attributeName="stop-color" values="#ff8800;#ffaa00;#ff8800" dur="2s" repeatCount="indefinite"/>
            </stop>
            <stop offset="100%" style="stop-color:#ffff00;stop-opacity:1">
                <animate attributeName="stop-color" values="#ffff00;#ffcc00;#ffff00" dur="2s" repeatCount="indefinite"/>
            </stop>
        </linearGradient>
        
        
        <!-- Gradiente Fogo Branco (Alto Contraste) -->
        <linearGradient id="fireGradientWhite" x1="0%" y1="100%" x2="100%" y2="0%">
            <stop offset="0%" style="stop-color:#ff0000;stop-opacity:1">
                <animate attributeName="stop-color" values="#ff0000;#cc0000;#ff0000" dur="1.5s" repeatCount="indefinite"/>
            </stop>
            <stop offset="30%" style="stop-color:#ff6600;stop-opacity:1">
                <animate attributeName="stop-color" values="#ff6600;#ff8800;#ff6600" dur="1.5s" repeatCount="indefinite"/>
            </stop>
            <stop offset="60%" style="stop-color:#ffdd00;stop-opacity:1">
                <animate attributeName="stop-color" values="#ffdd00;#ffff00;#ffdd00" dur="1.5s" repeatCount="indefinite"/>
            </stop>
            <stop offset="100%" style="stop-color:#ffffff;stop-opacity:1">
                <animate attributeName="stop-color" values="#ffffff;#ffffcc;#ffffff" dur="1.5s" repeatCount="indefinite"/>
            </stop>
        </linearGradient>
    </defs>
    
    <!-- Legenda -->
    <g transform="translate(40, 252)">
        <text y="15">Menos</text>
        <rect x="40" width="22" height="22" fill="#ebedf0" rx="2"/>
        <rect x="64" width="22" height="22" fill="hsl(60, 100%, 92%)" rx="2"/>
        <rect x="88" width="22" height="22" fill="#ffff3e" rx="2"/>
        <rect x="112" width="22" height="22" fill="#FFD700" rx="2"/>
        <rect x="136" width="22" height="22" fill="rgb(255,160,90)" rx="2"/>
        <rect x="160" width="22" height="22" fill="rgb(255,130,60)" rx="2"/>
        <rect x="184" width="22" height="22" fill="rgb(255,100,40)" rx="2"/>
        <rect x="208" width="22" height="22" fill="rgb(255,60,30)" rx="2"/>
        <rect class="day fire-red" x="232" width="22" height="22" fill="url(#fireGradientRed)" rx="2"/>
        <rect class="day fire-white" x="256" width="22" height="22" fill="url(#fireGradientWhite)" rx="2"/>
        <text x="290" y="15">Mais 🔥⚡</text>
    </g>
</svg>