<svg width="100%" viewBox="0 0 730 322" xmlns="http://www.w3.org/2000/svg">
    <style>
        .day { rx: 2; ry: 2; transition: all 0.2s; }
        .day:hover { stroke: #ff6b00; stroke-width: 2; }
        text { font-family: -apple-system, BlinkMacSystemFont, "Segoe UI", Helvetica, Arial, sans-serif, "Apple Color Emoji", "Segoe UI Emoji"; font-size: 10px; fill: #24292f; }
        
        /* Fogo Vermelho (Nível 8) - Intensidade Reduzida */
        .fire-red { 
            rx: 2;
            animation: pulseFireRed 2s ease-in-out infinite;
            filter: drop-shadow(0 0 6px rgba(255, 100, 0, 0.6));
        }
        
        @keyframes pulseFireRed {
            0% { 
                filter: 
                    drop-shadow(0 -3px 6px rgba(255, 0, 0, 0.8))
                    drop-shadow(0 -6px 12px rgba(255, 100, 0, 0.6))
                    drop-shadow(0 -10px 18px rgba(255, 150, 0, 0.4));
            }
            50% { 
                filter: 
                    drop-shadow(0 -5px 10px rgba(255, 0, 0, 0.9))
                    drop-shadow(0 -10px 20px rgba(255, 100, 0, 0.7))
                    drop-shadow(0 -15px 28px rgba(255, 200, 0, 0.5));
            }
            100% { 
                filter: 
                    drop-shadow(0 -3px 6px rgba(255, 0, 0, 0.8))
                    drop-shadow(0 -6px 12px rgba(255, 100, 0, 0.6))
                    drop-shadow(0 -10px 18px rgba(255, 150, 0, 0.4));
            }
        }
        
        /* Fogo Azul (Nível 9) - Super Intenso com Alto Contraste */
        .fire-blue { 
            rx: 2;
            animation: pulseFireBlue 1.5s ease-in-out infinite;
            filter: drop-shadow(0 0 15px rgba(0, 150, 255, 1));
        }
        
        @keyframes pulseFireBlue {
            0% { 
                filter: 
                    drop-shadow(0 -6px 12px rgba(0, 50, 200, 1))
                    drop-shadow(0 -12px 24px rgba(0, 150, 255, 1))
                    drop-shadow(0 -20px 40px rgba(100, 220, 255, 0.9));
            }
            50% { 
                filter: 
                    drop-shadow(0 -10px 20px rgba(0, 30, 180, 1))
                    drop-shadow(0 -20px 40px rgba(0, 180, 255, 1))
                    drop-shadow(0 -30px 60px rgba(150, 240, 255, 1));
            }
            100% { 
                filter: 
                    drop-shadow(0 -6px 12px rgba(0, 50, 200, 1))
                    drop-shadow(0 -12px 24px rgba(0, 150, 255, 1))
                    drop-shadow(0 -20px 40px rgba(100, 220, 255, 0.9));
            }
        }
        
        /* Fagulhas Vermelhas (Fogo Vermelho) */
        .spark-red {
            fill: #ffaa00;
            opacity: 0;
            animation: sparkFlyRed 1.5s ease-out infinite;
        }
        
        @keyframes sparkFlyRed {
            0% {
                opacity: 1;
                transform: translateY(0) scale(1);
            }
            50% {
                opacity: 0.7;
            }
            100% {
                opacity: 0;
                transform: translateY(var(--ty)) scale(0.2);
            }
        }
        
        /* Fagulhas Azuis (Fogo Azul) - Pequenas e Dispersas */
        .spark-blue {
            opacity: 0;
            animation: sparkFlyBlue 1.5s ease-out infinite;
        }
        
        @keyframes sparkFlyBlue {
            0% {
                opacity: 0.9;
                transform: translate(0, 0) scale(1);
                fill: #66AAFF;
            }
            30% {
                opacity: 0.8;
                fill: #44CCFF;
            }
            70% {
                opacity: 0.4;
                fill: #88EEFF;
            }
            100% {
                opacity: 0;
                transform: translate(var(--tx), var(--ty)) scale(0.3);
                fill: #CCFFFF;
            }
        }
    </style>
    <rect width="730" height="322" fill="#ffffff" rx="6"/>
    
    <!-- Título -->
    <text x="15" y="25" fill="#24292f" font-size="12" font-weight="400">
        <tspan fill="#ff6b00" font-weight="600">235</tspan> contribuições nos últimos 6 meses
    </text>
    
    <!-- Labels dos dias -->
    <text x="25" y="82" text-anchor="end">Seg</text>
    <text x="25" y="134" text-anchor="end">Qua</text>
    <text x="25" y="186" text-anchor="end">Sex</text>
    <text x="40" y="35">Ago</text>
    <text x="144" y="35">Set</text>
    <text x="248" y="35">Out</text>
    <text x="352" y="35">Nov</text>
    <text x="482" y="35">Dez</text>
    <text x="586" y="35">Jan</text>
    <rect class="day" x="40" y="40" width="22" height="22" fill="#ebedf0"/>
    <rect class="day" x="40" y="66" width="22" height="22" fill="#ebedf0"/>
    <rect class="day" x="40" y="92" width="22" height="22" fill="#ebedf0"/>
    <rect class="day" x="40" y="118" width="22" height="22" fill="#ebedf0"/>
    <rect class="day" x="40" y="144" width="22" height="22" fill="#ebedf0"/>
    <rect class="day" x="40" y="170" width="22" height="22" fill="#ebedf0"/>
    <rect class="day" x="40" y="196" width="22" height="22" fill="#ebedf0"/>
    <rect class="day" x="66" y="40" width="22" height="22" fill="#ebedf0"/>
    <rect class="day" x="66" y="66" width="22" height="22" fill="#ebedf0"/>
    <rect class="day" x="66" y="92" width="22" height="22" fill="#ebedf0"/>
    <rect class="day" x="66" y="118" width="22" height="22" fill="#ebedf0"/>
    <rect class="day" x="66" y="144" width="22" height="22" fill="#ebedf0"/>
    <rect class="day" x="66" y="170" width="22" height="22" fill="#ebedf0"/>
    <rect class="day" x="66" y="196" width="22" height="22" fill="#ebedf0"/>
    <rect class="day" x="92" y="40" width="22" height="22" fill="#ebedf0"/>
    <rect class="day" x="92" y="66" width="22" height="22" fill="#ebedf0"/>
    <rect class="day" x="92" y="92" width="22" height="22" fill="#ebedf0"/>
    <rect class="day" x="92" y="118" width="22" height="22" fill="#ebedf0"/>
    <rect class="day" x="92" y="144" width="22" height="22" fill="hsl(60, 100%, 92%)"/>
    <rect class="day" x="92" y="170" width="22" height="22" fill="#ebedf0"/>
    <rect class="day" x="92" y="196" width="22" height="22" fill="#ebedf0"/>
    <rect class="day" x="118" y="40" width="22" height="22" fill="#ebedf0"/>
    <rect class="day" x="118" y="66" width="22" height="22" fill="#ebedf0"/>
    <rect class="day" x="118" y="92" width="22" height="22" fill="#ebedf0"/>
    <rect class="day" x="118" y="118" width="22" height="22" fill="hsl(60, 100%, 92%)"/>
    <rect class="day" x="118" y="144" width="22" height="22" fill="#ebedf0"/>
    <rect class="day" x="118" y="170" width="22" height="22" fill="#ebedf0"/>
    <rect class="day" x="118" y="196" width="22" height="22" fill="#ebedf0"/>
    <rect class="day" x="144" y="40" width="22" height="22" fill="#ebedf0"/>
    <rect class="day" x="144" y="66" width="22" height="22" fill="hsl(60, 100%, 92%)"/>
    <rect class="day" x="144" y="92" width="22" height="22" fill="#ebedf0"/>
    <rect class="day" x="144" y="118" width="22" height="22" fill="#ebedf0"/>
    <rect class="day" x="144" y="144" width="22" height="22" fill="#ebedf0"/>
    <rect class="day" x="144" y="170" width="22" height="22" fill="#ebedf0"/>
    <rect class="day" x="144" y="196" width="22" height="22" fill="#ebedf0"/>
    <rect class="day" x="170" y="40" width="22" height="22" fill="#ebedf0"/>
    <rect class="day" x="170" y="66" width="22" height="22" fill="#ebedf0"/>
    <rect class="day" x="170" y="92" width="22" height="22" fill="#ebedf0"/>
    <rect class="day" x="170" y="118" width="22" height="22" fill="#ebedf0"/>
    <rect class="day" x="170" y="144" width="22" height="22" fill="#ebedf0"/>
    <rect class="day" x="170" y="170" width="22" height="22" fill="#ebedf0"/>
    <rect class="day" x="170" y="196" width="22" height="22" fill="#ebedf0"/>
    <rect class="day" x="196" y="40" width="22" height="22" fill="#ebedf0"/>
    <rect class="day" x="196" y="66" width="22" height="22" fill="#ebedf0"/>
    <rect class="day" x="196" y="92" width="22" height="22" fill="#ebedf0"/>
    <rect class="day" x="196" y="118" width="22" height="22" fill="#ebedf0"/>
    <rect class="day" x="196" y="144" width="22" height="22" fill="#ebedf0"/>
    <rect class="day" x="196" y="170" width="22" height="22" fill="#ebedf0"/>
    <rect class="day" x="196" y="196" width="22" height="22" fill="#ebedf0"/>
    <rect class="day" x="222" y="40" width="22" height="22" fill="#ebedf0"/>
    <rect class="day" x="222" y="66" width="22" height="22" fill="#ebedf0"/>
    <rect class="day" x="222" y="92" width="22" height="22" fill="hsl(60, 100%, 92%)"/>
    <rect class="day" x="222" y="118" width="22" height="22" fill="#ebedf0"/>
    <rect class="day" x="222" y="144" width="22" height="22" fill="#ebedf0"/>
    <rect class="day" x="222" y="170" width="22" height="22" fill="#ebedf0"/>
    <rect class="day" x="222" y="196" width="22" height="22" fill="#ebedf0"/>
    <rect class="day" x="248" y="40" width="22" height="22" fill="#ebedf0"/>
    <rect class="day" x="248" y="66" width="22" height="22" fill="#ebedf0"/>
    <rect class="day" x="248" y="92" width="22" height="22" fill="#ebedf0"/>
    <rect class="day" x="248" y="118" width="22" height="22" fill="#ebedf0"/>
    <rect class="day" x="248" y="144" width="22" height="22" fill="#ebedf0"/>
    <rect class="day" x="248" y="170" width="22" height="22" fill="#ebedf0"/>
    <rect class="day" x="248" y="196" width="22" height="22" fill="#ebedf0"/>
    <rect class="day" x="274" y="40" width="22" height="22" fill="#ebedf0"/>
    <rect class="day" x="274" y="66" width="22" height="22" fill="#ebedf0"/>
    <rect class="day" x="274" y="92" width="22" height="22" fill="#ebedf0"/>
    <rect class="day" x="274" y="118" width="22" height="22" fill="#ebedf0"/>
    <rect class="day" x="274" y="144" width="22" height="22" fill="#ebedf0"/>
    <rect class="day" x="274" y="170" width="22" height="22" fill="#ebedf0"/>
    <rect class="day" x="274" y="196" width="22" height="22" fill="#ebedf0"/>
    <rect class="day" x="300" y="40" width="22" height="22" fill="#ebedf0"/>
    <rect class="day" x="300" y="66" width="22" height="22" fill="#ebedf0"/>
    <rect class="day" x="300" y="92" width="22" height="22" fill="hsl(60, 100%, 92%)"/>
    <rect class="day" x="300" y="118" width="22" height="22" fill="#ebedf0"/>
    <rect class="day" x="300" y="144" width="22" height="22" fill="#ebedf0"/>
    <rect class="day" x="300" y="170" width="22" height="22" fill="#ebedf0"/>
    <rect class="day" x="300" y="196" width="22" height="22" fill="#ebedf0"/>
    <rect class="day" x="326" y="40" width="22" height="22" fill="#ebedf0"/>
    <rect class="day" x="326" y="66" width="22" height="22" fill="hsl(60, 100%, 92%)"/>
    <rect class="day" x="326" y="92" width="22" height="22" fill="hsl(60, 100%, 92%)"/>
    <rect class="day" x="326" y="118" width="22" height="22" fill="hsl(60, 100%, 92%)"/>
    <rect class="day" x="326" y="144" width="22" height="22" fill="hsl(60, 100%, 92%)"/>
    <rect class="day" x="326" y="170" width="22" height="22" fill="#ebedf0"/>
    <rect class="day" x="326" y="196" width="22" height="22" fill="#ebedf0"/>
    <rect class="day" x="352" y="40" width="22" height="22" fill="hsl(60, 100%, 92%)"/>
    <rect class="day" x="352" y="66" width="22" height="22" fill="hsl(60, 100%, 92%)"/>
    <rect class="day" x="352" y="92" width="22" height="22" fill="hsl(60, 100%, 92%)"/>
    <rect class="day" x="352" y="118" width="22" height="22" fill="#ebedf0"/>
    <rect class="day" x="352" y="144" width="22" height="22" fill="#ebedf0"/>
    <rect class="day" x="352" y="170" width="22" height="22" fill="#ebedf0"/>
    <rect class="day" x="352" y="196" width="22" height="22" fill="#ebedf0"/>
    <rect class="day" x="378" y="40" width="22" height="22" fill="hsl(60, 100%, 92%)"/>
    <rect class="day" x="378" y="66" width="22" height="22" fill="hsl(60, 100%, 92%)"/>
    <rect class="day" x="378" y="92" width="22" height="22" fill="#FFD700"/>
    <rect class="day" x="378" y="118" width="22" height="22" fill="hsl(60, 100%, 92%)"/>
    <rect class="day" x="378" y="144" width="22" height="22" fill="hsl(60, 100%, 92%)"/>
    <rect class="day" x="378" y="170" width="22" height="22" fill="hsl(60, 100%, 92%)"/>
    <rect class="day" x="378" y="196" width="22" height="22" fill="#ebedf0"/>
    <rect class="day" x="404" y="40" width="22" height="22" fill="hsl(60, 100%, 92%)"/>
    <rect class="day" x="404" y="66" width="22" height="22" fill="hsl(60, 100%, 92%)"/>
    <rect class="day" x="404" y="92" width="22" height="22" fill="hsl(60, 100%, 92%)"/>
    <rect class="day" x="404" y="118" width="22" height="22" fill="hsl(60, 100%, 92%)"/>
    <rect class="day" x="404" y="144" width="22" height="22" fill="rgb(255,130,60)"/>
    <rect class="day" x="404" y="170" width="22" height="22" fill="hsl(60, 100%, 92%)"/>
    <rect class="day" x="404" y="196" width="22" height="22" fill="hsl(60, 100%, 92%)"/>
    <rect class="day" x="430" y="40" width="22" height="22" fill="#ebedf0"/>
    <rect class="day" x="430" y="66" width="22" height="22" fill="#ebedf0"/>
    <rect class="day" x="430" y="92" width="22" height="22" fill="#ebedf0"/>
    <rect class="day" x="430" y="118" width="22" height="22" fill="hsl(60, 100%, 92%)"/>
    <rect class="day" x="430" y="144" width="22" height="22" fill="hsl(60, 100%, 92%)"/>
    <rect class="day" x="430" y="170" width="22" height="22" fill="#ffff3e"/>
    <rect class="day" x="430" y="196" width="22" height="22" fill="#ffff3e"/>
    <rect class="day" x="456" y="40" width="22" height="22" fill="#ebedf0"/>
    <rect class="day" x="456" y="66" width="22" height="22" fill="#ebedf0"/>
    <rect class="day" x="456" y="92" width="22" height="22" fill="#ebedf0"/>
    <rect class="day" x="456" y="118" width="22" height="22" fill="#ffff3e"/>
    <rect class="day" x="456" y="144" width="22" height="22" fill="hsl(60, 100%, 92%)"/>
    <rect class="day" x="456" y="170" width="22" height="22" fill="hsl(60, 100%, 92%)"/>
    <rect class="day" x="456" y="196" width="22" height="22" fill="#ebedf0"/>
    <rect class="day" x="482" y="40" width="22" height="22" fill="#ebedf0"/>
    <rect class="day" x="482" y="66" width="22" height="22" fill="#ffff3e"/>
    <rect class="day" x="482" y="92" width="22" height="22" fill="rgb(255,100,40)"/>
    <rect class="day" x="482" y="118" width="22" height="22" fill="#ffff3e"/>
    <rect class="day" x="482" y="144" width="22" height="22" fill="hsl(60, 100%, 92%)"/>
    <rect class="day" x="482" y="170" width="22" height="22" fill="hsl(60, 100%, 92%)"/>
    <rect class="day" x="482" y="196" width="22" height="22" fill="rgb(255,100,40)"/>
    <rect class="day" x="508" y="40" width="22" height="22" fill="#ffff3e"/>
    <rect class="day" x="508" y="66" width="22" height="22" fill="#ffff3e"/>
    <rect class="day" x="508" y="92" width="22" height="22" fill="#FFD700"/>
    <rect class="day" x="508" y="144" width="22" height="22" fill="#FFD700"/>
    <rect class="day" x="508" y="170" width="22" height="22" fill="rgb(255,60,30)"/>
    <rect class="day" x="508" y="196" width="22" height="22" fill="#ebedf0"/>
    <rect class="day" x="534" y="40" width="22" height="22" fill="#ebedf0"/>
    <rect class="day" x="534" y="66" width="22" height="22" fill="#ebedf0"/>
    <rect class="day" x="534" y="92" width="22" height="22" fill="#ffff3e"/>
    <rect class="day" x="534" y="118" width="22" height="22" fill="#ebedf0"/>
    <rect class="day" x="534" y="144" width="22" height="22" fill="#ebedf0"/>
    <rect class="day" x="534" y="170" width="22" height="22" fill="rgb(255,130,60)"/>
    <rect class="day" x="534" y="196" width="22" height="22" fill="hsl(60, 100%, 92%)"/>
    <rect class="day" x="560" y="40" width="22" height="22" fill="#ebedf0"/>
    <rect class="day" x="560" y="66" width="22" height="22" fill="#ebedf0"/>
    <rect class="day" x="560" y="92" width="22" height="22" fill="#ebedf0"/>
    <rect class="day" x="560" y="118" width="22" height="22" fill="#ebedf0"/>
    <rect class="day" x="560" y="144" width="22" height="22" fill="#ebedf0"/>
    <rect class="day" x="560" y="170" width="22" height="22" fill="#ebedf0"/>
    <rect class="day" x="560" y="196" width="22" height="22" fill="#ebedf0"/>
    <rect class="day" x="586" y="40" width="22" height="22" fill="#ebedf0"/>
    <rect class="day" x="586" y="66" width="22" height="22" fill="hsl(60, 100%, 92%)"/>
    <rect class="day" x="586" y="92" width="22" height="22" fill="#ebedf0"/>
    <rect class="day" x="586" y="118" width="22" height="22" fill="hsl(60, 100%, 92%)"/>
    <rect class="day" x="586" y="144" width="22" height="22" fill="#ebedf0"/>
    <rect class="day" x="586" y="170" width="22" height="22" fill="hsl(60, 100%, 92%)"/>
    <rect class="day" x="586" y="196" width="22" height="22" fill="#ebedf0"/>
    <rect class="day" x="612" y="40" width="22" height="22" fill="hsl(60, 100%, 92%)"/>
    <rect class="day" x="612" y="66" width="22" height="22" fill="#ffff3e"/>
    <rect class="day" x="612" y="92" width="22" height="22" fill="hsl(60, 100%, 92%)"/>
    <rect class="day" x="612" y="118" width="22" height="22" fill="#ebedf0"/>
    <rect class="day" x="612" y="144" width="22" height="22" fill="#ffff3e"/>
    <rect class="day" x="612" y="170" width="22" height="22" fill="hsl(60, 100%, 92%)"/>
    <rect class="day" x="612" y="196" width="22" height="22" fill="#ebedf0"/>
    <rect class="day" x="638" y="40" width="22" height="22" fill="#ebedf0"/>
    <rect class="day" x="638" y="66" width="22" height="22" fill="hsl(60, 100%, 92%)"/>
    <rect class="day" x="638" y="92" width="22" height="22" fill="#ebedf0"/>
    <rect class="day" x="638" y="118" width="22" height="22" fill="hsl(60, 100%, 92%)"/>
    <rect class="day" x="638" y="144" width="22" height="22" fill="#ffff3e"/>
    <rect class="day" x="638" y="170" width="22" height="22" fill="#ffff3e"/>
    <rect class="day" x="638" y="196" width="22" height="22" fill="#ebedf0"/>
    <rect class="day" x="664" y="40" width="22" height="22" fill="hsl(60, 100%, 92%)"/>
    <rect class="day" x="664" y="66" width="22" height="22" fill="hsl(60, 100%, 92%)"/>
    <rect class="day" x="664" y="92" width="22" height="22" fill="hsl(60, 100%, 92%)"/>
    <rect class="day fire-blue" x="508" y="118" width="22" height="22" fill="url(#fireGradientBlue)"/>
    <circle class="spark-blue" cx="518.4164378212447" cy="128.12708315960796" r="0.8" style="--tx: 14.031873745458661px; --ty: -33.39176762266371px; animation-delay: 0.7429022556204016s;"/>
    <circle class="spark-blue" cx="515.4898095090509" cy="129.3648267734651" r="0.8" style="--tx: -12.74287221773387px; --ty: -16.17435408561032px; animation-delay: 0.29889113428597663s;"/>
    <circle class="spark-blue" cx="514.3550725732786" cy="127.46998712025452" r="0.8" style="--tx: 14.988831296647255px; --ty: -37.83074744432596px; animation-delay: 1.1507112226648823s;"/>
    <circle class="spark-blue" cx="517.4539183066692" cy="132.01510536299787" r="0.8" style="--tx: -2.1373265803118517px; --ty: -35.48747067002383px; animation-delay: 0.5408441275890026s;"/>
    <circle class="spark-blue" cx="525.4489102543425" cy="130.79492423245148" r="0.8" style="--tx: 13.792510916681767px; --ty: -25.424391286748943px; animation-delay: 1.2958240433331865s;"/>
    <circle class="spark-blue" cx="520.84081962615" cy="128.3991848729919" r="0.8" style="--tx: 0.3932821397477255px; --ty: -15.837997190174686px; animation-delay: 0.1872038721033022s;"/>
    <circle class="spark-blue" cx="526.3559923002903" cy="130.82936848484206" r="0.8" style="--tx: 11.025179414629154px; --ty: -36.469085986795186px; animation-delay: 0.46263569706111474s;"/>
    <circle class="spark-blue" cx="511.18190396322433" cy="129.00006403540033" r="0.8" style="--tx: 11.566268821787993px; --ty: -15.977577584953263px; animation-delay: 0.9667400677331465s;"/>
    <circle class="spark-blue" cx="519.9603880745761" cy="130.4942215201697" r="0.8" style="--tx: 9.819965492941375px; --ty: -31.527436213183766px; animation-delay: 0.9908533208802283s;"/>
    <circle class="spark-blue" cx="513.2550696948819" cy="131.66881908391758" r="0.8" style="--tx: -3.57642100718086px; --ty: -37.71147044326462px; animation-delay: 1.3841283720332904s;"/>
    <circle class="spark-blue" cx="523.2768843362778" cy="132.86537242605007" r="0.8" style="--tx: 11.196730897811896px; --ty: -21.008257622915384px; animation-delay: 1.2199666155567441s;"/>
    <circle class="spark-blue" cx="515.6096332985458" cy="130.24640404006806" r="0.8" style="--tx: -9.351548780625539px; --ty: -30.687372067396016px; animation-delay: 0.37402071638097595s;"/>
    <rect class="day fire-red" x="664" y="118" width="22" height="22" fill="url(#fireGradientRed)"/>
    <rect class="day fire-red" x="664" y="144" width="22" height="22" fill="url(#fireGradientRed)"/>

    <defs>
        <!-- Gradiente Fogo Vermelho -->
        <linearGradient id="fireGradientRed" x1="0%" y1="100%" x2="100%" y2="0%">
            <stop offset="0%" style="stop-color:#ff0000;stop-opacity:1">
                <animate attributeName="stop-color" values="#ff0000;#cc0000;#ff0000" dur="2s" repeatCount="indefinite"/>
            </stop>
            <stop offset="40%" style="stop-color:#ff4400;stop-opacity:1">
                <animate attributeName="stop-color" values="#ff4400;#ff6600;#ff4400" dur="2s" repeatCount="indefinite"/>
            </stop>
            <stop offset="70%" style="stop-color:#ff8800;stop-opacity:1">
                <animate attributeName="stop-color" values="#ff8800;#ffaa00;#ff8800" dur="2s" repeatCount="indefinite"/>
            </stop>
            <stop offset="100%" style="stop-color:#ffff00;stop-opacity:1">
                <animate attributeName="stop-color" values="#ffff00;#ffcc00;#ffff00" dur="2s" repeatCount="indefinite"/>
            </stop>
        </linearGradient>
        
        
        <!-- Gradiente Fogo Azul (Alto Contraste) -->
        <linearGradient id="fireGradientBlue" x1="0%" y1="100%" x2="100%" y2="0%">
            <stop offset="0%" style="stop-color:#001a80;stop-opacity:1">
                <animate attributeName="stop-color" values="#001a80;#002266;#001a80" dur="1.5s" repeatCount="indefinite"/>
            </stop>
            <stop offset="30%" style="stop-color:#0055cc;stop-opacity:1">
                <animate attributeName="stop-color" values="#0055cc;#0066ff;#0055cc" dur="1.5s" repeatCount="indefinite"/>
            </stop>
            <stop offset="60%" style="stop-color:#0099ff;stop-opacity:1">
                <animate attributeName="stop-color" values="#0099ff;#00ccff;#0099ff" dur="1.5s" repeatCount="indefinite"/>
            </stop>
            <stop offset="100%" style="stop-color:#66ffff;stop-opacity:1">
                <animate attributeName="stop-color" values="#66ffff;#ccffff;#66ffff" dur="1.5s" repeatCount="indefinite"/>
            </stop>
        </linearGradient>
    </defs>
    
    <!-- Legenda -->
    <g transform="translate(40, 242)">
        <text y="15">Menos</text>
        <rect x="40" width="22" height="22" fill="#ebedf0" rx="2"/>
        <rect x="64" width="22" height="22" fill="hsl(60, 100%, 92%)" rx="2"/>
        <rect x="88" width="22" height="22" fill="#ffff3e" rx="2"/>
        <rect x="112" width="22" height="22" fill="#FFD700" rx="2"/>
        <rect x="136" width="22" height="22" fill="rgb(255,160,90)" rx="2"/>
        <rect x="160" width="22" height="22" fill="rgb(255,130,60)" rx="2"/>
        <rect x="184" width="22" height="22" fill="rgb(255,100,40)" rx="2"/>
        <rect x="208" width="22" height="22" fill="rgb(255,60,30)" rx="2"/>
        <rect class="day fire-red" x="232" width="22" height="22" fill="url(#fireGradientRed)" rx="2"/>
        <rect class="day fire-blue" x="256" width="22" height="22" fill="url(#fireGradientBlue)" rx="2"/>
        <text x="290" y="15">Mais 🔥💙</text>
    </g>
</svg>