<svg width="100%" viewBox="0 0 690 272" xmlns="http://www.w3.org/2000/svg">
    <style>
        .day { rx: 2; ry: 2; transition: all 0.2s; }
        .day:hover { stroke: #ff6b00; stroke-width: 2; }
        text { font-family: -apple-system, BlinkMacSystemFont, "Segoe UI", Helvetica, Arial, sans-serif, "Apple Color Emoji", "Segoe UI Emoji"; font-size: 10px; fill: #8b949e; }
        /* Efeito de Fogo Intenso Animado */
        .fire { 
            stroke: #ffae00;
            stroke-width: 1px;
            animation: burn 1.5s ease-in-out infinite alternate;
            rx: 1; /* Quadrado levemente arredondado */
        }
        
        @keyframes burn {
            0% { 
                filter: drop-shadow(0 0 2px #ff0000) drop-shadow(0 0 4px #ff6b00); 
                stroke-opacity: 0.6;
            }
            50% {
                filter: drop-shadow(0 -1px 3px #ff3300) drop-shadow(0 -2px 6px #ff8800);
            }
            100% { 
                filter: drop-shadow(0 -2px 4px #ff0000) drop-shadow(0 -5px 12px #ffae00); 
                stroke-opacity: 1;
            }
        }
    </style>
    <rect width="690" height="272" fill="#0d1117" rx="6"/>
    
    <!-- Título -->
    <text x="15" y="25" fill="#c9d1d9" font-size="12" font-weight="400">
        <tspan fill="#ff6b00" font-weight="600">225</tspan> contribuições nos últimos 6 meses
    </text>
    
    <!-- Labels dos dias -->
    <text x="25" y="82" text-anchor="end">Seg</text>
    <text x="25" y="134" text-anchor="end">Qua</text>
    <text x="25" y="186" text-anchor="end">Sex</text>
    <text x="40" y="35">Ago</text>
    <text x="144" y="35">Set</text>
    <text x="248" y="35">Out</text>
    <text x="352" y="35">Nov</text>
    <text x="482" y="35">Dez</text>
    <text x="586" y="35">Jan</text>
    <rect class="day" x="40" y="40" width="22" height="22" fill="#1a1e2e"/>
    <rect class="day" x="40" y="66" width="22" height="22" fill="#1a1e2e"/>
    <rect class="day" x="40" y="92" width="22" height="22" fill="#1a1e2e"/>
    <rect class="day" x="40" y="118" width="22" height="22" fill="#1a1e2e"/>
    <rect class="day" x="40" y="144" width="22" height="22" fill="#1a1e2e"/>
    <rect class="day" x="40" y="170" width="22" height="22" fill="#1a1e2e"/>
    <rect class="day" x="40" y="196" width="22" height="22" fill="#1a1e2e"/>
    <rect class="day" x="66" y="40" width="22" height="22" fill="#1a1e2e"/>
    <rect class="day" x="66" y="66" width="22" height="22" fill="#1a1e2e"/>
    <rect class="day" x="66" y="92" width="22" height="22" fill="#1a1e2e"/>
    <rect class="day" x="66" y="118" width="22" height="22" fill="#1a1e2e"/>
    <rect class="day" x="66" y="144" width="22" height="22" fill="#1a1e2e"/>
    <rect class="day" x="66" y="170" width="22" height="22" fill="#1a1e2e"/>
    <rect class="day" x="66" y="196" width="22" height="22" fill="#1a1e2e"/>
    <rect class="day" x="92" y="40" width="22" height="22" fill="#1a1e2e"/>
    <rect class="day" x="92" y="66" width="22" height="22" fill="#1a1e2e"/>
    <rect class="day" x="92" y="92" width="22" height="22" fill="#1a1e2e"/>
    <rect class="day" x="92" y="118" width="22" height="22" fill="#1a1e2e"/>
    <rect class="day" x="92" y="144" width="22" height="22" fill="hsl(60, 100%, 92%)"/>
    <rect class="day" x="92" y="170" width="22" height="22" fill="#1a1e2e"/>
    <rect class="day" x="92" y="196" width="22" height="22" fill="#1a1e2e"/>
    <rect class="day" x="118" y="40" width="22" height="22" fill="#1a1e2e"/>
    <rect class="day" x="118" y="66" width="22" height="22" fill="#1a1e2e"/>
    <rect class="day" x="118" y="92" width="22" height="22" fill="#1a1e2e"/>
    <rect class="day" x="118" y="118" width="22" height="22" fill="hsl(60, 100%, 92%)"/>
    <rect class="day" x="118" y="144" width="22" height="22" fill="#1a1e2e"/>
    <rect class="day" x="118" y="170" width="22" height="22" fill="#1a1e2e"/>
    <rect class="day" x="118" y="196" width="22" height="22" fill="#1a1e2e"/>
    <rect class="day" x="144" y="40" width="22" height="22" fill="#1a1e2e"/>
    <rect class="day" x="144" y="66" width="22" height="22" fill="hsl(60, 100%, 92%)"/>
    <rect class="day" x="144" y="92" width="22" height="22" fill="#1a1e2e"/>
    <rect class="day" x="144" y="118" width="22" height="22" fill="#1a1e2e"/>
    <rect class="day" x="144" y="144" width="22" height="22" fill="#1a1e2e"/>
    <rect class="day" x="144" y="170" width="22" height="22" fill="#1a1e2e"/>
    <rect class="day" x="144" y="196" width="22" height="22" fill="#1a1e2e"/>
    <rect class="day" x="170" y="40" width="22" height="22" fill="#1a1e2e"/>
    <rect class="day" x="170" y="66" width="22" height="22" fill="#1a1e2e"/>
    <rect class="day" x="170" y="92" width="22" height="22" fill="#1a1e2e"/>
    <rect class="day" x="170" y="118" width="22" height="22" fill="#1a1e2e"/>
    <rect class="day" x="170" y="144" width="22" height="22" fill="#1a1e2e"/>
    <rect class="day" x="170" y="170" width="22" height="22" fill="#1a1e2e"/>
    <rect class="day" x="170" y="196" width="22" height="22" fill="#1a1e2e"/>
    <rect class="day" x="196" y="40" width="22" height="22" fill="#1a1e2e"/>
    <rect class="day" x="196" y="66" width="22" height="22" fill="#1a1e2e"/>
    <rect class="day" x="196" y="92" width="22" height="22" fill="#1a1e2e"/>
    <rect class="day" x="196" y="118" width="22" height="22" fill="#1a1e2e"/>
    <rect class="day" x="196" y="144" width="22" height="22" fill="#1a1e2e"/>
    <rect class="day" x="196" y="170" width="22" height="22" fill="#1a1e2e"/>
    <rect class="day" x="196" y="196" width="22" height="22" fill="#1a1e2e"/>
    <rect class="day" x="222" y="40" width="22" height="22" fill="#1a1e2e"/>
    <rect class="day" x="222" y="66" width="22" height="22" fill="#1a1e2e"/>
    <rect class="day" x="222" y="92" width="22" height="22" fill="hsl(60, 100%, 92%)"/>
    <rect class="day" x="222" y="118" width="22" height="22" fill="#1a1e2e"/>
    <rect class="day" x="222" y="144" width="22" height="22" fill="#1a1e2e"/>
    <rect class="day" x="222" y="170" width="22" height="22" fill="#1a1e2e"/>
    <rect class="day" x="222" y="196" width="22" height="22" fill="#1a1e2e"/>
    <rect class="day" x="248" y="40" width="22" height="22" fill="#1a1e2e"/>
    <rect class="day" x="248" y="66" width="22" height="22" fill="#1a1e2e"/>
    <rect class="day" x="248" y="92" width="22" height="22" fill="#1a1e2e"/>
    <rect class="day" x="248" y="118" width="22" height="22" fill="#1a1e2e"/>
    <rect class="day" x="248" y="144" width="22" height="22" fill="#1a1e2e"/>
    <rect class="day" x="248" y="170" width="22" height="22" fill="#1a1e2e"/>
    <rect class="day" x="248" y="196" width="22" height="22" fill="#1a1e2e"/>
    <rect class="day" x="274" y="40" width="22" height="22" fill="#1a1e2e"/>
    <rect class="day" x="274" y="66" width="22" height="22" fill="#1a1e2e"/>
    <rect class="day" x="274" y="92" width="22" height="22" fill="#1a1e2e"/>
    <rect class="day" x="274" y="118" width="22" height="22" fill="#1a1e2e"/>
    <rect class="day" x="274" y="144" width="22" height="22" fill="#1a1e2e"/>
    <rect class="day" x="274" y="170" width="22" height="22" fill="#1a1e2e"/>
    <rect class="day" x="274" y="196" width="22" height="22" fill="#1a1e2e"/>
    <rect class="day" x="300" y="40" width="22" height="22" fill="#1a1e2e"/>
    <rect class="day" x="300" y="66" width="22" height="22" fill="#1a1e2e"/>
    <rect class="day" x="300" y="92" width="22" height="22" fill="hsl(60, 100%, 92%)"/>
    <rect class="day" x="300" y="118" width="22" height="22" fill="#1a1e2e"/>
    <rect class="day" x="300" y="144" width="22" height="22" fill="#1a1e2e"/>
    <rect class="day" x="300" y="170" width="22" height="22" fill="#1a1e2e"/>
    <rect class="day" x="300" y="196" width="22" height="22" fill="#1a1e2e"/>
    <rect class="day" x="326" y="40" width="22" height="22" fill="#1a1e2e"/>
    <rect class="day" x="326" y="66" width="22" height="22" fill="hsl(60, 100%, 92%)"/>
    <rect class="day" x="326" y="92" width="22" height="22" fill="hsl(60, 100%, 92%)"/>
    <rect class="day" x="326" y="118" width="22" height="22" fill="hsl(60, 100%, 92%)"/>
    <rect class="day" x="326" y="144" width="22" height="22" fill="hsl(60, 100%, 92%)"/>
    <rect class="day" x="326" y="170" width="22" height="22" fill="#1a1e2e"/>
    <rect class="day" x="326" y="196" width="22" height="22" fill="#1a1e2e"/>
    <rect class="day" x="352" y="40" width="22" height="22" fill="hsl(60, 100%, 92%)"/>
    <rect class="day" x="352" y="66" width="22" height="22" fill="hsl(60, 100%, 92%)"/>
    <rect class="day" x="352" y="92" width="22" height="22" fill="hsl(60, 100%, 92%)"/>
    <rect class="day" x="352" y="118" width="22" height="22" fill="#1a1e2e"/>
    <rect class="day" x="352" y="144" width="22" height="22" fill="#1a1e2e"/>
    <rect class="day" x="352" y="170" width="22" height="22" fill="#1a1e2e"/>
    <rect class="day" x="352" y="196" width="22" height="22" fill="#1a1e2e"/>
    <rect class="day" x="378" y="40" width="22" height="22" fill="hsl(60, 100%, 92%)"/>
    <rect class="day" x="378" y="66" width="22" height="22" fill="hsl(60, 100%, 92%)"/>
    <rect class="day" x="378" y="92" width="22" height="22" fill="#FFD700"/>
    <rect class="day" x="378" y="118" width="22" height="22" fill="hsl(60, 100%, 92%)"/>
    <rect class="day" x="378" y="144" width="22" height="22" fill="hsl(60, 100%, 92%)"/>
    <rect class="day" x="378" y="170" width="22" height="22" fill="hsl(60, 100%, 92%)"/>
    <rect class="day" x="378" y="196" width="22" height="22" fill="#1a1e2e"/>
    <rect class="day" x="404" y="40" width="22" height="22" fill="hsl(60, 100%, 92%)"/>
    <rect class="day" x="404" y="66" width="22" height="22" fill="hsl(60, 100%, 92%)"/>
    <rect class="day" x="404" y="92" width="22" height="22" fill="hsl(60, 100%, 92%)"/>
    <rect class="day" x="404" y="118" width="22" height="22" fill="hsl(60, 100%, 92%)"/>
    <rect class="day" x="404" y="144" width="22" height="22" fill="rgb(255,130,60)"/>
    <rect class="day" x="404" y="170" width="22" height="22" fill="hsl(60, 100%, 92%)"/>
    <rect class="day" x="404" y="196" width="22" height="22" fill="hsl(60, 100%, 92%)"/>
    <rect class="day" x="430" y="40" width="22" height="22" fill="#1a1e2e"/>
    <rect class="day" x="430" y="66" width="22" height="22" fill="#1a1e2e"/>
    <rect class="day" x="430" y="92" width="22" height="22" fill="#1a1e2e"/>
    <rect class="day" x="430" y="118" width="22" height="22" fill="hsl(60, 100%, 92%)"/>
    <rect class="day" x="430" y="144" width="22" height="22" fill="hsl(60, 100%, 92%)"/>
    <rect class="day" x="430" y="170" width="22" height="22" fill="#ffff3e"/>
    <rect class="day" x="430" y="196" width="22" height="22" fill="#ffff3e"/>
    <rect class="day" x="456" y="40" width="22" height="22" fill="#1a1e2e"/>
    <rect class="day" x="456" y="66" width="22" height="22" fill="#1a1e2e"/>
    <rect class="day" x="456" y="92" width="22" height="22" fill="#1a1e2e"/>
    <rect class="day" x="456" y="118" width="22" height="22" fill="#ffff3e"/>
    <rect class="day" x="456" y="144" width="22" height="22" fill="hsl(60, 100%, 92%)"/>
    <rect class="day" x="456" y="170" width="22" height="22" fill="hsl(60, 100%, 92%)"/>
    <rect class="day" x="456" y="196" width="22" height="22" fill="#1a1e2e"/>
    <rect class="day" x="482" y="40" width="22" height="22" fill="#1a1e2e"/>
    <rect class="day" x="482" y="66" width="22" height="22" fill="#ffff3e"/>
    <rect class="day" x="482" y="92" width="22" height="22" fill="rgb(255,100,40)"/>
    <rect class="day" x="482" y="118" width="22" height="22" fill="#ffff3e"/>
    <rect class="day" x="482" y="144" width="22" height="22" fill="hsl(60, 100%, 92%)"/>
    <rect class="day" x="482" y="170" width="22" height="22" fill="hsl(60, 100%, 92%)"/>
    <rect class="day" x="482" y="196" width="22" height="22" fill="rgb(255,100,40)"/>
    <rect class="day" x="508" y="40" width="22" height="22" fill="#ffff3e"/>
    <rect class="day" x="508" y="66" width="22" height="22" fill="#ffff3e"/>
    <rect class="day" x="508" y="92" width="22" height="22" fill="#FFD700"/>
    <rect class="day" x="508" y="144" width="22" height="22" fill="#FFD700"/>
    <rect class="day" x="508" y="170" width="22" height="22" fill="rgb(255,60,30)"/>
    <rect class="day" x="508" y="196" width="22" height="22" fill="#1a1e2e"/>
    <rect class="day" x="534" y="40" width="22" height="22" fill="#1a1e2e"/>
    <rect class="day" x="534" y="66" width="22" height="22" fill="#1a1e2e"/>
    <rect class="day" x="534" y="92" width="22" height="22" fill="#ffff3e"/>
    <rect class="day" x="534" y="118" width="22" height="22" fill="#1a1e2e"/>
    <rect class="day" x="534" y="144" width="22" height="22" fill="#1a1e2e"/>
    <rect class="day" x="534" y="170" width="22" height="22" fill="rgb(255,130,60)"/>
    <rect class="day" x="534" y="196" width="22" height="22" fill="hsl(60, 100%, 92%)"/>
    <rect class="day" x="560" y="40" width="22" height="22" fill="#1a1e2e"/>
    <rect class="day" x="560" y="66" width="22" height="22" fill="#1a1e2e"/>
    <rect class="day" x="560" y="92" width="22" height="22" fill="#1a1e2e"/>
    <rect class="day" x="560" y="118" width="22" height="22" fill="#1a1e2e"/>
    <rect class="day" x="560" y="144" width="22" height="22" fill="#1a1e2e"/>
    <rect class="day" x="560" y="170" width="22" height="22" fill="#1a1e2e"/>
    <rect class="day" x="560" y="196" width="22" height="22" fill="#1a1e2e"/>
    <rect class="day" x="586" y="40" width="22" height="22" fill="#1a1e2e"/>
    <rect class="day" x="586" y="66" width="22" height="22" fill="hsl(60, 100%, 92%)"/>
    <rect class="day" x="586" y="92" width="22" height="22" fill="#1a1e2e"/>
    <rect class="day" x="586" y="118" width="22" height="22" fill="hsl(60, 100%, 92%)"/>
    <rect class="day" x="586" y="144" width="22" height="22" fill="#1a1e2e"/>
    <rect class="day" x="586" y="170" width="22" height="22" fill="hsl(60, 100%, 92%)"/>
    <rect class="day" x="586" y="196" width="22" height="22" fill="#1a1e2e"/>
    <rect class="day" x="612" y="40" width="22" height="22" fill="hsl(60, 100%, 92%)"/>
    <rect class="day" x="612" y="66" width="22" height="22" fill="#ffff3e"/>
    <rect class="day" x="612" y="92" width="22" height="22" fill="hsl(60, 100%, 92%)"/>
    <rect class="day" x="612" y="118" width="22" height="22" fill="#1a1e2e"/>
    <rect class="day" x="612" y="144" width="22" height="22" fill="#ffff3e"/>
    <rect class="day" x="612" y="170" width="22" height="22" fill="hsl(60, 100%, 92%)"/>
    <rect class="day" x="612" y="196" width="22" height="22" fill="#1a1e2e"/>
    <rect class="day" x="638" y="40" width="22" height="22" fill="#1a1e2e"/>
    <rect class="day" x="638" y="66" width="22" height="22" fill="hsl(60, 100%, 92%)"/>
    <rect class="day" x="638" y="92" width="22" height="22" fill="#1a1e2e"/>
    <rect class="day" x="638" y="118" width="22" height="22" fill="hsl(60, 100%, 92%)"/>
    <rect class="day" x="638" y="144" width="22" height="22" fill="#ffff3e"/>
    <rect class="day" x="638" y="170" width="22" height="22" fill="#ffff3e"/>
    <rect class="day" x="638" y="196" width="22" height="22" fill="#1a1e2e"/>
    <rect class="day" x="664" y="40" width="22" height="22" fill="hsl(60, 100%, 92%)"/>
    <rect class="day" x="664" y="66" width="22" height="22" fill="hsl(60, 100%, 92%)"/>
    <rect class="day" x="664" y="92" width="22" height="22" fill="hsl(60, 100%, 92%)"/>
    <rect class="day" x="664" y="144" width="22" height="22" fill="#1a1e2e"/>
    <rect class="day fire" x="508" y="118" width="22" height="22" fill="url(#fireGradient)"/>
    <rect class="day fire" x="664" y="118" width="22" height="22" fill="url(#fireGradient)"/>

    <defs>
        <linearGradient id="fireGradient" x1="0%" y1="100%" x2="100%" y2="0%">
            <stop offset="0%" style="stop-color:#ff0000;stop-opacity:1">
                <animate attributeName="stop-color" values="#ff0000;#bd0000;#ff0000" dur="1s" repeatCount="indefinite"/>
            </stop>
            <stop offset="50%" style="stop-color:#ff5500;stop-opacity:1"/>
            <stop offset="100%" style="stop-color:#ffff00;stop-opacity:1">
                <animate attributeName="stop-color" values="#ffff00;#ffcc00;#ffff00" dur="1s" repeatCount="indefinite"/>
            </stop>
        </linearGradient>
    </defs>
    
    <!-- Legenda -->
    <!-- Legenda -->
    <g transform="translate(40, 242)">
        <text y="15">Menos</text>
        <rect x="40" width="22" height="22" fill="#1a1e2e" rx="2"/>
        <rect x="64" width="22" height="22" fill="hsl(60, 100%, 92%)" rx="2"/>
        <rect x="88" width="22" height="22" fill="#ffff3e" rx="2"/>
        <rect x="112" width="22" height="22" fill="#FFD700" rx="2"/>
        <rect x="136" width="22" height="22" fill="rgb(255,160,90)" rx="2"/>
        <rect x="160" width="22" height="22" fill="rgb(255,130,60)" rx="2"/>
        <rect x="184" width="22" height="22" fill="rgb(255,100,40)" rx="2"/>
        <rect x="208" width="22" height="22" fill="rgb(255,60,30)" rx="2"/>
        <rect class="day fire" x="232" width="22" height="22" fill="url(#fireGradient)" rx="2"/>
        <text x="266" y="15">Mais 🔥</text>
    </g>
</svg>