<svg width="100%" viewBox="0 0 730 302" xmlns="http://www.w3.org/2000/svg">
    <style>
        .day { rx: 2; ry: 2; transition: all 0.2s; }
        .day:hover { stroke: #ff6b00; stroke-width: 2; }
        text { font-family: -apple-system, BlinkMacSystemFont, "Segoe UI", Helvetica, Arial, sans-serif, "Apple Color Emoji", "Segoe UI Emoji"; font-size: 10px; fill: #24292f; }
        
        /* Fogo Vermelho (Nível 8) - Intensidade Reduzida */
        .fire-red { 
            rx: 2;
            // animation: pulseFireRed 2s ease-in-out infinite;
            // filter: drop-shadow(0 0 6px rgba(255, 100, 0, 0.6));
        }
        
        @keyframes pulseFireRed {
            0% { 
                filter: 
                    drop-shadow(0 -3px 6px rgba(255, 0, 0, 0.8))
                    drop-shadow(0 -6px 12px rgba(255, 100, 0, 0.6))
                    drop-shadow(0 -10px 18px rgba(255, 150, 0, 0.4));
            }
            50% { 
                filter: 
                    drop-shadow(0 -5px 10px rgba(255, 0, 0, 0.9))
                    drop-shadow(0 -10px 20px rgba(255, 100, 0, 0.7))
                    drop-shadow(0 -15px 28px rgba(255, 200, 0, 0.5));
            }
            100% { 
                filter: 
                    drop-shadow(0 -3px 6px rgba(255, 0, 0, 0.8))
                    drop-shadow(0 -6px 12px rgba(255, 100, 0, 0.6))
                    drop-shadow(0 -10px 18px rgba(255, 150, 0, 0.4));
            }
        }
        
        /* Fogo Branco (Nível 9) - Super Intenso com Alto Contraste */
        .fire-white { 
            rx: 2;
            animation: pulseFireWhite 1.5s ease-in-out infinite;
            filter: drop-shadow(0 0 15px rgba(255, 255, 255, 1));
        }
        
        @keyframes pulseFireOrange {
            0% {
                filter: 
                drop-shadow(0 -6px 12px rgba(200, 50, 0, 1))
                drop-shadow(0 -12px 24px rgba(255, 255, 255, 1))
                drop-shadow(0 -20px 40px rgba(255, 160, 50, 0.9));
            }
            50% {
                filter: 
                drop-shadow(0 -10px 20px rgba(180, 30, 0, 1))
                drop-shadow(0 -20px 40px rgba(255, 255, 255, 1))
                drop-shadow(0 -30px 60px rgba(255, 200, 80, 1));
            }
            100% {
                filter: 
                drop-shadow(0 -6px 12px rgba(200, 50, 0, 1))
                drop-shadow(0 -12px 24px rgba(255, 255, 255, 1))
                drop-shadow(0 -20px 40px rgba(255, 160, 50, 0.9));
            }
        }
        
        /* Fagulhas Vermelhas (Fogo Vermelho) */
        .spark-red {
            fill: #ffaa00;
            opacity: 0;
            animation: sparkFlyRed 1.5s ease-out infinite;
        }
        
        @keyframes sparkFlyRed {
            0% {
                opacity: 1;
                transform: translateY(0) scale(1);
            }
            50% {
                opacity: 0.7;
            }
            100% {
                opacity: 0;
                transform: translateY(var(--ty)) scale(0.2);
            }
        }
        
        /* Fagulhas Azuis (Fogo Branco) - Pequenas e Dispersas */
        .spark-white {
            opacity: 0;
            animation: sparkFlyWhite 1.5s ease-out infinite;
        }
        
        @keyframes sparkFlyWhite {
            0% {
                opacity: 0.9;
                transform: translate(0, 0) scale(1);
                fill: #ffffff;
            }
            30% {
                opacity: 0.8;
                fill: #ffff00;
            }
            70% {
                opacity: 0.4;
                fill: #ffaa00;
            }
            100% {
                opacity: 0;
                transform: translate(var(--tx), var(--ty)) scale(0.3);
                fill: #ff6600;
            }
        }
        
        /* Raio Elétrico (Neon) */
        .lightning {
            stroke: #FFFFFF;
            stroke-width: 1.5;
            fill: none;
            opacity: 0;
            filter: drop-shadow(0 0 4px #00FFFF) drop-shadow(0 0 8px #FFFFFF);
            animation: lightningStrike 2s ease-in-out infinite;
        }
        
        @keyframes lightningStrike {
            0% {
                opacity: 0;
                stroke-width: 0.5;
            }
            10% {
                opacity: 1;
                stroke-width: 2;
                filter: drop-shadow(0 0 8px #00FFFF) drop-shadow(0 0 16px #FFFFFF);
            }
            15% {
                opacity: 0.3;
            }
            20% {
                opacity: 1;
                stroke-width: 2.5;
                filter: drop-shadow(0 0 12px #00FFFF) drop-shadow(0 0 20px #FFFFFF);
            }
            25% {
                opacity: 0;
            }
            100% {
                opacity: 0;
            }
        }
    </style>
    <rect width="730" height="302" fill="#ffffff" rx="6"/>
    
    <!-- Título -->
    <text x="15" y="25" fill="#24292f" font-size="12" font-weight="400">
        <tspan fill="#ff6b00" font-weight="600">934</tspan> contribuições nos últimos 6 meses
    </text>
    
    <!-- Labels dos dias -->
    <text x="25" y="82" text-anchor="end">Seg</text>
    <text x="25" y="134" text-anchor="end">Qua</text>
    <text x="25" y="186" text-anchor="end">Sex</text>
    <text x="40" y="35">Abr</text>
    <text x="144" y="35">Mai</text>
    <text x="274" y="35">Jun</text>
    <text x="378" y="35">Jul</text>
    <text x="482" y="35">Ago</text>
    <text x="612" y="35">Set</text>
    <rect class="day" x="40" y="40" width="22" height="22" fill="#ebedf0"/>
    <rect class="day" x="40" y="66" width="22" height="22" fill="#ebedf0"/>
    <rect class="day" x="40" y="92" width="22" height="22" fill="#ebedf0"/>
    <rect class="day" x="40" y="118" width="22" height="22" fill="hsl(60, 100%, 92%)"/>
    <rect class="day" x="40" y="144" width="22" height="22" fill="#ebedf0"/>
    <rect class="day" x="40" y="170" width="22" height="22" fill="#ebedf0"/>
    <rect class="day" x="40" y="196" width="22" height="22" fill="#ebedf0"/>
    <rect class="day" x="66" y="40" width="22" height="22" fill="#ebedf0"/>
    <rect class="day" x="66" y="66" width="22" height="22" fill="#ebedf0"/>
    <rect class="day" x="66" y="92" width="22" height="22" fill="#ebedf0"/>
    <rect class="day" x="66" y="118" width="22" height="22" fill="#ebedf0"/>
    <rect class="day" x="66" y="144" width="22" height="22" fill="#ebedf0"/>
    <rect class="day" x="66" y="170" width="22" height="22" fill="#ebedf0"/>
    <rect class="day" x="66" y="196" width="22" height="22" fill="#ebedf0"/>
    <rect class="day" x="92" y="40" width="22" height="22" fill="hsl(60, 100%, 92%)"/>
    <rect class="day" x="92" y="66" width="22" height="22" fill="#ebedf0"/>
    <rect class="day" x="92" y="92" width="22" height="22" fill="#ebedf0"/>
    <rect class="day" x="92" y="118" width="22" height="22" fill="#ebedf0"/>
    <rect class="day" x="92" y="144" width="22" height="22" fill="#ebedf0"/>
    <rect class="day" x="92" y="170" width="22" height="22" fill="#ebedf0"/>
    <rect class="day" x="92" y="196" width="22" height="22" fill="#ebedf0"/>
    <rect class="day" x="118" y="40" width="22" height="22" fill="#ebedf0"/>
    <rect class="day" x="118" y="66" width="22" height="22" fill="#ebedf0"/>
    <rect class="day" x="118" y="92" width="22" height="22" fill="#ebedf0"/>
    <rect class="day" x="118" y="118" width="22" height="22" fill="#ebedf0"/>
    <rect class="day" x="118" y="144" width="22" height="22" fill="#ebedf0"/>
    <rect class="day" x="118" y="170" width="22" height="22" fill="#ebedf0"/>
    <rect class="day" x="118" y="196" width="22" height="22" fill="#ebedf0"/>
    <rect class="day" x="144" y="40" width="22" height="22" fill="#ebedf0"/>
    <rect class="day" x="144" y="66" width="22" height="22" fill="#ebedf0"/>
    <rect class="day" x="144" y="92" width="22" height="22" fill="#ebedf0"/>
    <rect class="day" x="144" y="118" width="22" height="22" fill="#ebedf0"/>
    <rect class="day" x="144" y="144" width="22" height="22" fill="#ebedf0"/>
    <rect class="day" x="144" y="170" width="22" height="22" fill="#ebedf0"/>
    <rect class="day" x="144" y="196" width="22" height="22" fill="#ebedf0"/>
    <rect class="day" x="170" y="40" width="22" height="22" fill="#ebedf0"/>
    <rect class="day" x="170" y="66" width="22" height="22" fill="#ebedf0"/>
    <rect class="day" x="170" y="92" width="22" height="22" fill="#ebedf0"/>
    <rect class="day" x="170" y="118" width="22" height="22" fill="#ebedf0"/>
    <rect class="day" x="170" y="144" width="22" height="22" fill="#ebedf0"/>
    <rect class="day" x="170" y="170" width="22" height="22" fill="#ebedf0"/>
    <rect class="day" x="170" y="196" width="22" height="22" fill="hsl(60, 100%, 92%)"/>
    <rect class="day" x="196" y="40" width="22" height="22" fill="#ebedf0"/>
    <rect class="day" x="196" y="66" width="22" height="22" fill="#ebedf0"/>
    <rect class="day" x="196" y="92" width="22" height="22" fill="#ebedf0"/>
    <rect class="day" x="196" y="118" width="22" height="22" fill="#ebedf0"/>
    <rect class="day" x="196" y="144" width="22" height="22" fill="#ebedf0"/>
    <rect class="day" x="196" y="170" width="22" height="22" fill="hsl(60, 100%, 92%)"/>
    <rect class="day" x="196" y="196" width="22" height="22" fill="#ebedf0"/>
    <rect class="day" x="222" y="40" width="22" height="22" fill="#ebedf0"/>
    <rect class="day" x="222" y="66" width="22" height="22" fill="#ebedf0"/>
    <rect class="day" x="222" y="92" width="22" height="22" fill="#ebedf0"/>
    <rect class="day" x="222" y="118" width="22" height="22" fill="#ebedf0"/>
    <rect class="day" x="222" y="144" width="22" height="22" fill="#ebedf0"/>
    <rect class="day" x="222" y="170" width="22" height="22" fill="hsl(60, 100%, 92%)"/>
    <rect class="day" x="222" y="196" width="22" height="22" fill="#ebedf0"/>
    <rect class="day" x="248" y="40" width="22" height="22" fill="#ebedf0"/>
    <rect class="day" x="248" y="66" width="22" height="22" fill="hsl(60, 100%, 92%)"/>
    <rect class="day" x="248" y="92" width="22" height="22" fill="#ebedf0"/>
    <rect class="day" x="248" y="118" width="22" height="22" fill="#ebedf0"/>
    <rect class="day" x="248" y="144" width="22" height="22" fill="#ebedf0"/>
    <rect class="day" x="248" y="170" width="22" height="22" fill="#ebedf0"/>
    <rect class="day" x="248" y="196" width="22" height="22" fill="#ebedf0"/>
    <rect class="day" x="274" y="40" width="22" height="22" fill="#ebedf0"/>
    <rect class="day" x="274" y="66" width="22" height="22" fill="#ebedf0"/>
    <rect class="day" x="274" y="92" width="22" height="22" fill="#ebedf0"/>
    <rect class="day" x="274" y="118" width="22" height="22" fill="#ebedf0"/>
    <rect class="day" x="274" y="144" width="22" height="22" fill="#ebedf0"/>
    <rect class="day" x="274" y="170" width="22" height="22" fill="#ebedf0"/>
    <rect class="day" x="274" y="196" width="22" height="22" fill="#ebedf0"/>
    <rect class="day" x="300" y="40" width="22" height="22" fill="#ebedf0"/>
    <rect class="day" x="300" y="66" width="22" height="22" fill="hsl(60, 100%, 92%)"/>
    <rect class="day" x="300" y="92" width="22" height="22" fill="#ebedf0"/>
    <rect class="day" x="300" y="118" width="22" height="22" fill="hsl(60, 100%, 92%)"/>
    <rect class="day" x="300" y="144" width="22" height="22" fill="#ebedf0"/>
    <rect class="day" x="300" y="170" width="22" height="22" fill="#ebedf0"/>
    <rect class="day" x="300" y="196" width="22" height="22" fill="hsl(60, 100%, 92%)"/>
    <rect class="day" x="326" y="40" width="22" height="22" fill="hsl(60, 100%, 92%)"/>
    <rect class="day" x="326" y="66" width="22" height="22" fill="rgb(255,60,30)"/>
    <rect class="day" x="326" y="92" width="22" height="22" fill="#ffff3e"/>
    <rect class="day" x="326" y="118" width="22" height="22" fill="#ebedf0"/>
    <rect class="day" x="326" y="144" width="22" height="22" fill="#ebedf0"/>
    <rect class="day" x="326" y="170" width="22" height="22" fill="#ebedf0"/>
    <rect class="day" x="326" y="196" width="22" height="22" fill="#ebedf0"/>
    <rect class="day" x="352" y="40" width="22" height="22" fill="#ebedf0"/>
    <rect class="day" x="352" y="66" width="22" height="22" fill="#ebedf0"/>
    <rect class="day" x="352" y="92" width="22" height="22" fill="#ffff3e"/>
    <rect class="day" x="352" y="118" width="22" height="22" fill="#ffff3e"/>
    <rect class="day" x="352" y="144" width="22" height="22" fill="#ebedf0"/>
    <rect class="day" x="352" y="170" width="22" height="22" fill="#ebedf0"/>
    <rect class="day" x="352" y="196" width="22" height="22" fill="#ebedf0"/>
    <rect class="day" x="378" y="40" width="22" height="22" fill="hsl(60, 100%, 92%)"/>
    <rect class="day" x="378" y="66" width="22" height="22" fill="rgb(255,100,40)"/>
    <rect class="day" x="378" y="170" width="22" height="22" fill="hsl(60, 100%, 92%)"/>
    <rect class="day" x="378" y="196" width="22" height="22" fill="#ebedf0"/>
    <rect class="day" x="404" y="40" width="22" height="22" fill="#ffff3e"/>
    <rect class="day" x="404" y="66" width="22" height="22" fill="#ebedf0"/>
    <rect class="day" x="404" y="92" width="22" height="22" fill="hsl(60, 100%, 92%)"/>
    <rect class="day" x="404" y="118" width="22" height="22" fill="hsl(60, 100%, 92%)"/>
    <rect class="day" x="404" y="144" width="22" height="22" fill="#ebedf0"/>
    <rect class="day" x="404" y="170" width="22" height="22" fill="#ebedf0"/>
    <rect class="day" x="404" y="196" width="22" height="22" fill="#ebedf0"/>
    <rect class="day" x="430" y="40" width="22" height="22" fill="#ebedf0"/>
    <rect class="day" x="430" y="66" width="22" height="22" fill="#FFD700"/>
    <rect class="day" x="430" y="92" width="22" height="22" fill="#ffff3e"/>
    <rect class="day" x="430" y="118" width="22" height="22" fill="#ffff3e"/>
    <rect class="day" x="430" y="144" width="22" height="22" fill="#FFD700"/>
    <rect class="day" x="430" y="170" width="22" height="22" fill="#ebedf0"/>
    <rect class="day" x="430" y="196" width="22" height="22" fill="#ebedf0"/>
    <rect class="day" x="456" y="40" width="22" height="22" fill="#ebedf0"/>
    <rect class="day" x="456" y="92" width="22" height="22" fill="rgb(255,160,90)"/>
    <rect class="day" x="456" y="118" width="22" height="22" fill="#FFD700"/>
    <rect class="day" x="456" y="144" width="22" height="22" fill="#ebedf0"/>
    <rect class="day" x="456" y="170" width="22" height="22" fill="hsl(60, 100%, 92%)"/>
    <rect class="day" x="456" y="196" width="22" height="22" fill="#ebedf0"/>
    <rect class="day" x="482" y="40" width="22" height="22" fill="#ebedf0"/>
    <rect class="day" x="482" y="66" width="22" height="22" fill="hsl(60, 100%, 92%)"/>
    <rect class="day" x="482" y="92" width="22" height="22" fill="rgb(255,130,60)"/>
    <rect class="day" x="482" y="118" width="22" height="22" fill="hsl(60, 100%, 92%)"/>
    <rect class="day" x="482" y="170" width="22" height="22" fill="#ebedf0"/>
    <rect class="day" x="482" y="196" width="22" height="22" fill="#ebedf0"/>
    <rect class="day" x="508" y="40" width="22" height="22" fill="#ebedf0"/>
    <rect class="day" x="508" y="66" width="22" height="22" fill="hsl(60, 100%, 92%)"/>
    <rect class="day" x="508" y="170" width="22" height="22" fill="#ebedf0"/>
    <rect class="day" x="508" y="196" width="22" height="22" fill="#ebedf0"/>
    <rect class="day" x="534" y="66" width="22" height="22" fill="hsl(60, 100%, 92%)"/>
    <rect class="day" x="534" y="144" width="22" height="22" fill="rgb(255,100,40)"/>
    <rect class="day" x="534" y="196" width="22" height="22" fill="#ffff3e"/>
    <rect class="day" x="560" y="118" width="22" height="22" fill="rgb(255,160,90)"/>
    <rect class="day" x="586" y="40" width="22" height="22" fill="rgb(255,160,90)"/>
    <rect class="day" x="586" y="196" width="22" height="22" fill="rgb(255,160,90)"/>
    <rect class="day" x="612" y="40" width="22" height="22" fill="#ebedf0"/>
    <rect class="day" x="612" y="144" width="22" height="22" fill="#ffff3e"/>
    <rect class="day" x="612" y="170" width="22" height="22" fill="#ebedf0"/>
    <rect class="day" x="612" y="196" width="22" height="22" fill="rgb(255,160,90)"/>
    <rect class="day" x="638" y="40" width="22" height="22" fill="#ffff3e"/>
    <rect class="day" x="638" y="92" width="22" height="22" fill="rgb(255,130,60)"/>
    <rect class="day" x="638" y="118" width="22" height="22" fill="hsl(60, 100%, 92%)"/>
    <rect class="day" x="638" y="144" width="22" height="22" fill="hsl(60, 100%, 92%)"/>
    <rect class="day" x="638" y="170" width="22" height="22" fill="hsl(60, 100%, 92%)"/>
    <rect class="day" x="638" y="196" width="22" height="22" fill="#ffff3e"/>
    <rect class="day" x="664" y="40" width="22" height="22" fill="rgb(255,160,90)"/>
    <rect class="day" x="664" y="92" width="22" height="22" fill="rgb(255,100,40)"/>
    <rect class="day" x="664" y="118" width="22" height="22" fill="#ebedf0"/>
    <rect class="day fire-red" x="378" y="92" width="22" height="22" fill="url(#fireGradientRed)"/>
    <rect class="day fire-white" x="378" y="118" width="22" height="22" fill="url(#fireGradientWhite)"/>
    <path class="lightning" d="M 389.0,113 L 387.7365413385141,122.4 L 387.0353099970325,126.8 L 390.6064434818525,131.2 L 391.37040227027904,135.6 L 389.0,145" style="animation-delay: 0.37282177127207716s;"/>
    <rect class="day fire-white" x="378" y="144" width="22" height="22" fill="url(#fireGradientWhite)"/>
    <path class="lightning" d="M 389.0,139 L 385.16985639501934,148.4 L 388.1250582281938,152.8 L 389.0251039683845,157.2 L 389.44250337545037,161.6 L 389.0,171" style="animation-delay: 1.7245737425581527s;"/>
    <rect class="day fire-red" x="456" y="66" width="22" height="22" fill="url(#fireGradientRed)"/>
    <rect class="day fire-white" x="482" y="144" width="22" height="22" fill="url(#fireGradientWhite)"/>
    <path class="lightning" d="M 493.0,139 L 492.5601285600665,148.4 L 487.3706374650264,152.8 L 494.31274811323624,157.2 L 495.0726630319706,161.6 L 493.0,171" style="animation-delay: 1.3598001384349558s;"/>
    <rect class="day fire-red" x="508" y="92" width="22" height="22" fill="url(#fireGradientRed)"/>
    <rect class="day fire-white" x="508" y="118" width="22" height="22" fill="url(#fireGradientWhite)"/>
    <path class="lightning" d="M 519.0,113 L 518.1044136608314,122.4 L 524.4247730409576,126.8 L 516.6216758653609,131.2 L 518.8059562235564,135.6 L 519.0,145" style="animation-delay: 0.9780186784101244s;"/>
    <rect class="day fire-red" x="508" y="144" width="22" height="22" fill="url(#fireGradientRed)"/>
    <rect class="day fire-white" x="534" y="40" width="22" height="22" fill="url(#fireGradientWhite)"/>
    <path class="lightning" d="M 545.0,35 L 546.6018154222778,44.4 L 545.6110099260222,48.8 L 546.9961222769236,53.2 L 548.5666225254728,57.6 L 545.0,67" style="animation-delay: 0.0076467856221276165s;"/>
    <rect class="day fire-white" x="534" y="92" width="22" height="22" fill="url(#fireGradientWhite)"/>
    <path class="lightning" d="M 545.0,87 L 541.9009361449034,96.4 L 547.3667517386941,100.8 L 542.0646448804839,105.2 L 549.6436249090559,109.6 L 545.0,119" style="animation-delay: 1.7042706124271332s;"/>
    <rect class="day fire-white" x="534" y="118" width="22" height="22" fill="url(#fireGradientWhite)"/>
    <path class="lightning" d="M 545.0,113 L 546.7617700854827,122.4 L 550.7271344187789,126.8 L 544.3659250177357,131.2 L 542.7870198752696,135.6 L 545.0,145" style="animation-delay: 1.981229962486197s;"/>
    <rect class="day fire-white" x="534" y="170" width="22" height="22" fill="url(#fireGradientWhite)"/>
    <path class="lightning" d="M 545.0,165 L 545.4951117853093,174.4 L 546.0619296276898,178.8 L 542.5215290475674,183.2 L 545.2661260599929,187.6 L 545.0,197" style="animation-delay: 1.712718716063753s;"/>
    <rect class="day fire-white" x="560" y="40" width="22" height="22" fill="url(#fireGradientWhite)"/>
    <path class="lightning" d="M 571.0,35 L 570.4048398209615,44.4 L 565.5808755423034,48.8 L 567.3000403454528,53.2 L 568.6218246987524,57.6 L 571.0,67" style="animation-delay: 1.6735829278340577s;"/>
    <rect class="day fire-white" x="560" y="66" width="22" height="22" fill="url(#fireGradientWhite)"/>
    <path class="lightning" d="M 571.0,61 L 569.6446241965393,70.4 L 567.1925154007786,74.8 L 574.5265069889174,79.2 L 574.968689840316,83.6 L 571.0,93" style="animation-delay: 0.8199761847156815s;"/>
    <rect class="day fire-white" x="560" y="92" width="22" height="22" fill="url(#fireGradientWhite)"/>
    <path class="lightning" d="M 571.0,87 L 567.4686804833796,96.4 L 575.4502871157905,100.8 L 573.6196200068778,105.2 L 566.5852717409455,109.6 L 571.0,119" style="animation-delay: 1.333267336613981s;"/>
    <rect class="day fire-white" x="560" y="144" width="22" height="22" fill="url(#fireGradientWhite)"/>
    <path class="lightning" d="M 571.0,139 L 569.5866865697628,148.4 L 575.4344103134838,152.8 L 574.0197827531541,157.2 L 566.1207717020028,161.6 L 571.0,171" style="animation-delay: 1.6032909819245809s;"/>
    <rect class="day fire-white" x="560" y="170" width="22" height="22" fill="url(#fireGradientWhite)"/>
    <path class="lightning" d="M 571.0,165 L 569.7752447264999,174.4 L 565.2051310645447,178.8 L 572.6319981547817,183.2 L 571.7437257713942,187.6 L 571.0,197" style="animation-delay: 1.1310456228126091s;"/>
    <rect class="day fire-white" x="560" y="196" width="22" height="22" fill="url(#fireGradientWhite)"/>
    <path class="lightning" d="M 571.0,191 L 574.9733653884444,200.4 L 572.0444844800818,204.8 L 568.5090366430419,209.2 L 568.5141870222023,213.6 L 571.0,223" style="animation-delay: 1.3388688783576281s;"/>
    <rect class="day fire-white" x="586" y="66" width="22" height="22" fill="url(#fireGradientWhite)"/>
    <path class="lightning" d="M 597.0,61 L 596.4214011480664,70.4 L 592.0138945059965,74.8 L 593.33720528109,79.2 L 595.2366163913438,83.6 L 597.0,93" style="animation-delay: 1.824188936702247s;"/>
    <rect class="day fire-white" x="586" y="92" width="22" height="22" fill="url(#fireGradientWhite)"/>
    <path class="lightning" d="M 597.0,87 L 600.4880672697146,96.4 L 600.1756356854111,100.8 L 595.5907798154192,105.2 L 595.5214829761453,109.6 L 597.0,119" style="animation-delay: 0.318038188772106s;"/>
    <rect class="day fire-white" x="586" y="118" width="22" height="22" fill="url(#fireGradientWhite)"/>
    <path class="lightning" d="M 597.0,113 L 595.7640509184898,122.4 L 602.9909639696849,126.8 L 596.8827592939562,131.2 L 599.6199811482003,135.6 L 597.0,145" style="animation-delay: 0.2913932613468828s;"/>
    <rect class="day fire-white" x="586" y="144" width="22" height="22" fill="url(#fireGradientWhite)"/>
    <path class="lightning" d="M 597.0,139 L 598.6419990498109,148.4 L 602.4165412783263,152.8 L 595.7579729617748,157.2 L 601.1139828822,161.6 L 597.0,171" style="animation-delay: 0.28392082974209676s;"/>
    <rect class="day fire-white" x="586" y="170" width="22" height="22" fill="url(#fireGradientWhite)"/>
    <path class="lightning" d="M 597.0,165 L 593.8608292710692,174.4 L 598.9027824851896,178.8 L 593.3972137415643,183.2 L 595.0249745526137,187.6 L 597.0,197" style="animation-delay: 0.7215578274126524s;"/>
    <rect class="day fire-white" x="612" y="66" width="22" height="22" fill="url(#fireGradientWhite)"/>
    <path class="lightning" d="M 623.0,61 L 624.4588168084292,70.4 L 623.4450599812807,74.8 L 619.1290053809953,79.2 L 618.6610332529984,83.6 L 623.0,93" style="animation-delay: 1.2452095744471692s;"/>
    <rect class="day fire-white" x="612" y="92" width="22" height="22" fill="url(#fireGradientWhite)"/>
    <path class="lightning" d="M 623.0,87 L 621.9487706489219,96.4 L 622.1885563259249,100.8 L 623.7697817038903,105.2 L 623.1972932147548,109.6 L 623.0,119" style="animation-delay: 0.9734279320233956s;"/>
    <rect class="day fire-red" x="612" y="118" width="22" height="22" fill="url(#fireGradientRed)"/>
    <rect class="day fire-white" x="638" y="66" width="22" height="22" fill="url(#fireGradientWhite)"/>
    <path class="lightning" d="M 649.0,61 L 649.9789371138594,70.4 L 653.1555989386316,74.8 L 650.4297114009877,79.2 L 649.1352841369072,83.6 L 649.0,93" style="animation-delay: 0.8227780637757656s;"/>
    <rect class="day fire-red" x="664" y="66" width="22" height="22" fill="url(#fireGradientRed)"/>

    <defs>
        <!-- Gradiente Fogo Vermelho -->
        <linearGradient id="fireGradientRed" x1="0%" y1="100%" x2="100%" y2="0%">
            <stop offset="0%" style="stop-color:#ff0000;stop-opacity:1">
                <animate attributeName="stop-color" values="#ff0000;#cc0000;#ff0000" dur="2s" repeatCount="indefinite"/>
            </stop>
            <stop offset="40%" style="stop-color:#ff4400;stop-opacity:1">
                <animate attributeName="stop-color" values="#ff4400;#ff6600;#ff4400" dur="2s" repeatCount="indefinite"/>
            </stop>
            <stop offset="70%" style="stop-color:#ff8800;stop-opacity:1">
                <animate attributeName="stop-color" values="#ff8800;#ffaa00;#ff8800" dur="2s" repeatCount="indefinite"/>
            </stop>
            <stop offset="100%" style="stop-color:#ffff00;stop-opacity:1">
                <animate attributeName="stop-color" values="#ffff00;#ffcc00;#ffff00" dur="2s" repeatCount="indefinite"/>
            </stop>
        </linearGradient>
        
        
        <!-- Gradiente Fogo Branco (Alto Contraste) -->
        <linearGradient id="fireGradientWhite" x1="0%" y1="100%" x2="100%" y2="0%">
            <stop offset="0%" style="stop-color:#ff0000;stop-opacity:1">
                <animate attributeName="stop-color" values="#ff0000;#cc0000;#ff0000" dur="1.5s" repeatCount="indefinite"/>
            </stop>
            <stop offset="30%" style="stop-color:#ff6600;stop-opacity:1">
                <animate attributeName="stop-color" values="#ff6600;#ff8800;#ff6600" dur="1.5s" repeatCount="indefinite"/>
            </stop>
            <stop offset="60%" style="stop-color:#ffdd00;stop-opacity:1">
                <animate attributeName="stop-color" values="#ffdd00;#ffff00;#ffdd00" dur="1.5s" repeatCount="indefinite"/>
            </stop>
            <stop offset="100%" style="stop-color:#ffffff;stop-opacity:1">
                <animate attributeName="stop-color" values="#ffffff;#ffffcc;#ffffff" dur="1.5s" repeatCount="indefinite"/>
            </stop>
        </linearGradient>
    </defs>
    
    <!-- Legenda -->
    <g transform="translate(40, 252)">
        <text y="15">Menos</text>
        <rect x="40" width="22" height="22" fill="#ebedf0" rx="2"/>
        <rect x="64" width="22" height="22" fill="hsl(60, 100%, 92%)" rx="2"/>
        <rect x="88" width="22" height="22" fill="#ffff3e" rx="2"/>
        <rect x="112" width="22" height="22" fill="#FFD700" rx="2"/>
        <rect x="136" width="22" height="22" fill="rgb(255,160,90)" rx="2"/>
        <rect x="160" width="22" height="22" fill="rgb(255,130,60)" rx="2"/>
        <rect x="184" width="22" height="22" fill="rgb(255,100,40)" rx="2"/>
        <rect x="208" width="22" height="22" fill="rgb(255,60,30)" rx="2"/>
        <rect class="day fire-red" x="232" width="22" height="22" fill="url(#fireGradientRed)" rx="2"/>
        <rect class="day fire-white" x="256" width="22" height="22" fill="url(#fireGradientWhite)" rx="2"/>
        <text x="290" y="15">Mais 🔥⚡</text>
    </g>
</svg>