<svg width="100%" viewBox="0 0 730 302" xmlns="http://www.w3.org/2000/svg">
    <style>
        .day { rx: 2; ry: 2; transition: all 0.2s; }
        .day:hover { stroke: #ff6b00; stroke-width: 2; }
        text { font-family: -apple-system, BlinkMacSystemFont, "Segoe UI", Helvetica, Arial, sans-serif, "Apple Color Emoji", "Segoe UI Emoji"; font-size: 10px; fill: #24292f; }
        
        /* Fogo Vermelho (Nível 8) - Intensidade Reduzida */
        .fire-red { 
            rx: 2;
            // animation: pulseFireRed 2s ease-in-out infinite;
            // filter: drop-shadow(0 0 6px rgba(255, 100, 0, 0.6));
        }
        
        @keyframes pulseFireRed {
            0% { 
                filter: 
                    drop-shadow(0 -3px 6px rgba(255, 0, 0, 0.8))
                    drop-shadow(0 -6px 12px rgba(255, 100, 0, 0.6))
                    drop-shadow(0 -10px 18px rgba(255, 150, 0, 0.4));
            }
            50% { 
                filter: 
                    drop-shadow(0 -5px 10px rgba(255, 0, 0, 0.9))
                    drop-shadow(0 -10px 20px rgba(255, 100, 0, 0.7))
                    drop-shadow(0 -15px 28px rgba(255, 200, 0, 0.5));
            }
            100% { 
                filter: 
                    drop-shadow(0 -3px 6px rgba(255, 0, 0, 0.8))
                    drop-shadow(0 -6px 12px rgba(255, 100, 0, 0.6))
                    drop-shadow(0 -10px 18px rgba(255, 150, 0, 0.4));
            }
        }
        
        /* Fogo Branco (Nível 9) - Super Intenso com Alto Contraste */
        .fire-white { 
            rx: 2;
            animation: pulseFireWhite 1.5s ease-in-out infinite;
            filter: drop-shadow(0 0 15px rgba(255, 255, 255, 1));
        }
        
        @keyframes pulseFireOrange {
            0% {
                filter: 
                drop-shadow(0 -6px 12px rgba(200, 50, 0, 1))
                drop-shadow(0 -12px 24px rgba(255, 255, 255, 1))
                drop-shadow(0 -20px 40px rgba(255, 160, 50, 0.9));
            }
            50% {
                filter: 
                drop-shadow(0 -10px 20px rgba(180, 30, 0, 1))
                drop-shadow(0 -20px 40px rgba(255, 255, 255, 1))
                drop-shadow(0 -30px 60px rgba(255, 200, 80, 1));
            }
            100% {
                filter: 
                drop-shadow(0 -6px 12px rgba(200, 50, 0, 1))
                drop-shadow(0 -12px 24px rgba(255, 255, 255, 1))
                drop-shadow(0 -20px 40px rgba(255, 160, 50, 0.9));
            }
        }
        
        /* Fagulhas Vermelhas (Fogo Vermelho) */
        .spark-red {
            fill: #ffaa00;
            opacity: 0;
            animation: sparkFlyRed 1.5s ease-out infinite;
        }
        
        @keyframes sparkFlyRed {
            0% {
                opacity: 1;
                transform: translateY(0) scale(1);
            }
            50% {
                opacity: 0.7;
            }
            100% {
                opacity: 0;
                transform: translateY(var(--ty)) scale(0.2);
            }
        }
        
        /* Fagulhas Azuis (Fogo Branco) - Pequenas e Dispersas */
        .spark-white {
            opacity: 0;
            animation: sparkFlyWhite 1.5s ease-out infinite;
        }
        
        @keyframes sparkFlyWhite {
            0% {
                opacity: 0.9;
                transform: translate(0, 0) scale(1);
                fill: #ffffff;
            }
            30% {
                opacity: 0.8;
                fill: #ffff00;
            }
            70% {
                opacity: 0.4;
                fill: #ffaa00;
            }
            100% {
                opacity: 0;
                transform: translate(var(--tx), var(--ty)) scale(0.3);
                fill: #ff6600;
            }
        }
        
        /* Raio Elétrico (Neon) */
        .lightning {
            stroke: #FFFFFF;
            stroke-width: 1.5;
            fill: none;
            opacity: 0;
            filter: drop-shadow(0 0 4px #00FFFF) drop-shadow(0 0 8px #FFFFFF);
            animation: lightningStrike 2s ease-in-out infinite;
        }
        
        @keyframes lightningStrike {
            0% {
                opacity: 0;
                stroke-width: 0.5;
            }
            10% {
                opacity: 1;
                stroke-width: 2;
                filter: drop-shadow(0 0 8px #00FFFF) drop-shadow(0 0 16px #FFFFFF);
            }
            15% {
                opacity: 0.3;
            }
            20% {
                opacity: 1;
                stroke-width: 2.5;
                filter: drop-shadow(0 0 12px #00FFFF) drop-shadow(0 0 20px #FFFFFF);
            }
            25% {
                opacity: 0;
            }
            100% {
                opacity: 0;
            }
        }
    </style>
    <rect width="730" height="302" fill="#ffffff" rx="6"/>
    
    <!-- Título -->
    <text x="15" y="25" fill="#24292f" font-size="12" font-weight="400">
        <tspan fill="#ff6b00" font-weight="600">876</tspan> contribuições nos últimos 6 meses
    </text>
    
    <!-- Labels dos dias -->
    <text x="25" y="82" text-anchor="end">Seg</text>
    <text x="25" y="134" text-anchor="end">Qua</text>
    <text x="25" y="186" text-anchor="end">Sex</text>
    <text x="40" y="35">Mar</text>
    <text x="66" y="35">Abr</text>
    <text x="170" y="35">Mai</text>
    <text x="300" y="35">Jun</text>
    <text x="404" y="35">Jul</text>
    <text x="508" y="35">Ago</text>
    <text x="638" y="35">Set</text>
    <rect class="day" x="40" y="40" width="22" height="22" fill="hsl(60, 100%, 92%)"/>
    <rect class="day" x="40" y="66" width="22" height="22" fill="#ebedf0"/>
    <rect class="day" x="40" y="92" width="22" height="22" fill="#ebedf0"/>
    <rect class="day" x="40" y="118" width="22" height="22" fill="#ebedf0"/>
    <rect class="day" x="40" y="144" width="22" height="22" fill="#ebedf0"/>
    <rect class="day" x="40" y="170" width="22" height="22" fill="#ebedf0"/>
    <rect class="day" x="40" y="196" width="22" height="22" fill="hsl(60, 100%, 92%)"/>
    <rect class="day" x="66" y="40" width="22" height="22" fill="#ebedf0"/>
    <rect class="day" x="66" y="66" width="22" height="22" fill="#ebedf0"/>
    <rect class="day" x="66" y="92" width="22" height="22" fill="#ebedf0"/>
    <rect class="day" x="66" y="118" width="22" height="22" fill="hsl(60, 100%, 92%)"/>
    <rect class="day" x="66" y="144" width="22" height="22" fill="#ebedf0"/>
    <rect class="day" x="66" y="170" width="22" height="22" fill="#ebedf0"/>
    <rect class="day" x="66" y="196" width="22" height="22" fill="#ebedf0"/>
    <rect class="day" x="92" y="40" width="22" height="22" fill="#ebedf0"/>
    <rect class="day" x="92" y="66" width="22" height="22" fill="#ebedf0"/>
    <rect class="day" x="92" y="92" width="22" height="22" fill="#ebedf0"/>
    <rect class="day" x="92" y="118" width="22" height="22" fill="#ebedf0"/>
    <rect class="day" x="92" y="144" width="22" height="22" fill="#ebedf0"/>
    <rect class="day" x="92" y="170" width="22" height="22" fill="#ebedf0"/>
    <rect class="day" x="92" y="196" width="22" height="22" fill="#ebedf0"/>
    <rect class="day" x="118" y="40" width="22" height="22" fill="hsl(60, 100%, 92%)"/>
    <rect class="day" x="118" y="66" width="22" height="22" fill="#ebedf0"/>
    <rect class="day" x="118" y="92" width="22" height="22" fill="#ebedf0"/>
    <rect class="day" x="118" y="118" width="22" height="22" fill="#ebedf0"/>
    <rect class="day" x="118" y="144" width="22" height="22" fill="#ebedf0"/>
    <rect class="day" x="118" y="170" width="22" height="22" fill="#ebedf0"/>
    <rect class="day" x="118" y="196" width="22" height="22" fill="#ebedf0"/>
    <rect class="day" x="144" y="40" width="22" height="22" fill="#ebedf0"/>
    <rect class="day" x="144" y="66" width="22" height="22" fill="#ebedf0"/>
    <rect class="day" x="144" y="92" width="22" height="22" fill="#ebedf0"/>
    <rect class="day" x="144" y="118" width="22" height="22" fill="#ebedf0"/>
    <rect class="day" x="144" y="144" width="22" height="22" fill="#ebedf0"/>
    <rect class="day" x="144" y="170" width="22" height="22" fill="#ebedf0"/>
    <rect class="day" x="144" y="196" width="22" height="22" fill="#ebedf0"/>
    <rect class="day" x="170" y="40" width="22" height="22" fill="#ebedf0"/>
    <rect class="day" x="170" y="66" width="22" height="22" fill="#ebedf0"/>
    <rect class="day" x="170" y="92" width="22" height="22" fill="#ebedf0"/>
    <rect class="day" x="170" y="118" width="22" height="22" fill="#ebedf0"/>
    <rect class="day" x="170" y="144" width="22" height="22" fill="#ebedf0"/>
    <rect class="day" x="170" y="170" width="22" height="22" fill="#ebedf0"/>
    <rect class="day" x="170" y="196" width="22" height="22" fill="#ebedf0"/>
    <rect class="day" x="196" y="40" width="22" height="22" fill="#ebedf0"/>
    <rect class="day" x="196" y="66" width="22" height="22" fill="#ebedf0"/>
    <rect class="day" x="196" y="92" width="22" height="22" fill="#ebedf0"/>
    <rect class="day" x="196" y="118" width="22" height="22" fill="#ebedf0"/>
    <rect class="day" x="196" y="144" width="22" height="22" fill="#ebedf0"/>
    <rect class="day" x="196" y="170" width="22" height="22" fill="#ebedf0"/>
    <rect class="day" x="196" y="196" width="22" height="22" fill="hsl(60, 100%, 92%)"/>
    <rect class="day" x="222" y="40" width="22" height="22" fill="#ebedf0"/>
    <rect class="day" x="222" y="66" width="22" height="22" fill="#ebedf0"/>
    <rect class="day" x="222" y="92" width="22" height="22" fill="#ebedf0"/>
    <rect class="day" x="222" y="118" width="22" height="22" fill="#ebedf0"/>
    <rect class="day" x="222" y="144" width="22" height="22" fill="#ebedf0"/>
    <rect class="day" x="222" y="170" width="22" height="22" fill="hsl(60, 100%, 92%)"/>
    <rect class="day" x="222" y="196" width="22" height="22" fill="#ebedf0"/>
    <rect class="day" x="248" y="40" width="22" height="22" fill="#ebedf0"/>
    <rect class="day" x="248" y="66" width="22" height="22" fill="#ebedf0"/>
    <rect class="day" x="248" y="92" width="22" height="22" fill="#ebedf0"/>
    <rect class="day" x="248" y="118" width="22" height="22" fill="#ebedf0"/>
    <rect class="day" x="248" y="144" width="22" height="22" fill="#ebedf0"/>
    <rect class="day" x="248" y="170" width="22" height="22" fill="hsl(60, 100%, 92%)"/>
    <rect class="day" x="248" y="196" width="22" height="22" fill="#ebedf0"/>
    <rect class="day" x="274" y="40" width="22" height="22" fill="#ebedf0"/>
    <rect class="day" x="274" y="66" width="22" height="22" fill="hsl(60, 100%, 92%)"/>
    <rect class="day" x="274" y="92" width="22" height="22" fill="#ebedf0"/>
    <rect class="day" x="274" y="118" width="22" height="22" fill="#ebedf0"/>
    <rect class="day" x="274" y="144" width="22" height="22" fill="#ebedf0"/>
    <rect class="day" x="274" y="170" width="22" height="22" fill="#ebedf0"/>
    <rect class="day" x="274" y="196" width="22" height="22" fill="#ebedf0"/>
    <rect class="day" x="300" y="40" width="22" height="22" fill="#ebedf0"/>
    <rect class="day" x="300" y="66" width="22" height="22" fill="#ebedf0"/>
    <rect class="day" x="300" y="92" width="22" height="22" fill="#ebedf0"/>
    <rect class="day" x="300" y="118" width="22" height="22" fill="#ebedf0"/>
    <rect class="day" x="300" y="144" width="22" height="22" fill="#ebedf0"/>
    <rect class="day" x="300" y="170" width="22" height="22" fill="#ebedf0"/>
    <rect class="day" x="300" y="196" width="22" height="22" fill="#ebedf0"/>
    <rect class="day" x="326" y="40" width="22" height="22" fill="#ebedf0"/>
    <rect class="day" x="326" y="66" width="22" height="22" fill="hsl(60, 100%, 92%)"/>
    <rect class="day" x="326" y="92" width="22" height="22" fill="#ebedf0"/>
    <rect class="day" x="326" y="118" width="22" height="22" fill="hsl(60, 100%, 92%)"/>
    <rect class="day" x="326" y="144" width="22" height="22" fill="#ebedf0"/>
    <rect class="day" x="326" y="170" width="22" height="22" fill="#ebedf0"/>
    <rect class="day" x="326" y="196" width="22" height="22" fill="hsl(60, 100%, 92%)"/>
    <rect class="day" x="352" y="40" width="22" height="22" fill="hsl(60, 100%, 92%)"/>
    <rect class="day" x="352" y="66" width="22" height="22" fill="rgb(255,60,30)"/>
    <rect class="day" x="352" y="92" width="22" height="22" fill="#ffff3e"/>
    <rect class="day" x="352" y="118" width="22" height="22" fill="#ebedf0"/>
    <rect class="day" x="352" y="144" width="22" height="22" fill="#ebedf0"/>
    <rect class="day" x="352" y="170" width="22" height="22" fill="#ebedf0"/>
    <rect class="day" x="352" y="196" width="22" height="22" fill="#ebedf0"/>
    <rect class="day" x="378" y="40" width="22" height="22" fill="#ebedf0"/>
    <rect class="day" x="378" y="66" width="22" height="22" fill="#ebedf0"/>
    <rect class="day" x="378" y="92" width="22" height="22" fill="#ffff3e"/>
    <rect class="day" x="378" y="118" width="22" height="22" fill="#ffff3e"/>
    <rect class="day" x="378" y="144" width="22" height="22" fill="#ebedf0"/>
    <rect class="day" x="378" y="170" width="22" height="22" fill="#ebedf0"/>
    <rect class="day" x="378" y="196" width="22" height="22" fill="#ebedf0"/>
    <rect class="day" x="404" y="40" width="22" height="22" fill="hsl(60, 100%, 92%)"/>
    <rect class="day" x="404" y="66" width="22" height="22" fill="rgb(255,100,40)"/>
    <rect class="day" x="404" y="170" width="22" height="22" fill="hsl(60, 100%, 92%)"/>
    <rect class="day" x="404" y="196" width="22" height="22" fill="#ebedf0"/>
    <rect class="day" x="430" y="40" width="22" height="22" fill="#ffff3e"/>
    <rect class="day" x="430" y="66" width="22" height="22" fill="#ebedf0"/>
    <rect class="day" x="430" y="92" width="22" height="22" fill="hsl(60, 100%, 92%)"/>
    <rect class="day" x="430" y="118" width="22" height="22" fill="hsl(60, 100%, 92%)"/>
    <rect class="day" x="430" y="144" width="22" height="22" fill="#ebedf0"/>
    <rect class="day" x="430" y="170" width="22" height="22" fill="#ebedf0"/>
    <rect class="day" x="430" y="196" width="22" height="22" fill="#ebedf0"/>
    <rect class="day" x="456" y="40" width="22" height="22" fill="#ebedf0"/>
    <rect class="day" x="456" y="66" width="22" height="22" fill="#FFD700"/>
    <rect class="day" x="456" y="92" width="22" height="22" fill="#ffff3e"/>
    <rect class="day" x="456" y="118" width="22" height="22" fill="#ffff3e"/>
    <rect class="day" x="456" y="144" width="22" height="22" fill="#FFD700"/>
    <rect class="day" x="456" y="170" width="22" height="22" fill="#ebedf0"/>
    <rect class="day" x="456" y="196" width="22" height="22" fill="#ebedf0"/>
    <rect class="day" x="482" y="40" width="22" height="22" fill="#ebedf0"/>
    <rect class="day" x="482" y="92" width="22" height="22" fill="rgb(255,160,90)"/>
    <rect class="day" x="482" y="118" width="22" height="22" fill="#FFD700"/>
    <rect class="day" x="482" y="144" width="22" height="22" fill="#ebedf0"/>
    <rect class="day" x="482" y="170" width="22" height="22" fill="hsl(60, 100%, 92%)"/>
    <rect class="day" x="482" y="196" width="22" height="22" fill="#ebedf0"/>
    <rect class="day" x="508" y="40" width="22" height="22" fill="#ebedf0"/>
    <rect class="day" x="508" y="66" width="22" height="22" fill="hsl(60, 100%, 92%)"/>
    <rect class="day" x="508" y="92" width="22" height="22" fill="rgb(255,130,60)"/>
    <rect class="day" x="508" y="118" width="22" height="22" fill="hsl(60, 100%, 92%)"/>
    <rect class="day" x="508" y="170" width="22" height="22" fill="#ebedf0"/>
    <rect class="day" x="508" y="196" width="22" height="22" fill="#ebedf0"/>
    <rect class="day" x="534" y="40" width="22" height="22" fill="#ebedf0"/>
    <rect class="day" x="534" y="66" width="22" height="22" fill="hsl(60, 100%, 92%)"/>
    <rect class="day" x="534" y="170" width="22" height="22" fill="#ebedf0"/>
    <rect class="day" x="534" y="196" width="22" height="22" fill="#ebedf0"/>
    <rect class="day" x="560" y="66" width="22" height="22" fill="hsl(60, 100%, 92%)"/>
    <rect class="day" x="560" y="144" width="22" height="22" fill="rgb(255,100,40)"/>
    <rect class="day" x="560" y="196" width="22" height="22" fill="#ffff3e"/>
    <rect class="day" x="586" y="118" width="22" height="22" fill="rgb(255,160,90)"/>
    <rect class="day" x="612" y="40" width="22" height="22" fill="rgb(255,160,90)"/>
    <rect class="day" x="612" y="196" width="22" height="22" fill="rgb(255,160,90)"/>
    <rect class="day" x="638" y="40" width="22" height="22" fill="#ebedf0"/>
    <rect class="day" x="638" y="144" width="22" height="22" fill="#ffff3e"/>
    <rect class="day" x="638" y="170" width="22" height="22" fill="#ebedf0"/>
    <rect class="day" x="638" y="196" width="22" height="22" fill="hsl(60, 100%, 92%)"/>
    <rect class="day" x="664" y="40" width="22" height="22" fill="#ebedf0"/>
    <rect class="day" x="664" y="66" width="22" height="22" fill="#ebedf0"/>
    <rect class="day" x="664" y="92" width="22" height="22" fill="#ebedf0"/>
    <rect class="day fire-red" x="404" y="92" width="22" height="22" fill="url(#fireGradientRed)"/>
    <rect class="day fire-white" x="404" y="118" width="22" height="22" fill="url(#fireGradientWhite)"/>
    <path class="lightning" d="M 415.0,113 L 412.1758816177764,122.4 L 414.40201486205825,126.8 L 411.10112262601876,131.2 L 416.340101402976,135.6 L 415.0,145" style="animation-delay: 1.946086291551083s;"/>
    <rect class="day fire-white" x="404" y="144" width="22" height="22" fill="url(#fireGradientWhite)"/>
    <path class="lightning" d="M 415.0,139 L 412.46138778096883,148.4 L 411.66206670141645,152.8 L 411.8631093178161,157.2 L 418.1170238090591,161.6 L 415.0,171" style="animation-delay: 1.8292257036869815s;"/>
    <rect class="day fire-red" x="482" y="66" width="22" height="22" fill="url(#fireGradientRed)"/>
    <rect class="day fire-white" x="508" y="144" width="22" height="22" fill="url(#fireGradientWhite)"/>
    <path class="lightning" d="M 519.0,139 L 521.4630509296171,148.4 L 519.4806429125905,152.8 L 520.8925136897035,157.2 L 520.0617744574079,161.6 L 519.0,171" style="animation-delay: 0.7873342571130375s;"/>
    <rect class="day fire-red" x="534" y="92" width="22" height="22" fill="url(#fireGradientRed)"/>
    <rect class="day fire-white" x="534" y="118" width="22" height="22" fill="url(#fireGradientWhite)"/>
    <path class="lightning" d="M 545.0,113 L 547.2236349189914,122.4 L 549.6065549040736,126.8 L 541.1732142362348,131.2 L 543.1734360960122,135.6 L 545.0,145" style="animation-delay: 0.6125595523556979s;"/>
    <rect class="day fire-red" x="534" y="144" width="22" height="22" fill="url(#fireGradientRed)"/>
    <rect class="day fire-white" x="560" y="40" width="22" height="22" fill="url(#fireGradientWhite)"/>
    <path class="lightning" d="M 571.0,35 L 567.3759299800403,44.4 L 575.1202498855686,48.8 L 573.3532464773715,53.2 L 569.4766661346732,57.6 L 571.0,67" style="animation-delay: 1.8336902734712759s;"/>
    <rect class="day fire-white" x="560" y="92" width="22" height="22" fill="url(#fireGradientWhite)"/>
    <path class="lightning" d="M 571.0,87 L 574.0657949437715,96.4 L 575.3833693575144,100.8 L 570.3773945162089,105.2 L 575.58604914354,109.6 L 571.0,119" style="animation-delay: 1.5444958560631536s;"/>
    <rect class="day fire-white" x="560" y="118" width="22" height="22" fill="url(#fireGradientWhite)"/>
    <path class="lightning" d="M 571.0,113 L 573.5309016370697,122.4 L 569.8506245160686,126.8 L 571.6255502719107,131.2 L 571.8913273267237,135.6 L 571.0,145" style="animation-delay: 1.516517934397011s;"/>
    <rect class="day fire-white" x="560" y="170" width="22" height="22" fill="url(#fireGradientWhite)"/>
    <path class="lightning" d="M 571.0,165 L 573.1516820583956,174.4 L 566.5759303713811,178.8 L 573.4169184198391,183.2 L 575.134506508287,187.6 L 571.0,197" style="animation-delay: 1.8256383593253587s;"/>
    <rect class="day fire-white" x="586" y="40" width="22" height="22" fill="url(#fireGradientWhite)"/>
    <path class="lightning" d="M 597.0,35 L 596.6940591091806,44.4 L 593.4823077415361,48.8 L 598.024166134646,53.2 L 597.8309163680441,57.6 L 597.0,67" style="animation-delay: 1.935369328591596s;"/>
    <rect class="day fire-white" x="586" y="66" width="22" height="22" fill="url(#fireGradientWhite)"/>
    <path class="lightning" d="M 597.0,61 L 599.4061561283071,70.4 L 597.6048843442977,74.8 L 596.049382550519,79.2 L 599.8435337873019,83.6 L 597.0,93" style="animation-delay: 0.8818862180732228s;"/>
    <rect class="day fire-white" x="586" y="92" width="22" height="22" fill="url(#fireGradientWhite)"/>
    <path class="lightning" d="M 597.0,87 L 600.4362365903356,96.4 L 601.7140593652879,100.8 L 594.9599319790332,105.2 L 596.5381953048245,109.6 L 597.0,119" style="animation-delay: 1.7453276042742631s;"/>
    <rect class="day fire-white" x="586" y="144" width="22" height="22" fill="url(#fireGradientWhite)"/>
    <path class="lightning" d="M 597.0,139 L 595.4654128830147,148.4 L 591.9526268822473,152.8 L 596.7857603626351,157.2 L 596.6249249409698,161.6 L 597.0,171" style="animation-delay: 0.12992131183912803s;"/>
    <rect class="day fire-white" x="586" y="170" width="22" height="22" fill="url(#fireGradientWhite)"/>
    <path class="lightning" d="M 597.0,165 L 593.8571106774567,174.4 L 594.7627049163996,178.8 L 597.8776659624004,183.2 L 592.8973763755737,187.6 L 597.0,197" style="animation-delay: 0.07982452424910758s;"/>
    <rect class="day fire-white" x="586" y="196" width="22" height="22" fill="url(#fireGradientWhite)"/>
    <path class="lightning" d="M 597.0,191 L 598.9285830364576,200.4 L 598.3518122856365,204.8 L 600.1413507579674,209.2 L 595.1810074593394,213.6 L 597.0,223" style="animation-delay: 1.3622573831650613s;"/>
    <rect class="day fire-white" x="612" y="66" width="22" height="22" fill="url(#fireGradientWhite)"/>
    <path class="lightning" d="M 623.0,61 L 626.9519878620885,70.4 L 619.2830339889649,74.8 L 622.6434635932548,79.2 L 621.1117332892314,83.6 L 623.0,93" style="animation-delay: 1.741823504513265s;"/>
    <rect class="day fire-white" x="612" y="92" width="22" height="22" fill="url(#fireGradientWhite)"/>
    <path class="lightning" d="M 623.0,87 L 624.6389243587339,96.4 L 620.7338137498236,100.8 L 622.6438965691517,105.2 L 625.1888525775985,109.6 L 623.0,119" style="animation-delay: 1.484603839467014s;"/>
    <rect class="day fire-white" x="612" y="118" width="22" height="22" fill="url(#fireGradientWhite)"/>
    <path class="lightning" d="M 623.0,113 L 619.3942083965457,122.4 L 619.1288011816887,126.8 L 622.1828196519298,131.2 L 627.7204745580548,135.6 L 623.0,145" style="animation-delay: 1.1018876889995048s;"/>
    <rect class="day fire-white" x="612" y="144" width="22" height="22" fill="url(#fireGradientWhite)"/>
    <path class="lightning" d="M 623.0,139 L 619.2469224032319,148.4 L 617.85825681528,152.8 L 623.4783704490658,157.2 L 625.496996550457,161.6 L 623.0,171" style="animation-delay: 1.2183460066942002s;"/>
    <rect class="day fire-white" x="612" y="170" width="22" height="22" fill="url(#fireGradientWhite)"/>
    <path class="lightning" d="M 623.0,165 L 621.0368375698482,174.4 L 618.7793721452989,178.8 L 620.96485035174,183.2 L 620.2954750910428,187.6 L 623.0,197" style="animation-delay: 1.6515831744309644s;"/>
    <rect class="day fire-white" x="638" y="66" width="22" height="22" fill="url(#fireGradientWhite)"/>
    <path class="lightning" d="M 649.0,61 L 645.9523125120057,70.4 L 649.8199862904864,74.8 L 652.3846968721606,79.2 L 645.3432684956562,83.6 L 649.0,93" style="animation-delay: 1.7902851174714849s;"/>
    <rect class="day fire-white" x="638" y="92" width="22" height="22" fill="url(#fireGradientWhite)"/>
    <path class="lightning" d="M 649.0,87 L 645.1781247247203,96.4 L 653.8626577036832,100.8 L 645.6813716464309,105.2 L 648.2754123572433,109.6 L 649.0,119" style="animation-delay: 1.6923818417387253s;"/>
    <rect class="day fire-red" x="638" y="118" width="22" height="22" fill="url(#fireGradientRed)"/>

    <defs>
        <!-- Gradiente Fogo Vermelho -->
        <linearGradient id="fireGradientRed" x1="0%" y1="100%" x2="100%" y2="0%">
            <stop offset="0%" style="stop-color:#ff0000;stop-opacity:1">
                <animate attributeName="stop-color" values="#ff0000;#cc0000;#ff0000" dur="2s" repeatCount="indefinite"/>
            </stop>
            <stop offset="40%" style="stop-color:#ff4400;stop-opacity:1">
                <animate attributeName="stop-color" values="#ff4400;#ff6600;#ff4400" dur="2s" repeatCount="indefinite"/>
            </stop>
            <stop offset="70%" style="stop-color:#ff8800;stop-opacity:1">
                <animate attributeName="stop-color" values="#ff8800;#ffaa00;#ff8800" dur="2s" repeatCount="indefinite"/>
            </stop>
            <stop offset="100%" style="stop-color:#ffff00;stop-opacity:1">
                <animate attributeName="stop-color" values="#ffff00;#ffcc00;#ffff00" dur="2s" repeatCount="indefinite"/>
            </stop>
        </linearGradient>
        
        
        <!-- Gradiente Fogo Branco (Alto Contraste) -->
        <linearGradient id="fireGradientWhite" x1="0%" y1="100%" x2="100%" y2="0%">
            <stop offset="0%" style="stop-color:#ff0000;stop-opacity:1">
                <animate attributeName="stop-color" values="#ff0000;#cc0000;#ff0000" dur="1.5s" repeatCount="indefinite"/>
            </stop>
            <stop offset="30%" style="stop-color:#ff6600;stop-opacity:1">
                <animate attributeName="stop-color" values="#ff6600;#ff8800;#ff6600" dur="1.5s" repeatCount="indefinite"/>
            </stop>
            <stop offset="60%" style="stop-color:#ffdd00;stop-opacity:1">
                <animate attributeName="stop-color" values="#ffdd00;#ffff00;#ffdd00" dur="1.5s" repeatCount="indefinite"/>
            </stop>
            <stop offset="100%" style="stop-color:#ffffff;stop-opacity:1">
                <animate attributeName="stop-color" values="#ffffff;#ffffcc;#ffffff" dur="1.5s" repeatCount="indefinite"/>
            </stop>
        </linearGradient>
    </defs>
    
    <!-- Legenda -->
    <g transform="translate(40, 252)">
        <text y="15">Menos</text>
        <rect x="40" width="22" height="22" fill="#ebedf0" rx="2"/>
        <rect x="64" width="22" height="22" fill="hsl(60, 100%, 92%)" rx="2"/>
        <rect x="88" width="22" height="22" fill="#ffff3e" rx="2"/>
        <rect x="112" width="22" height="22" fill="#FFD700" rx="2"/>
        <rect x="136" width="22" height="22" fill="rgb(255,160,90)" rx="2"/>
        <rect x="160" width="22" height="22" fill="rgb(255,130,60)" rx="2"/>
        <rect x="184" width="22" height="22" fill="rgb(255,100,40)" rx="2"/>
        <rect x="208" width="22" height="22" fill="rgb(255,60,30)" rx="2"/>
        <rect class="day fire-red" x="232" width="22" height="22" fill="url(#fireGradientRed)" rx="2"/>
        <rect class="day fire-white" x="256" width="22" height="22" fill="url(#fireGradientWhite)" rx="2"/>
        <text x="290" y="15">Mais 🔥⚡</text>
    </g>
</svg>