<svg width="100%" viewBox="0 0 730 302" xmlns="http://www.w3.org/2000/svg">
    <style>
        .day { rx: 2; ry: 2; transition: all 0.2s; }
        .day:hover { stroke: #ff6b00; stroke-width: 2; }
        text { font-family: -apple-system, BlinkMacSystemFont, "Segoe UI", Helvetica, Arial, sans-serif, "Apple Color Emoji", "Segoe UI Emoji"; font-size: 10px; fill: #24292f; }
        
        /* Fogo Vermelho (Nível 8) - Intensidade Reduzida */
        .fire-red { 
            rx: 2;
            // animation: pulseFireRed 2s ease-in-out infinite;
            // filter: drop-shadow(0 0 6px rgba(255, 100, 0, 0.6));
        }
        
        @keyframes pulseFireRed {
            0% { 
                filter: 
                    drop-shadow(0 -3px 6px rgba(255, 0, 0, 0.8))
                    drop-shadow(0 -6px 12px rgba(255, 100, 0, 0.6))
                    drop-shadow(0 -10px 18px rgba(255, 150, 0, 0.4));
            }
            50% { 
                filter: 
                    drop-shadow(0 -5px 10px rgba(255, 0, 0, 0.9))
                    drop-shadow(0 -10px 20px rgba(255, 100, 0, 0.7))
                    drop-shadow(0 -15px 28px rgba(255, 200, 0, 0.5));
            }
            100% { 
                filter: 
                    drop-shadow(0 -3px 6px rgba(255, 0, 0, 0.8))
                    drop-shadow(0 -6px 12px rgba(255, 100, 0, 0.6))
                    drop-shadow(0 -10px 18px rgba(255, 150, 0, 0.4));
            }
        }
        
        /* Fogo Branco (Nível 9) - Super Intenso com Alto Contraste */
        .fire-white { 
            rx: 2;
            animation: pulseFireWhite 1.5s ease-in-out infinite;
            filter: drop-shadow(0 0 15px rgba(255, 255, 255, 1));
        }
        
        @keyframes pulseFireOrange {
            0% {
                filter: 
                drop-shadow(0 -6px 12px rgba(200, 50, 0, 1))
                drop-shadow(0 -12px 24px rgba(255, 255, 255, 1))
                drop-shadow(0 -20px 40px rgba(255, 160, 50, 0.9));
            }
            50% {
                filter: 
                drop-shadow(0 -10px 20px rgba(180, 30, 0, 1))
                drop-shadow(0 -20px 40px rgba(255, 255, 255, 1))
                drop-shadow(0 -30px 60px rgba(255, 200, 80, 1));
            }
            100% {
                filter: 
                drop-shadow(0 -6px 12px rgba(200, 50, 0, 1))
                drop-shadow(0 -12px 24px rgba(255, 255, 255, 1))
                drop-shadow(0 -20px 40px rgba(255, 160, 50, 0.9));
            }
        }
        
        /* Fagulhas Vermelhas (Fogo Vermelho) */
        .spark-red {
            fill: #ffaa00;
            opacity: 0;
            animation: sparkFlyRed 1.5s ease-out infinite;
        }
        
        @keyframes sparkFlyRed {
            0% {
                opacity: 1;
                transform: translateY(0) scale(1);
            }
            50% {
                opacity: 0.7;
            }
            100% {
                opacity: 0;
                transform: translateY(var(--ty)) scale(0.2);
            }
        }
        
        /* Fagulhas Azuis (Fogo Branco) - Pequenas e Dispersas */
        .spark-white {
            opacity: 0;
            animation: sparkFlyWhite 1.5s ease-out infinite;
        }
        
        @keyframes sparkFlyWhite {
            0% {
                opacity: 0.9;
                transform: translate(0, 0) scale(1);
                fill: #ffffff;
            }
            30% {
                opacity: 0.8;
                fill: #ffff00;
            }
            70% {
                opacity: 0.4;
                fill: #ffaa00;
            }
            100% {
                opacity: 0;
                transform: translate(var(--tx), var(--ty)) scale(0.3);
                fill: #ff6600;
            }
        }
        
        /* Raio Elétrico (Neon) */
        .lightning {
            stroke: #FFFFFF;
            stroke-width: 1.5;
            fill: none;
            opacity: 0;
            filter: drop-shadow(0 0 4px #00FFFF) drop-shadow(0 0 8px #FFFFFF);
            animation: lightningStrike 2s ease-in-out infinite;
        }
        
        @keyframes lightningStrike {
            0% {
                opacity: 0;
                stroke-width: 0.5;
            }
            10% {
                opacity: 1;
                stroke-width: 2;
                filter: drop-shadow(0 0 8px #00FFFF) drop-shadow(0 0 16px #FFFFFF);
            }
            15% {
                opacity: 0.3;
            }
            20% {
                opacity: 1;
                stroke-width: 2.5;
                filter: drop-shadow(0 0 12px #00FFFF) drop-shadow(0 0 20px #FFFFFF);
            }
            25% {
                opacity: 0;
            }
            100% {
                opacity: 0;
            }
        }
    </style>
    <rect width="730" height="302" fill="#ffffff" rx="6"/>
    
    <!-- Título -->
    <text x="15" y="25" fill="#24292f" font-size="12" font-weight="400">
        <tspan fill="#ff6b00" font-weight="600">981</tspan> contribuições nos últimos 6 meses
    </text>
    
    <!-- Labels dos dias -->
    <text x="25" y="82" text-anchor="end">Seg</text>
    <text x="25" y="134" text-anchor="end">Qua</text>
    <text x="25" y="186" text-anchor="end">Sex</text>
    <text x="40" y="35">Abr</text>
    <text x="92" y="35">Mai</text>
    <text x="222" y="35">Jun</text>
    <text x="326" y="35">Jul</text>
    <text x="430" y="35">Ago</text>
    <text x="560" y="35">Set</text>
    <text x="664" y="35">Out</text>
    <rect class="day" x="40" y="40" width="22" height="22" fill="hsl(60, 100%, 92%)"/>
    <rect class="day" x="40" y="66" width="22" height="22" fill="#ebedf0"/>
    <rect class="day" x="40" y="92" width="22" height="22" fill="#ebedf0"/>
    <rect class="day" x="40" y="118" width="22" height="22" fill="#ebedf0"/>
    <rect class="day" x="40" y="144" width="22" height="22" fill="#ebedf0"/>
    <rect class="day" x="40" y="170" width="22" height="22" fill="#ebedf0"/>
    <rect class="day" x="40" y="196" width="22" height="22" fill="#ebedf0"/>
    <rect class="day" x="66" y="40" width="22" height="22" fill="#ebedf0"/>
    <rect class="day" x="66" y="66" width="22" height="22" fill="#ebedf0"/>
    <rect class="day" x="66" y="92" width="22" height="22" fill="#ebedf0"/>
    <rect class="day" x="66" y="118" width="22" height="22" fill="#ebedf0"/>
    <rect class="day" x="66" y="144" width="22" height="22" fill="#ebedf0"/>
    <rect class="day" x="66" y="170" width="22" height="22" fill="#ebedf0"/>
    <rect class="day" x="66" y="196" width="22" height="22" fill="#ebedf0"/>
    <rect class="day" x="92" y="40" width="22" height="22" fill="#ebedf0"/>
    <rect class="day" x="92" y="66" width="22" height="22" fill="#ebedf0"/>
    <rect class="day" x="92" y="92" width="22" height="22" fill="#ebedf0"/>
    <rect class="day" x="92" y="118" width="22" height="22" fill="#ebedf0"/>
    <rect class="day" x="92" y="144" width="22" height="22" fill="#ebedf0"/>
    <rect class="day" x="92" y="170" width="22" height="22" fill="#ebedf0"/>
    <rect class="day" x="92" y="196" width="22" height="22" fill="#ebedf0"/>
    <rect class="day" x="118" y="40" width="22" height="22" fill="#ebedf0"/>
    <rect class="day" x="118" y="66" width="22" height="22" fill="#ebedf0"/>
    <rect class="day" x="118" y="92" width="22" height="22" fill="#ebedf0"/>
    <rect class="day" x="118" y="118" width="22" height="22" fill="#ebedf0"/>
    <rect class="day" x="118" y="144" width="22" height="22" fill="#ebedf0"/>
    <rect class="day" x="118" y="170" width="22" height="22" fill="#ebedf0"/>
    <rect class="day" x="118" y="196" width="22" height="22" fill="hsl(60, 100%, 92%)"/>
    <rect class="day" x="144" y="40" width="22" height="22" fill="#ebedf0"/>
    <rect class="day" x="144" y="66" width="22" height="22" fill="#ebedf0"/>
    <rect class="day" x="144" y="92" width="22" height="22" fill="#ebedf0"/>
    <rect class="day" x="144" y="118" width="22" height="22" fill="#ebedf0"/>
    <rect class="day" x="144" y="144" width="22" height="22" fill="#ebedf0"/>
    <rect class="day" x="144" y="170" width="22" height="22" fill="hsl(60, 100%, 92%)"/>
    <rect class="day" x="144" y="196" width="22" height="22" fill="#ebedf0"/>
    <rect class="day" x="170" y="40" width="22" height="22" fill="#ebedf0"/>
    <rect class="day" x="170" y="66" width="22" height="22" fill="#ebedf0"/>
    <rect class="day" x="170" y="92" width="22" height="22" fill="#ebedf0"/>
    <rect class="day" x="170" y="118" width="22" height="22" fill="#ebedf0"/>
    <rect class="day" x="170" y="144" width="22" height="22" fill="#ebedf0"/>
    <rect class="day" x="170" y="170" width="22" height="22" fill="hsl(60, 100%, 92%)"/>
    <rect class="day" x="170" y="196" width="22" height="22" fill="#ebedf0"/>
    <rect class="day" x="196" y="40" width="22" height="22" fill="#ebedf0"/>
    <rect class="day" x="196" y="66" width="22" height="22" fill="hsl(60, 100%, 92%)"/>
    <rect class="day" x="196" y="92" width="22" height="22" fill="#ebedf0"/>
    <rect class="day" x="196" y="118" width="22" height="22" fill="#ebedf0"/>
    <rect class="day" x="196" y="144" width="22" height="22" fill="#ebedf0"/>
    <rect class="day" x="196" y="170" width="22" height="22" fill="#ebedf0"/>
    <rect class="day" x="196" y="196" width="22" height="22" fill="#ebedf0"/>
    <rect class="day" x="222" y="40" width="22" height="22" fill="#ebedf0"/>
    <rect class="day" x="222" y="66" width="22" height="22" fill="#ebedf0"/>
    <rect class="day" x="222" y="92" width="22" height="22" fill="#ebedf0"/>
    <rect class="day" x="222" y="118" width="22" height="22" fill="#ebedf0"/>
    <rect class="day" x="222" y="144" width="22" height="22" fill="#ebedf0"/>
    <rect class="day" x="222" y="170" width="22" height="22" fill="#ebedf0"/>
    <rect class="day" x="222" y="196" width="22" height="22" fill="#ebedf0"/>
    <rect class="day" x="248" y="40" width="22" height="22" fill="#ebedf0"/>
    <rect class="day" x="248" y="66" width="22" height="22" fill="hsl(60, 100%, 92%)"/>
    <rect class="day" x="248" y="92" width="22" height="22" fill="#ebedf0"/>
    <rect class="day" x="248" y="118" width="22" height="22" fill="hsl(60, 100%, 92%)"/>
    <rect class="day" x="248" y="144" width="22" height="22" fill="#ebedf0"/>
    <rect class="day" x="248" y="170" width="22" height="22" fill="#ebedf0"/>
    <rect class="day" x="248" y="196" width="22" height="22" fill="hsl(60, 100%, 92%)"/>
    <rect class="day" x="274" y="40" width="22" height="22" fill="hsl(60, 100%, 92%)"/>
    <rect class="day" x="274" y="66" width="22" height="22" fill="rgb(255,60,30)"/>
    <rect class="day" x="274" y="92" width="22" height="22" fill="#ffff3e"/>
    <rect class="day" x="274" y="118" width="22" height="22" fill="#ebedf0"/>
    <rect class="day" x="274" y="144" width="22" height="22" fill="#ebedf0"/>
    <rect class="day" x="274" y="170" width="22" height="22" fill="#ebedf0"/>
    <rect class="day" x="274" y="196" width="22" height="22" fill="#ebedf0"/>
    <rect class="day" x="300" y="40" width="22" height="22" fill="#ebedf0"/>
    <rect class="day" x="300" y="66" width="22" height="22" fill="#ebedf0"/>
    <rect class="day" x="300" y="92" width="22" height="22" fill="#ffff3e"/>
    <rect class="day" x="300" y="118" width="22" height="22" fill="#ffff3e"/>
    <rect class="day" x="300" y="144" width="22" height="22" fill="#ebedf0"/>
    <rect class="day" x="300" y="170" width="22" height="22" fill="#ebedf0"/>
    <rect class="day" x="300" y="196" width="22" height="22" fill="#ebedf0"/>
    <rect class="day" x="326" y="40" width="22" height="22" fill="hsl(60, 100%, 92%)"/>
    <rect class="day" x="326" y="66" width="22" height="22" fill="rgb(255,100,40)"/>
    <rect class="day" x="326" y="170" width="22" height="22" fill="hsl(60, 100%, 92%)"/>
    <rect class="day" x="326" y="196" width="22" height="22" fill="#ebedf0"/>
    <rect class="day" x="352" y="40" width="22" height="22" fill="#ffff3e"/>
    <rect class="day" x="352" y="66" width="22" height="22" fill="#ebedf0"/>
    <rect class="day" x="352" y="92" width="22" height="22" fill="hsl(60, 100%, 92%)"/>
    <rect class="day" x="352" y="118" width="22" height="22" fill="hsl(60, 100%, 92%)"/>
    <rect class="day" x="352" y="144" width="22" height="22" fill="#ebedf0"/>
    <rect class="day" x="352" y="170" width="22" height="22" fill="#ebedf0"/>
    <rect class="day" x="352" y="196" width="22" height="22" fill="#ebedf0"/>
    <rect class="day" x="378" y="40" width="22" height="22" fill="#ebedf0"/>
    <rect class="day" x="378" y="66" width="22" height="22" fill="#FFD700"/>
    <rect class="day" x="378" y="92" width="22" height="22" fill="#ffff3e"/>
    <rect class="day" x="378" y="118" width="22" height="22" fill="#ffff3e"/>
    <rect class="day" x="378" y="144" width="22" height="22" fill="#FFD700"/>
    <rect class="day" x="378" y="170" width="22" height="22" fill="#ebedf0"/>
    <rect class="day" x="378" y="196" width="22" height="22" fill="#ebedf0"/>
    <rect class="day" x="404" y="40" width="22" height="22" fill="#ebedf0"/>
    <rect class="day" x="404" y="92" width="22" height="22" fill="rgb(255,160,90)"/>
    <rect class="day" x="404" y="118" width="22" height="22" fill="#FFD700"/>
    <rect class="day" x="404" y="144" width="22" height="22" fill="#ebedf0"/>
    <rect class="day" x="404" y="170" width="22" height="22" fill="hsl(60, 100%, 92%)"/>
    <rect class="day" x="404" y="196" width="22" height="22" fill="#ebedf0"/>
    <rect class="day" x="430" y="40" width="22" height="22" fill="#ebedf0"/>
    <rect class="day" x="430" y="66" width="22" height="22" fill="hsl(60, 100%, 92%)"/>
    <rect class="day" x="430" y="92" width="22" height="22" fill="rgb(255,130,60)"/>
    <rect class="day" x="430" y="118" width="22" height="22" fill="hsl(60, 100%, 92%)"/>
    <rect class="day" x="430" y="170" width="22" height="22" fill="#ebedf0"/>
    <rect class="day" x="430" y="196" width="22" height="22" fill="#ebedf0"/>
    <rect class="day" x="456" y="40" width="22" height="22" fill="#ebedf0"/>
    <rect class="day" x="456" y="66" width="22" height="22" fill="hsl(60, 100%, 92%)"/>
    <rect class="day" x="456" y="170" width="22" height="22" fill="#ebedf0"/>
    <rect class="day" x="456" y="196" width="22" height="22" fill="#ebedf0"/>
    <rect class="day" x="482" y="66" width="22" height="22" fill="hsl(60, 100%, 92%)"/>
    <rect class="day" x="482" y="144" width="22" height="22" fill="rgb(255,100,40)"/>
    <rect class="day" x="482" y="196" width="22" height="22" fill="#ffff3e"/>
    <rect class="day" x="508" y="118" width="22" height="22" fill="rgb(255,160,90)"/>
    <rect class="day" x="534" y="40" width="22" height="22" fill="rgb(255,160,90)"/>
    <rect class="day" x="534" y="196" width="22" height="22" fill="rgb(255,160,90)"/>
    <rect class="day" x="560" y="40" width="22" height="22" fill="#ebedf0"/>
    <rect class="day" x="560" y="144" width="22" height="22" fill="#ffff3e"/>
    <rect class="day" x="560" y="170" width="22" height="22" fill="#ebedf0"/>
    <rect class="day" x="560" y="196" width="22" height="22" fill="rgb(255,160,90)"/>
    <rect class="day" x="586" y="40" width="22" height="22" fill="#ffff3e"/>
    <rect class="day" x="586" y="92" width="22" height="22" fill="rgb(255,130,60)"/>
    <rect class="day" x="586" y="118" width="22" height="22" fill="hsl(60, 100%, 92%)"/>
    <rect class="day" x="586" y="144" width="22" height="22" fill="hsl(60, 100%, 92%)"/>
    <rect class="day" x="586" y="170" width="22" height="22" fill="hsl(60, 100%, 92%)"/>
    <rect class="day" x="586" y="196" width="22" height="22" fill="#ffff3e"/>
    <rect class="day" x="612" y="40" width="22" height="22" fill="rgb(255,160,90)"/>
    <rect class="day" x="612" y="92" width="22" height="22" fill="rgb(255,100,40)"/>
    <rect class="day" x="612" y="118" width="22" height="22" fill="#ffff3e"/>
    <rect class="day" x="612" y="170" width="22" height="22" fill="hsl(60, 100%, 92%)"/>
    <rect class="day" x="612" y="196" width="22" height="22" fill="hsl(60, 100%, 92%)"/>
    <rect class="day" x="638" y="40" width="22" height="22" fill="#ffff3e"/>
    <rect class="day" x="638" y="66" width="22" height="22" fill="#ebedf0"/>
    <rect class="day" x="638" y="92" width="22" height="22" fill="#ffff3e"/>
    <rect class="day" x="638" y="118" width="22" height="22" fill="hsl(60, 100%, 92%)"/>
    <rect class="day" x="638" y="144" width="22" height="22" fill="rgb(255,160,90)"/>
    <rect class="day" x="638" y="170" width="22" height="22" fill="hsl(60, 100%, 92%)"/>
    <rect class="day" x="638" y="196" width="22" height="22" fill="#ebedf0"/>
    <rect class="day" x="664" y="40" width="22" height="22" fill="#ffff3e"/>
    <rect class="day" x="664" y="66" width="22" height="22" fill="rgb(255,100,40)"/>
    <rect class="day" x="664" y="92" width="22" height="22" fill="#ffff3e"/>
    <rect class="day" x="664" y="118" width="22" height="22" fill="#ebedf0"/>
    <rect class="day fire-red" x="326" y="92" width="22" height="22" fill="url(#fireGradientRed)"/>
    <rect class="day fire-white" x="326" y="118" width="22" height="22" fill="url(#fireGradientWhite)"/>
    <path class="lightning" d="M 337.0,113 L 339.9401231384261,122.4 L 340.28495845243316,126.8 L 339.31110072656736,131.2 L 337.2753070349617,135.6 L 337.0,145" style="animation-delay: 1.5752542217380625s;"/>
    <rect class="day fire-white" x="326" y="144" width="22" height="22" fill="url(#fireGradientWhite)"/>
    <path class="lightning" d="M 337.0,139 L 334.0086708049769,148.4 L 340.80588529624777,152.8 L 338.80571719823223,157.2 L 334.9638643033846,161.6 L 337.0,171" style="animation-delay: 1.3854820096444398s;"/>
    <rect class="day fire-red" x="404" y="66" width="22" height="22" fill="url(#fireGradientRed)"/>
    <rect class="day fire-white" x="430" y="144" width="22" height="22" fill="url(#fireGradientWhite)"/>
    <path class="lightning" d="M 441.0,139 L 437.4057241050661,148.4 L 442.80532559261553,152.8 L 444.3570105949136,157.2 L 442.38536038296104,161.6 L 441.0,171" style="animation-delay: 1.8582150992906374s;"/>
    <rect class="day fire-red" x="456" y="92" width="22" height="22" fill="url(#fireGradientRed)"/>
    <rect class="day fire-white" x="456" y="118" width="22" height="22" fill="url(#fireGradientWhite)"/>
    <path class="lightning" d="M 467.0,113 L 469.59489068316407,122.4 L 462.4169956118107,126.8 L 464.3942471885677,131.2 L 462.22693167084105,135.6 L 467.0,145" style="animation-delay: 1.2206603500880338s;"/>
    <rect class="day fire-red" x="456" y="144" width="22" height="22" fill="url(#fireGradientRed)"/>
    <rect class="day fire-white" x="482" y="40" width="22" height="22" fill="url(#fireGradientWhite)"/>
    <path class="lightning" d="M 493.0,35 L 489.1887239058561,44.4 L 491.9303152136938,48.8 L 492.40863176765686,53.2 L 493.77727622786966,57.6 L 493.0,67" style="animation-delay: 0.9939229581381028s;"/>
    <rect class="day fire-white" x="482" y="92" width="22" height="22" fill="url(#fireGradientWhite)"/>
    <path class="lightning" d="M 493.0,87 L 491.005935226126,96.4 L 494.1926295373739,100.8 L 492.32645456136487,105.2 L 491.42929365897925,109.6 L 493.0,119" style="animation-delay: 0.7034844603194275s;"/>
    <rect class="day fire-white" x="482" y="118" width="22" height="22" fill="url(#fireGradientWhite)"/>
    <path class="lightning" d="M 493.0,113 L 492.66424395774015,122.4 L 497.91992493125855,126.8 L 493.9758333113555,131.2 L 493.29762758413153,135.6 L 493.0,145" style="animation-delay: 0.2893109578129429s;"/>
    <rect class="day fire-white" x="482" y="170" width="22" height="22" fill="url(#fireGradientWhite)"/>
    <path class="lightning" d="M 493.0,165 L 489.90746499286934,174.4 L 491.39809511693915,178.8 L 493.2830371139178,183.2 L 494.860820838656,187.6 L 493.0,197" style="animation-delay: 0.5834819798036361s;"/>
    <rect class="day fire-white" x="508" y="40" width="22" height="22" fill="url(#fireGradientWhite)"/>
    <path class="lightning" d="M 519.0,35 L 521.3237144972109,44.4 L 518.0047690730598,48.8 L 516.9215528589359,53.2 L 520.2647320431448,57.6 L 519.0,67" style="animation-delay: 1.4304739761057332s;"/>
    <rect class="day fire-white" x="508" y="66" width="22" height="22" fill="url(#fireGradientWhite)"/>
    <path class="lightning" d="M 519.0,61 L 519.9661731843969,70.4 L 522.7661484902922,74.8 L 521.0719823855214,79.2 L 517.2782133990123,83.6 L 519.0,93" style="animation-delay: 1.6374670511610991s;"/>
    <rect class="day fire-white" x="508" y="92" width="22" height="22" fill="url(#fireGradientWhite)"/>
    <path class="lightning" d="M 519.0,87 L 521.050765413961,96.4 L 514.3531160011827,100.8 L 520.3593603902199,105.2 L 521.708797926758,109.6 L 519.0,119" style="animation-delay: 1.0605227254189622s;"/>
    <rect class="day fire-white" x="508" y="144" width="22" height="22" fill="url(#fireGradientWhite)"/>
    <path class="lightning" d="M 519.0,139 L 520.8074677408717,148.4 L 521.54645367833,152.8 L 520.4494548327616,157.2 L 518.1522215179723,161.6 L 519.0,171" style="animation-delay: 1.887279358608285s;"/>
    <rect class="day fire-white" x="508" y="170" width="22" height="22" fill="url(#fireGradientWhite)"/>
    <path class="lightning" d="M 519.0,165 L 519.6355242374785,174.4 L 524.9562316013923,178.8 L 520.622349755243,183.2 L 520.9715616161609,187.6 L 519.0,197" style="animation-delay: 1.0623155098629964s;"/>
    <rect class="day fire-white" x="508" y="196" width="22" height="22" fill="url(#fireGradientWhite)"/>
    <path class="lightning" d="M 519.0,191 L 521.2049860955244,200.4 L 523.458971074706,204.8 L 518.6965923796424,209.2 L 522.2359177282129,213.6 L 519.0,223" style="animation-delay: 0.1470596427242623s;"/>
    <rect class="day fire-white" x="534" y="66" width="22" height="22" fill="url(#fireGradientWhite)"/>
    <path class="lightning" d="M 545.0,61 L 546.766909984032,70.4 L 540.5783112072626,74.8 L 543.5687461658956,79.2 L 541.3599149283592,83.6 L 545.0,93" style="animation-delay: 1.48617157148397s;"/>
    <rect class="day fire-white" x="534" y="92" width="22" height="22" fill="url(#fireGradientWhite)"/>
    <path class="lightning" d="M 545.0,87 L 546.1154884701959,96.4 L 543.4978640334978,100.8 L 547.4212557141905,105.2 L 548.9783738169409,109.6 L 545.0,119" style="animation-delay: 1.7360953853389876s;"/>
    <rect class="day fire-white" x="534" y="118" width="22" height="22" fill="url(#fireGradientWhite)"/>
    <path class="lightning" d="M 545.0,113 L 548.0990158563995,122.4 L 539.331068762221,126.8 L 541.9783502823803,131.2 L 541.4877521807938,135.6 L 545.0,145" style="animation-delay: 1.289962987559087s;"/>
    <rect class="day fire-white" x="534" y="144" width="22" height="22" fill="url(#fireGradientWhite)"/>
    <path class="lightning" d="M 545.0,139 L 543.0981894342405,148.4 L 545.1140949030166,152.8 L 541.0627902226265,157.2 L 546.0284418317533,161.6 L 545.0,171" style="animation-delay: 0.4710686335282137s;"/>
    <rect class="day fire-white" x="534" y="170" width="22" height="22" fill="url(#fireGradientWhite)"/>
    <path class="lightning" d="M 545.0,165 L 541.3465274477394,174.4 L 541.1362790169325,178.8 L 544.6730613705603,183.2 L 549.338163710767,187.6 L 545.0,197" style="animation-delay: 1.0971516905499006s;"/>
    <rect class="day fire-white" x="560" y="66" width="22" height="22" fill="url(#fireGradientWhite)"/>
    <path class="lightning" d="M 571.0,61 L 567.3152951540669,70.4 L 567.9118473867283,74.8 L 572.7710845383947,79.2 L 572.3742401101929,83.6 L 571.0,93" style="animation-delay: 1.3021936881588276s;"/>
    <rect class="day fire-white" x="560" y="92" width="22" height="22" fill="url(#fireGradientWhite)"/>
    <path class="lightning" d="M 571.0,87 L 572.2243274147394,96.4 L 575.0027382527732,100.8 L 567.8817451373576,105.2 L 569.6763047676858,109.6 L 571.0,119" style="animation-delay: 0.08770415283137822s;"/>
    <rect class="day fire-red" x="560" y="118" width="22" height="22" fill="url(#fireGradientRed)"/>
    <rect class="day fire-white" x="586" y="66" width="22" height="22" fill="url(#fireGradientWhite)"/>
    <path class="lightning" d="M 597.0,61 L 594.8388224041206,70.4 L 594.9114111026249,74.8 L 595.5245780956739,79.2 L 593.8194715746023,83.6 L 597.0,93" style="animation-delay: 1.024920817807616s;"/>
    <rect class="day fire-red" x="612" y="66" width="22" height="22" fill="url(#fireGradientRed)"/>
    <rect class="day fire-red" x="612" y="144" width="22" height="22" fill="url(#fireGradientRed)"/>

    <defs>
        <!-- Gradiente Fogo Vermelho -->
        <linearGradient id="fireGradientRed" x1="0%" y1="100%" x2="100%" y2="0%">
            <stop offset="0%" style="stop-color:#ff0000;stop-opacity:1">
                <animate attributeName="stop-color" values="#ff0000;#cc0000;#ff0000" dur="2s" repeatCount="indefinite"/>
            </stop>
            <stop offset="40%" style="stop-color:#ff4400;stop-opacity:1">
                <animate attributeName="stop-color" values="#ff4400;#ff6600;#ff4400" dur="2s" repeatCount="indefinite"/>
            </stop>
            <stop offset="70%" style="stop-color:#ff8800;stop-opacity:1">
                <animate attributeName="stop-color" values="#ff8800;#ffaa00;#ff8800" dur="2s" repeatCount="indefinite"/>
            </stop>
            <stop offset="100%" style="stop-color:#ffff00;stop-opacity:1">
                <animate attributeName="stop-color" values="#ffff00;#ffcc00;#ffff00" dur="2s" repeatCount="indefinite"/>
            </stop>
        </linearGradient>
        
        
        <!-- Gradiente Fogo Branco (Alto Contraste) -->
        <linearGradient id="fireGradientWhite" x1="0%" y1="100%" x2="100%" y2="0%">
            <stop offset="0%" style="stop-color:#ff0000;stop-opacity:1">
                <animate attributeName="stop-color" values="#ff0000;#cc0000;#ff0000" dur="1.5s" repeatCount="indefinite"/>
            </stop>
            <stop offset="30%" style="stop-color:#ff6600;stop-opacity:1">
                <animate attributeName="stop-color" values="#ff6600;#ff8800;#ff6600" dur="1.5s" repeatCount="indefinite"/>
            </stop>
            <stop offset="60%" style="stop-color:#ffdd00;stop-opacity:1">
                <animate attributeName="stop-color" values="#ffdd00;#ffff00;#ffdd00" dur="1.5s" repeatCount="indefinite"/>
            </stop>
            <stop offset="100%" style="stop-color:#ffffff;stop-opacity:1">
                <animate attributeName="stop-color" values="#ffffff;#ffffcc;#ffffff" dur="1.5s" repeatCount="indefinite"/>
            </stop>
        </linearGradient>
    </defs>
    
    <!-- Legenda -->
    <g transform="translate(40, 252)">
        <text y="15">Menos</text>
        <rect x="40" width="22" height="22" fill="#ebedf0" rx="2"/>
        <rect x="64" width="22" height="22" fill="hsl(60, 100%, 92%)" rx="2"/>
        <rect x="88" width="22" height="22" fill="#ffff3e" rx="2"/>
        <rect x="112" width="22" height="22" fill="#FFD700" rx="2"/>
        <rect x="136" width="22" height="22" fill="rgb(255,160,90)" rx="2"/>
        <rect x="160" width="22" height="22" fill="rgb(255,130,60)" rx="2"/>
        <rect x="184" width="22" height="22" fill="rgb(255,100,40)" rx="2"/>
        <rect x="208" width="22" height="22" fill="rgb(255,60,30)" rx="2"/>
        <rect class="day fire-red" x="232" width="22" height="22" fill="url(#fireGradientRed)" rx="2"/>
        <rect class="day fire-white" x="256" width="22" height="22" fill="url(#fireGradientWhite)" rx="2"/>
        <text x="290" y="15">Mais 🔥⚡</text>
    </g>
</svg>