<svg width="100%" viewBox="0 0 730 302" xmlns="http://www.w3.org/2000/svg">
    <style>
        .day { rx: 2; ry: 2; transition: all 0.2s; }
        .day:hover { stroke: #ff6b00; stroke-width: 2; }
        text { font-family: -apple-system, BlinkMacSystemFont, "Segoe UI", Helvetica, Arial, sans-serif, "Apple Color Emoji", "Segoe UI Emoji"; font-size: 10px; fill: #24292f; }
        
        /* Fogo Vermelho (Nível 8) - Intensidade Reduzida */
        .fire-red { 
            rx: 2;
            // animation: pulseFireRed 2s ease-in-out infinite;
            // filter: drop-shadow(0 0 6px rgba(255, 100, 0, 0.6));
        }
        
        @keyframes pulseFireRed {
            0% { 
                filter: 
                    drop-shadow(0 -3px 6px rgba(255, 0, 0, 0.8))
                    drop-shadow(0 -6px 12px rgba(255, 100, 0, 0.6))
                    drop-shadow(0 -10px 18px rgba(255, 150, 0, 0.4));
            }
            50% { 
                filter: 
                    drop-shadow(0 -5px 10px rgba(255, 0, 0, 0.9))
                    drop-shadow(0 -10px 20px rgba(255, 100, 0, 0.7))
                    drop-shadow(0 -15px 28px rgba(255, 200, 0, 0.5));
            }
            100% { 
                filter: 
                    drop-shadow(0 -3px 6px rgba(255, 0, 0, 0.8))
                    drop-shadow(0 -6px 12px rgba(255, 100, 0, 0.6))
                    drop-shadow(0 -10px 18px rgba(255, 150, 0, 0.4));
            }
        }
        
        /* Fogo Branco (Nível 9) - Super Intenso com Alto Contraste */
        .fire-white { 
            rx: 2;
            animation: pulseFireWhite 1.5s ease-in-out infinite;
            filter: drop-shadow(0 0 15px rgba(255, 255, 255, 1));
        }
        
        @keyframes pulseFireOrange {
            0% {
                filter: 
                drop-shadow(0 -6px 12px rgba(200, 50, 0, 1))
                drop-shadow(0 -12px 24px rgba(255, 255, 255, 1))
                drop-shadow(0 -20px 40px rgba(255, 160, 50, 0.9));
            }
            50% {
                filter: 
                drop-shadow(0 -10px 20px rgba(180, 30, 0, 1))
                drop-shadow(0 -20px 40px rgba(255, 255, 255, 1))
                drop-shadow(0 -30px 60px rgba(255, 200, 80, 1));
            }
            100% {
                filter: 
                drop-shadow(0 -6px 12px rgba(200, 50, 0, 1))
                drop-shadow(0 -12px 24px rgba(255, 255, 255, 1))
                drop-shadow(0 -20px 40px rgba(255, 160, 50, 0.9));
            }
        }
        
        /* Fagulhas Vermelhas (Fogo Vermelho) */
        .spark-red {
            fill: #ffaa00;
            opacity: 0;
            animation: sparkFlyRed 1.5s ease-out infinite;
        }
        
        @keyframes sparkFlyRed {
            0% {
                opacity: 1;
                transform: translateY(0) scale(1);
            }
            50% {
                opacity: 0.7;
            }
            100% {
                opacity: 0;
                transform: translateY(var(--ty)) scale(0.2);
            }
        }
        
        /* Fagulhas Azuis (Fogo Branco) - Pequenas e Dispersas */
        .spark-white {
            opacity: 0;
            animation: sparkFlyWhite 1.5s ease-out infinite;
        }
        
        @keyframes sparkFlyWhite {
            0% {
                opacity: 0.9;
                transform: translate(0, 0) scale(1);
                fill: #ffffff;
            }
            30% {
                opacity: 0.8;
                fill: #ffff00;
            }
            70% {
                opacity: 0.4;
                fill: #ffaa00;
            }
            100% {
                opacity: 0;
                transform: translate(var(--tx), var(--ty)) scale(0.3);
                fill: #ff6600;
            }
        }
        
        /* Raio Elétrico (Neon) */
        .lightning {
            stroke: #FFFFFF;
            stroke-width: 1.5;
            fill: none;
            opacity: 0;
            filter: drop-shadow(0 0 4px #00FFFF) drop-shadow(0 0 8px #FFFFFF);
            animation: lightningStrike 2s ease-in-out infinite;
        }
        
        @keyframes lightningStrike {
            0% {
                opacity: 0;
                stroke-width: 0.5;
            }
            10% {
                opacity: 1;
                stroke-width: 2;
                filter: drop-shadow(0 0 8px #00FFFF) drop-shadow(0 0 16px #FFFFFF);
            }
            15% {
                opacity: 0.3;
            }
            20% {
                opacity: 1;
                stroke-width: 2.5;
                filter: drop-shadow(0 0 12px #00FFFF) drop-shadow(0 0 20px #FFFFFF);
            }
            25% {
                opacity: 0;
            }
            100% {
                opacity: 0;
            }
        }
    </style>
    <rect width="730" height="302" fill="#ffffff" rx="6"/>
    
    <!-- Título -->
    <text x="15" y="25" fill="#24292f" font-size="12" font-weight="400">
        <tspan fill="#ff6b00" font-weight="600">970</tspan> contribuições nos últimos 6 meses
    </text>
    
    <!-- Labels dos dias -->
    <text x="25" y="82" text-anchor="end">Seg</text>
    <text x="25" y="134" text-anchor="end">Qua</text>
    <text x="25" y="186" text-anchor="end">Sex</text>
    <text x="40" y="35">Abr</text>
    <text x="92" y="35">Mai</text>
    <text x="222" y="35">Jun</text>
    <text x="326" y="35">Jul</text>
    <text x="430" y="35">Ago</text>
    <text x="560" y="35">Set</text>
    <text x="664" y="35">Out</text>
    <rect class="day" x="40" y="40" width="22" height="22" fill="hsl(60, 100%, 92%)"/>
    <rect class="day" x="40" y="66" width="22" height="22" fill="#ebedf0"/>
    <rect class="day" x="40" y="92" width="22" height="22" fill="#ebedf0"/>
    <rect class="day" x="40" y="118" width="22" height="22" fill="#ebedf0"/>
    <rect class="day" x="40" y="144" width="22" height="22" fill="#ebedf0"/>
    <rect class="day" x="40" y="170" width="22" height="22" fill="#ebedf0"/>
    <rect class="day" x="40" y="196" width="22" height="22" fill="#ebedf0"/>
    <rect class="day" x="66" y="40" width="22" height="22" fill="#ebedf0"/>
    <rect class="day" x="66" y="66" width="22" height="22" fill="#ebedf0"/>
    <rect class="day" x="66" y="92" width="22" height="22" fill="#ebedf0"/>
    <rect class="day" x="66" y="118" width="22" height="22" fill="#ebedf0"/>
    <rect class="day" x="66" y="144" width="22" height="22" fill="#ebedf0"/>
    <rect class="day" x="66" y="170" width="22" height="22" fill="#ebedf0"/>
    <rect class="day" x="66" y="196" width="22" height="22" fill="#ebedf0"/>
    <rect class="day" x="92" y="40" width="22" height="22" fill="#ebedf0"/>
    <rect class="day" x="92" y="66" width="22" height="22" fill="#ebedf0"/>
    <rect class="day" x="92" y="92" width="22" height="22" fill="#ebedf0"/>
    <rect class="day" x="92" y="118" width="22" height="22" fill="#ebedf0"/>
    <rect class="day" x="92" y="144" width="22" height="22" fill="#ebedf0"/>
    <rect class="day" x="92" y="170" width="22" height="22" fill="#ebedf0"/>
    <rect class="day" x="92" y="196" width="22" height="22" fill="#ebedf0"/>
    <rect class="day" x="118" y="40" width="22" height="22" fill="#ebedf0"/>
    <rect class="day" x="118" y="66" width="22" height="22" fill="#ebedf0"/>
    <rect class="day" x="118" y="92" width="22" height="22" fill="#ebedf0"/>
    <rect class="day" x="118" y="118" width="22" height="22" fill="#ebedf0"/>
    <rect class="day" x="118" y="144" width="22" height="22" fill="#ebedf0"/>
    <rect class="day" x="118" y="170" width="22" height="22" fill="#ebedf0"/>
    <rect class="day" x="118" y="196" width="22" height="22" fill="hsl(60, 100%, 92%)"/>
    <rect class="day" x="144" y="40" width="22" height="22" fill="#ebedf0"/>
    <rect class="day" x="144" y="66" width="22" height="22" fill="#ebedf0"/>
    <rect class="day" x="144" y="92" width="22" height="22" fill="#ebedf0"/>
    <rect class="day" x="144" y="118" width="22" height="22" fill="#ebedf0"/>
    <rect class="day" x="144" y="144" width="22" height="22" fill="#ebedf0"/>
    <rect class="day" x="144" y="170" width="22" height="22" fill="hsl(60, 100%, 92%)"/>
    <rect class="day" x="144" y="196" width="22" height="22" fill="#ebedf0"/>
    <rect class="day" x="170" y="40" width="22" height="22" fill="#ebedf0"/>
    <rect class="day" x="170" y="66" width="22" height="22" fill="#ebedf0"/>
    <rect class="day" x="170" y="92" width="22" height="22" fill="#ebedf0"/>
    <rect class="day" x="170" y="118" width="22" height="22" fill="#ebedf0"/>
    <rect class="day" x="170" y="144" width="22" height="22" fill="#ebedf0"/>
    <rect class="day" x="170" y="170" width="22" height="22" fill="hsl(60, 100%, 92%)"/>
    <rect class="day" x="170" y="196" width="22" height="22" fill="#ebedf0"/>
    <rect class="day" x="196" y="40" width="22" height="22" fill="#ebedf0"/>
    <rect class="day" x="196" y="66" width="22" height="22" fill="hsl(60, 100%, 92%)"/>
    <rect class="day" x="196" y="92" width="22" height="22" fill="#ebedf0"/>
    <rect class="day" x="196" y="118" width="22" height="22" fill="#ebedf0"/>
    <rect class="day" x="196" y="144" width="22" height="22" fill="#ebedf0"/>
    <rect class="day" x="196" y="170" width="22" height="22" fill="#ebedf0"/>
    <rect class="day" x="196" y="196" width="22" height="22" fill="#ebedf0"/>
    <rect class="day" x="222" y="40" width="22" height="22" fill="#ebedf0"/>
    <rect class="day" x="222" y="66" width="22" height="22" fill="#ebedf0"/>
    <rect class="day" x="222" y="92" width="22" height="22" fill="#ebedf0"/>
    <rect class="day" x="222" y="118" width="22" height="22" fill="#ebedf0"/>
    <rect class="day" x="222" y="144" width="22" height="22" fill="#ebedf0"/>
    <rect class="day" x="222" y="170" width="22" height="22" fill="#ebedf0"/>
    <rect class="day" x="222" y="196" width="22" height="22" fill="#ebedf0"/>
    <rect class="day" x="248" y="40" width="22" height="22" fill="#ebedf0"/>
    <rect class="day" x="248" y="66" width="22" height="22" fill="hsl(60, 100%, 92%)"/>
    <rect class="day" x="248" y="92" width="22" height="22" fill="#ebedf0"/>
    <rect class="day" x="248" y="118" width="22" height="22" fill="hsl(60, 100%, 92%)"/>
    <rect class="day" x="248" y="144" width="22" height="22" fill="#ebedf0"/>
    <rect class="day" x="248" y="170" width="22" height="22" fill="#ebedf0"/>
    <rect class="day" x="248" y="196" width="22" height="22" fill="hsl(60, 100%, 92%)"/>
    <rect class="day" x="274" y="40" width="22" height="22" fill="hsl(60, 100%, 92%)"/>
    <rect class="day" x="274" y="66" width="22" height="22" fill="rgb(255,60,30)"/>
    <rect class="day" x="274" y="92" width="22" height="22" fill="#ffff3e"/>
    <rect class="day" x="274" y="118" width="22" height="22" fill="#ebedf0"/>
    <rect class="day" x="274" y="144" width="22" height="22" fill="#ebedf0"/>
    <rect class="day" x="274" y="170" width="22" height="22" fill="#ebedf0"/>
    <rect class="day" x="274" y="196" width="22" height="22" fill="#ebedf0"/>
    <rect class="day" x="300" y="40" width="22" height="22" fill="#ebedf0"/>
    <rect class="day" x="300" y="66" width="22" height="22" fill="#ebedf0"/>
    <rect class="day" x="300" y="92" width="22" height="22" fill="#ffff3e"/>
    <rect class="day" x="300" y="118" width="22" height="22" fill="#ffff3e"/>
    <rect class="day" x="300" y="144" width="22" height="22" fill="#ebedf0"/>
    <rect class="day" x="300" y="170" width="22" height="22" fill="#ebedf0"/>
    <rect class="day" x="300" y="196" width="22" height="22" fill="#ebedf0"/>
    <rect class="day" x="326" y="40" width="22" height="22" fill="hsl(60, 100%, 92%)"/>
    <rect class="day" x="326" y="66" width="22" height="22" fill="rgb(255,100,40)"/>
    <rect class="day" x="326" y="170" width="22" height="22" fill="hsl(60, 100%, 92%)"/>
    <rect class="day" x="326" y="196" width="22" height="22" fill="#ebedf0"/>
    <rect class="day" x="352" y="40" width="22" height="22" fill="#ffff3e"/>
    <rect class="day" x="352" y="66" width="22" height="22" fill="#ebedf0"/>
    <rect class="day" x="352" y="92" width="22" height="22" fill="hsl(60, 100%, 92%)"/>
    <rect class="day" x="352" y="118" width="22" height="22" fill="hsl(60, 100%, 92%)"/>
    <rect class="day" x="352" y="144" width="22" height="22" fill="#ebedf0"/>
    <rect class="day" x="352" y="170" width="22" height="22" fill="#ebedf0"/>
    <rect class="day" x="352" y="196" width="22" height="22" fill="#ebedf0"/>
    <rect class="day" x="378" y="40" width="22" height="22" fill="#ebedf0"/>
    <rect class="day" x="378" y="66" width="22" height="22" fill="#FFD700"/>
    <rect class="day" x="378" y="92" width="22" height="22" fill="#ffff3e"/>
    <rect class="day" x="378" y="118" width="22" height="22" fill="#ffff3e"/>
    <rect class="day" x="378" y="144" width="22" height="22" fill="#FFD700"/>
    <rect class="day" x="378" y="170" width="22" height="22" fill="#ebedf0"/>
    <rect class="day" x="378" y="196" width="22" height="22" fill="#ebedf0"/>
    <rect class="day" x="404" y="40" width="22" height="22" fill="#ebedf0"/>
    <rect class="day" x="404" y="92" width="22" height="22" fill="rgb(255,160,90)"/>
    <rect class="day" x="404" y="118" width="22" height="22" fill="#FFD700"/>
    <rect class="day" x="404" y="144" width="22" height="22" fill="#ebedf0"/>
    <rect class="day" x="404" y="170" width="22" height="22" fill="hsl(60, 100%, 92%)"/>
    <rect class="day" x="404" y="196" width="22" height="22" fill="#ebedf0"/>
    <rect class="day" x="430" y="40" width="22" height="22" fill="#ebedf0"/>
    <rect class="day" x="430" y="66" width="22" height="22" fill="hsl(60, 100%, 92%)"/>
    <rect class="day" x="430" y="92" width="22" height="22" fill="rgb(255,130,60)"/>
    <rect class="day" x="430" y="118" width="22" height="22" fill="hsl(60, 100%, 92%)"/>
    <rect class="day" x="430" y="170" width="22" height="22" fill="#ebedf0"/>
    <rect class="day" x="430" y="196" width="22" height="22" fill="#ebedf0"/>
    <rect class="day" x="456" y="40" width="22" height="22" fill="#ebedf0"/>
    <rect class="day" x="456" y="66" width="22" height="22" fill="hsl(60, 100%, 92%)"/>
    <rect class="day" x="456" y="170" width="22" height="22" fill="#ebedf0"/>
    <rect class="day" x="456" y="196" width="22" height="22" fill="#ebedf0"/>
    <rect class="day" x="482" y="66" width="22" height="22" fill="hsl(60, 100%, 92%)"/>
    <rect class="day" x="482" y="144" width="22" height="22" fill="rgb(255,100,40)"/>
    <rect class="day" x="482" y="196" width="22" height="22" fill="#ffff3e"/>
    <rect class="day" x="508" y="118" width="22" height="22" fill="rgb(255,160,90)"/>
    <rect class="day" x="534" y="40" width="22" height="22" fill="rgb(255,160,90)"/>
    <rect class="day" x="534" y="196" width="22" height="22" fill="rgb(255,160,90)"/>
    <rect class="day" x="560" y="40" width="22" height="22" fill="#ebedf0"/>
    <rect class="day" x="560" y="144" width="22" height="22" fill="#ffff3e"/>
    <rect class="day" x="560" y="170" width="22" height="22" fill="#ebedf0"/>
    <rect class="day" x="560" y="196" width="22" height="22" fill="rgb(255,160,90)"/>
    <rect class="day" x="586" y="40" width="22" height="22" fill="#ffff3e"/>
    <rect class="day" x="586" y="92" width="22" height="22" fill="rgb(255,130,60)"/>
    <rect class="day" x="586" y="118" width="22" height="22" fill="hsl(60, 100%, 92%)"/>
    <rect class="day" x="586" y="144" width="22" height="22" fill="hsl(60, 100%, 92%)"/>
    <rect class="day" x="586" y="170" width="22" height="22" fill="hsl(60, 100%, 92%)"/>
    <rect class="day" x="586" y="196" width="22" height="22" fill="#ffff3e"/>
    <rect class="day" x="612" y="40" width="22" height="22" fill="rgb(255,160,90)"/>
    <rect class="day" x="612" y="92" width="22" height="22" fill="rgb(255,100,40)"/>
    <rect class="day" x="612" y="118" width="22" height="22" fill="#ffff3e"/>
    <rect class="day" x="612" y="170" width="22" height="22" fill="hsl(60, 100%, 92%)"/>
    <rect class="day" x="612" y="196" width="22" height="22" fill="hsl(60, 100%, 92%)"/>
    <rect class="day" x="638" y="40" width="22" height="22" fill="#ffff3e"/>
    <rect class="day" x="638" y="66" width="22" height="22" fill="#ebedf0"/>
    <rect class="day" x="638" y="92" width="22" height="22" fill="#ffff3e"/>
    <rect class="day" x="638" y="118" width="22" height="22" fill="hsl(60, 100%, 92%)"/>
    <rect class="day" x="638" y="144" width="22" height="22" fill="rgb(255,160,90)"/>
    <rect class="day" x="638" y="170" width="22" height="22" fill="hsl(60, 100%, 92%)"/>
    <rect class="day" x="638" y="196" width="22" height="22" fill="#ebedf0"/>
    <rect class="day" x="664" y="40" width="22" height="22" fill="#ffff3e"/>
    <rect class="day" x="664" y="66" width="22" height="22" fill="#ebedf0"/>
    <rect class="day fire-red" x="326" y="92" width="22" height="22" fill="url(#fireGradientRed)"/>
    <rect class="day fire-white" x="326" y="118" width="22" height="22" fill="url(#fireGradientWhite)"/>
    <path class="lightning" d="M 337.0,113 L 337.84015790082736,122.4 L 334.06458292746925,126.8 L 333.97468323705306,131.2 L 334.38731392141335,135.6 L 337.0,145" style="animation-delay: 0.07076936116638466s;"/>
    <rect class="day fire-white" x="326" y="144" width="22" height="22" fill="url(#fireGradientWhite)"/>
    <path class="lightning" d="M 337.0,139 L 336.3007329950745,148.4 L 340.8758926847584,152.8 L 337.5871359846645,157.2 L 332.6559046471793,161.6 L 337.0,171" style="animation-delay: 1.8750844332334946s;"/>
    <rect class="day fire-red" x="404" y="66" width="22" height="22" fill="url(#fireGradientRed)"/>
    <rect class="day fire-white" x="430" y="144" width="22" height="22" fill="url(#fireGradientWhite)"/>
    <path class="lightning" d="M 441.0,139 L 438.1552224014981,148.4 L 435.54259456655683,152.8 L 440.4542411344583,157.2 L 436.0738236116156,161.6 L 441.0,171" style="animation-delay: 1.0692536866998101s;"/>
    <rect class="day fire-red" x="456" y="92" width="22" height="22" fill="url(#fireGradientRed)"/>
    <rect class="day fire-white" x="456" y="118" width="22" height="22" fill="url(#fireGradientWhite)"/>
    <path class="lightning" d="M 467.0,113 L 469.80829258301003,122.4 L 472.89485876902967,126.8 L 466.3292328226205,131.2 L 465.822115609771,135.6 L 467.0,145" style="animation-delay: 1.5735716033802403s;"/>
    <rect class="day fire-red" x="456" y="144" width="22" height="22" fill="url(#fireGradientRed)"/>
    <rect class="day fire-white" x="482" y="40" width="22" height="22" fill="url(#fireGradientWhite)"/>
    <path class="lightning" d="M 493.0,35 L 496.96821645719285,44.4 L 494.7074588406308,48.8 L 493.26450049403877,53.2 L 490.74703991997535,57.6 L 493.0,67" style="animation-delay: 1.694522141535421s;"/>
    <rect class="day fire-white" x="482" y="92" width="22" height="22" fill="url(#fireGradientWhite)"/>
    <path class="lightning" d="M 493.0,87 L 492.27874875729515,96.4 L 491.57437497831535,100.8 L 491.74543550230453,105.2 L 489.940883620764,109.6 L 493.0,119" style="animation-delay: 1.6956102897345897s;"/>
    <rect class="day fire-white" x="482" y="118" width="22" height="22" fill="url(#fireGradientWhite)"/>
    <path class="lightning" d="M 493.0,113 L 495.2704584832112,122.4 L 497.64261907538065,126.8 L 494.7761207619365,131.2 L 494.50335642148633,135.6 L 493.0,145" style="animation-delay: 1.2215895993781234s;"/>
    <rect class="day fire-white" x="482" y="170" width="22" height="22" fill="url(#fireGradientWhite)"/>
    <path class="lightning" d="M 493.0,165 L 493.7443799800942,174.4 L 496.6746127486516,178.8 L 495.51240908493753,183.2 L 492.34834159320707,187.6 L 493.0,197" style="animation-delay: 1.1211003236899935s;"/>
    <rect class="day fire-white" x="508" y="40" width="22" height="22" fill="url(#fireGradientWhite)"/>
    <path class="lightning" d="M 519.0,35 L 515.3504489096133,44.4 L 517.2055651266511,48.8 L 521.0996620739014,53.2 L 519.7208493434243,57.6 L 519.0,67" style="animation-delay: 0.06507676237675719s;"/>
    <rect class="day fire-white" x="508" y="66" width="22" height="22" fill="url(#fireGradientWhite)"/>
    <path class="lightning" d="M 519.0,61 L 515.8536077368342,70.4 L 514.9149549196429,74.8 L 517.9101701655819,79.2 L 523.023771110751,83.6 L 519.0,93" style="animation-delay: 0.8814958700527873s;"/>
    <rect class="day fire-white" x="508" y="92" width="22" height="22" fill="url(#fireGradientWhite)"/>
    <path class="lightning" d="M 519.0,87 L 520.7462106608148,96.4 L 521.301774597654,100.8 L 516.9228813053772,105.2 L 521.6432442337567,109.6 L 519.0,119" style="animation-delay: 1.329603102460408s;"/>
    <rect class="day fire-white" x="508" y="144" width="22" height="22" fill="url(#fireGradientWhite)"/>
    <path class="lightning" d="M 519.0,139 L 516.0763820824302,148.4 L 521.3616258746076,152.8 L 516.1623420081297,157.2 L 522.9200588868221,161.6 L 519.0,171" style="animation-delay: 0.5939681223087343s;"/>
    <rect class="day fire-white" x="508" y="170" width="22" height="22" fill="url(#fireGradientWhite)"/>
    <path class="lightning" d="M 519.0,165 L 521.7618796334777,174.4 L 517.3272638264434,178.8 L 516.808283406487,183.2 L 517.3561359014972,187.6 L 519.0,197" style="animation-delay: 1.3134270125756418s;"/>
    <rect class="day fire-white" x="508" y="196" width="22" height="22" fill="url(#fireGradientWhite)"/>
    <path class="lightning" d="M 519.0,191 L 522.9088151506658,200.4 L 523.9815650839694,204.8 L 518.7190649067279,209.2 L 514.8637369248803,213.6 L 519.0,223" style="animation-delay: 0.1412654459328928s;"/>
    <rect class="day fire-white" x="534" y="66" width="22" height="22" fill="url(#fireGradientWhite)"/>
    <path class="lightning" d="M 545.0,61 L 542.4445162077488,70.4 L 545.6468179585592,74.8 L 548.748244327662,79.2 L 549.6049515295653,83.6 L 545.0,93" style="animation-delay: 0.5753332160112115s;"/>
    <rect class="day fire-white" x="534" y="92" width="22" height="22" fill="url(#fireGradientWhite)"/>
    <path class="lightning" d="M 545.0,87 L 542.7525602805397,96.4 L 546.7938424637424,100.8 L 545.9526813546223,105.2 L 546.042226657479,109.6 L 545.0,119" style="animation-delay: 1.4289944672935824s;"/>
    <rect class="day fire-white" x="534" y="118" width="22" height="22" fill="url(#fireGradientWhite)"/>
    <path class="lightning" d="M 545.0,113 L 541.1139982621933,122.4 L 540.802382544033,126.8 L 541.4974986043079,131.2 L 546.3494530495566,135.6 L 545.0,145" style="animation-delay: 0.6647614337887622s;"/>
    <rect class="day fire-white" x="534" y="144" width="22" height="22" fill="url(#fireGradientWhite)"/>
    <path class="lightning" d="M 545.0,139 L 545.0517272386242,148.4 L 547.5034855879065,152.8 L 545.3726382457083,157.2 L 541.2852634689503,161.6 L 545.0,171" style="animation-delay: 0.53900891456187s;"/>
    <rect class="day fire-white" x="534" y="170" width="22" height="22" fill="url(#fireGradientWhite)"/>
    <path class="lightning" d="M 545.0,165 L 543.4691798094377,174.4 L 541.9730475342526,178.8 L 541.5722297667681,183.2 L 547.537015831312,187.6 L 545.0,197" style="animation-delay: 1.4546798329672106s;"/>
    <rect class="day fire-white" x="560" y="66" width="22" height="22" fill="url(#fireGradientWhite)"/>
    <path class="lightning" d="M 571.0,61 L 571.9042554389467,70.4 L 575.3244364339903,74.8 L 572.8292714129556,79.2 L 569.9341309560391,83.6 L 571.0,93" style="animation-delay: 0.219846307949346s;"/>
    <rect class="day fire-white" x="560" y="92" width="22" height="22" fill="url(#fireGradientWhite)"/>
    <path class="lightning" d="M 571.0,87 L 568.6149846871997,96.4 L 569.9318257176739,100.8 L 569.6338511311069,105.2 L 570.7300860301651,109.6 L 571.0,119" style="animation-delay: 1.4960122956155666s;"/>
    <rect class="day fire-red" x="560" y="118" width="22" height="22" fill="url(#fireGradientRed)"/>
    <rect class="day fire-white" x="586" y="66" width="22" height="22" fill="url(#fireGradientWhite)"/>
    <path class="lightning" d="M 597.0,61 L 598.595211534479,70.4 L 598.7343938898985,74.8 L 596.0263266951258,79.2 L 595.0520836147175,83.6 L 597.0,93" style="animation-delay: 1.9435631148550192s;"/>
    <rect class="day fire-red" x="612" y="66" width="22" height="22" fill="url(#fireGradientRed)"/>
    <rect class="day fire-red" x="612" y="144" width="22" height="22" fill="url(#fireGradientRed)"/>

    <defs>
        <!-- Gradiente Fogo Vermelho -->
        <linearGradient id="fireGradientRed" x1="0%" y1="100%" x2="100%" y2="0%">
            <stop offset="0%" style="stop-color:#ff0000;stop-opacity:1">
                <animate attributeName="stop-color" values="#ff0000;#cc0000;#ff0000" dur="2s" repeatCount="indefinite"/>
            </stop>
            <stop offset="40%" style="stop-color:#ff4400;stop-opacity:1">
                <animate attributeName="stop-color" values="#ff4400;#ff6600;#ff4400" dur="2s" repeatCount="indefinite"/>
            </stop>
            <stop offset="70%" style="stop-color:#ff8800;stop-opacity:1">
                <animate attributeName="stop-color" values="#ff8800;#ffaa00;#ff8800" dur="2s" repeatCount="indefinite"/>
            </stop>
            <stop offset="100%" style="stop-color:#ffff00;stop-opacity:1">
                <animate attributeName="stop-color" values="#ffff00;#ffcc00;#ffff00" dur="2s" repeatCount="indefinite"/>
            </stop>
        </linearGradient>
        
        
        <!-- Gradiente Fogo Branco (Alto Contraste) -->
        <linearGradient id="fireGradientWhite" x1="0%" y1="100%" x2="100%" y2="0%">
            <stop offset="0%" style="stop-color:#ff0000;stop-opacity:1">
                <animate attributeName="stop-color" values="#ff0000;#cc0000;#ff0000" dur="1.5s" repeatCount="indefinite"/>
            </stop>
            <stop offset="30%" style="stop-color:#ff6600;stop-opacity:1">
                <animate attributeName="stop-color" values="#ff6600;#ff8800;#ff6600" dur="1.5s" repeatCount="indefinite"/>
            </stop>
            <stop offset="60%" style="stop-color:#ffdd00;stop-opacity:1">
                <animate attributeName="stop-color" values="#ffdd00;#ffff00;#ffdd00" dur="1.5s" repeatCount="indefinite"/>
            </stop>
            <stop offset="100%" style="stop-color:#ffffff;stop-opacity:1">
                <animate attributeName="stop-color" values="#ffffff;#ffffcc;#ffffff" dur="1.5s" repeatCount="indefinite"/>
            </stop>
        </linearGradient>
    </defs>
    
    <!-- Legenda -->
    <g transform="translate(40, 252)">
        <text y="15">Menos</text>
        <rect x="40" width="22" height="22" fill="#ebedf0" rx="2"/>
        <rect x="64" width="22" height="22" fill="hsl(60, 100%, 92%)" rx="2"/>
        <rect x="88" width="22" height="22" fill="#ffff3e" rx="2"/>
        <rect x="112" width="22" height="22" fill="#FFD700" rx="2"/>
        <rect x="136" width="22" height="22" fill="rgb(255,160,90)" rx="2"/>
        <rect x="160" width="22" height="22" fill="rgb(255,130,60)" rx="2"/>
        <rect x="184" width="22" height="22" fill="rgb(255,100,40)" rx="2"/>
        <rect x="208" width="22" height="22" fill="rgb(255,60,30)" rx="2"/>
        <rect class="day fire-red" x="232" width="22" height="22" fill="url(#fireGradientRed)" rx="2"/>
        <rect class="day fire-white" x="256" width="22" height="22" fill="url(#fireGradientWhite)" rx="2"/>
        <text x="290" y="15">Mais 🔥⚡</text>
    </g>
</svg>